%TF.GenerationSoftware,KiCad,Pcbnew,(6.0.7)*%
%TF.CreationDate,2023-10-07T15:19:58-05:00*%
%TF.ProjectId,Throttle Position Sensor,5468726f-7474-46c6-9520-506f73697469,rev?*%
%TF.SameCoordinates,Original*%
%TF.FileFunction,Profile,NP*%
%FSLAX46Y46*%
G04 Gerber Fmt 4.6, Leading zero omitted, Abs format (unit mm)*
G04 Created by KiCad (PCBNEW (6.0.7)) date 2023-10-07 15:19:58*
%MOMM*%
%LPD*%
G01*
G04 APERTURE LIST*
%TA.AperFunction,Profile*%
%ADD10C,0.014000*%
%TD*%
%TA.AperFunction,Profile*%
%ADD11C,0.100000*%
%TD*%
G04 APERTURE END LIST*
D10*
X170647324Y-94904038D02*
X170647324Y-110914780D01*
X125174814Y-111109765D02*
X125166200Y-111071566D01*
X146954528Y-101133095D02*
X147597792Y-101240136D01*
X153960082Y-105588506D02*
X154130965Y-105865169D01*
X135800000Y-111200000D02*
X135802916Y-110529658D01*
X125227392Y-90417303D02*
X125244932Y-90382417D01*
X125159454Y-90640993D02*
X125166200Y-90602328D01*
X170413010Y-111480468D02*
X170384264Y-111507823D01*
X161757193Y-85970191D02*
X161790786Y-85988782D01*
X170079993Y-111680202D02*
X170042325Y-111690654D01*
X125211583Y-111220912D02*
X125197532Y-111184504D01*
X155774328Y-111653694D02*
X155752785Y-111641234D01*
X170440365Y-111451722D02*
X170413010Y-111480468D01*
X155539337Y-111372469D02*
X155532086Y-111348692D01*
D11*
X128631106Y-108750000D02*
G75*
G03*
X128631106Y-108750000I-1131106J0D01*
G01*
D10*
X170117063Y-111667936D02*
X170079993Y-111680202D01*
X129464896Y-86113549D02*
X129493642Y-86086193D01*
X155517504Y-111275380D02*
X155515091Y-111250428D01*
X135676100Y-111544485D02*
X135658956Y-111563060D01*
X143079588Y-101389988D02*
X143716272Y-101240132D01*
X150671531Y-102417590D02*
X150957890Y-102593321D01*
X161722785Y-85953250D02*
X161757193Y-85970191D01*
X169886994Y-111713798D02*
X169847325Y-111714781D01*
X152276221Y-103598726D02*
X152516267Y-103823476D01*
X125264175Y-111325504D02*
X125244932Y-111291478D01*
X135800109Y-111225277D02*
X135798948Y-111250413D01*
X125264175Y-90348390D02*
X125285096Y-90315289D01*
X155492762Y-110197100D02*
X155511126Y-110529680D01*
X170638557Y-111032917D02*
X170631810Y-111071582D01*
X141230956Y-102096456D02*
X141834736Y-101818150D01*
X129912445Y-85888001D02*
X129951511Y-85883149D01*
X155526019Y-111324556D02*
X155521152Y-111300104D01*
X135746014Y-111441191D02*
X135734195Y-111463093D01*
X125285096Y-90315289D02*
X125307666Y-90283178D01*
X153780090Y-105317492D02*
X153960082Y-105588506D01*
X155691988Y-111597437D02*
X155673145Y-111580760D01*
X125285096Y-111358606D02*
X125264175Y-111325504D01*
X137353972Y-105588485D02*
X137722934Y-105052346D01*
X125150687Y-90759129D02*
X125151670Y-90719460D01*
X155463304Y-109866567D02*
X155492762Y-110197100D01*
X135766284Y-111395828D02*
X135756715Y-111418755D01*
D11*
X165630058Y-91500000D02*
G75*
G03*
X165630058Y-91500000I-860058J0D01*
G01*
D10*
X155752785Y-111641234D02*
X155731851Y-111627692D01*
X155889687Y-111699129D02*
X155865741Y-111692351D01*
X161651773Y-85924422D02*
X161687624Y-85937986D01*
X129760842Y-85926080D02*
X129797913Y-85913814D01*
X135658956Y-111563060D02*
X135640895Y-111580745D01*
X125331858Y-90252123D02*
X125357645Y-90222190D01*
X169965460Y-111706014D02*
X169926395Y-111710867D01*
X170646305Y-94863646D02*
X170647324Y-94904038D01*
X138565926Y-104055538D02*
X139037838Y-103598709D01*
X125357645Y-111451705D02*
X125331858Y-111421772D01*
X125474735Y-111557787D02*
X125443680Y-111533594D01*
X170567907Y-94556532D02*
X170584264Y-94592720D01*
X149479326Y-101818160D02*
X150083106Y-102096467D01*
X139541949Y-103172159D02*
X140077199Y-102777809D01*
X129523575Y-86060406D02*
X129554630Y-86036214D01*
X170189151Y-111638077D02*
X170153471Y-111653885D01*
X155532086Y-111348692D02*
X155526019Y-111324556D01*
X125185267Y-90526461D02*
X125197532Y-90489390D01*
X170459912Y-94389509D02*
X170484909Y-94420828D01*
X155637940Y-111544500D02*
X155621827Y-111525172D01*
X170611503Y-94667327D02*
X170622327Y-94705609D01*
X125357645Y-90222190D02*
X125385001Y-90193444D01*
X151772111Y-103172174D02*
X152028124Y-103381545D01*
X135539712Y-111653678D02*
X135517601Y-111665038D01*
X170004126Y-111699268D02*
X169965460Y-111706014D01*
X170258063Y-111601293D02*
X170224037Y-111620537D01*
X129688755Y-85955940D02*
X129724434Y-85940131D01*
X155673145Y-111580760D02*
X155655084Y-111563075D01*
X125385001Y-111480451D02*
X125357645Y-111451705D01*
X161915759Y-86079147D02*
X161944342Y-86105612D01*
X155515091Y-111250428D02*
X155513931Y-111225292D01*
X135792887Y-111300089D02*
X135788021Y-111324541D01*
X170224037Y-111620537D02*
X170189151Y-111638077D01*
X170153471Y-111653885D02*
X170117063Y-111667936D01*
X135494967Y-111675280D02*
X135471852Y-111684385D01*
X125154601Y-110993834D02*
X125151670Y-110954434D01*
X154444876Y-106434480D02*
X154587638Y-106726649D01*
X135850739Y-109866544D02*
X135942412Y-109212579D01*
X161540698Y-85894192D02*
X161578248Y-85902500D01*
X125608860Y-111638060D02*
X125573974Y-111620521D01*
X170323276Y-111557803D02*
X170291165Y-111580373D01*
X161823501Y-86008998D02*
X161855276Y-86030815D01*
X125385001Y-90193444D02*
X129464896Y-86113549D01*
X148234475Y-101389994D02*
X148862384Y-101582669D01*
X156013821Y-111714781D02*
X155988551Y-111714143D01*
X125154601Y-90680059D02*
X125159454Y-90640993D01*
X125871616Y-111710851D02*
X125832550Y-111705999D01*
X152516267Y-103823476D02*
X152748132Y-104055556D01*
X135721278Y-111484418D02*
X135707278Y-111505120D01*
X135561255Y-111641219D02*
X135539712Y-111653678D01*
X129990911Y-85880217D02*
X130030581Y-85879234D01*
X135692214Y-111525157D02*
X135676100Y-111544485D01*
X125573974Y-111620521D02*
X125539947Y-111601277D01*
X155988551Y-111714143D02*
X155963460Y-111712241D01*
X161464337Y-85883007D02*
X161502707Y-85887686D01*
X155371633Y-109212603D02*
X155422883Y-109538321D01*
X154844115Y-107324810D02*
X154957565Y-107630323D01*
X170466153Y-111421788D02*
X170440365Y-111451722D01*
X125159454Y-111032900D02*
X125154601Y-110993834D01*
X135796535Y-111275365D02*
X135792887Y-111300089D01*
X135471852Y-111684385D02*
X135448299Y-111692336D01*
X137722934Y-105052346D02*
X138127271Y-104540724D01*
X170638238Y-94783783D02*
X170643266Y-94823538D01*
X137021446Y-106147218D02*
X137353972Y-105588485D01*
X170433275Y-94359370D02*
X170459912Y-94389509D01*
X140642529Y-102417578D02*
X141230956Y-102096456D01*
X170570619Y-111256608D02*
X170553079Y-111291494D01*
X170384264Y-111507823D02*
X170354331Y-111533610D01*
X135756715Y-111418755D02*
X135746014Y-111441191D01*
X135582189Y-111627677D02*
X135561255Y-111641219D01*
X138127271Y-104540724D02*
X138565926Y-104055538D01*
X125718018Y-111680186D02*
X125680947Y-111667920D01*
X136253069Y-107939780D02*
X136469935Y-107324787D01*
X170598806Y-94629674D02*
X170611503Y-94667327D01*
X125644539Y-111653869D02*
X125608860Y-111638060D01*
X170042325Y-111690654D02*
X170004126Y-111699268D01*
X144359536Y-101133091D02*
X145007187Y-101068868D01*
X135424353Y-111699113D02*
X135400055Y-111704699D01*
X161855276Y-86030815D02*
X161886050Y-86054206D01*
X161615293Y-85912585D02*
X161651773Y-85924422D01*
X129493642Y-86086193D02*
X129523575Y-86060406D01*
X125793885Y-111699252D02*
X125755686Y-111690639D01*
X170484909Y-94420828D02*
X170508236Y-94453259D01*
X155579845Y-111463109D02*
X155568027Y-111441207D01*
X135788021Y-111324541D02*
X135781954Y-111348677D01*
X135602469Y-111613072D02*
X135582189Y-111627677D01*
X155060979Y-107939803D02*
X155154226Y-108253012D01*
X170354331Y-111533610D02*
X170323276Y-111557803D01*
X125539947Y-111601277D02*
X125506846Y-111580356D01*
X154292607Y-106147241D02*
X154444876Y-106434480D01*
X155557325Y-111418770D02*
X155547756Y-111395843D01*
X135781954Y-111348677D02*
X135774703Y-111372454D01*
X155521152Y-111300104D02*
X155517504Y-111275380D01*
X129586741Y-86013644D02*
X129619842Y-85992723D01*
X125197532Y-111184504D02*
X125185267Y-111147433D01*
X125832550Y-111705999D02*
X125793885Y-111699252D01*
X161502707Y-85887686D02*
X161540698Y-85894192D01*
X145007187Y-101068868D02*
X145657032Y-101047460D01*
X135325488Y-111714127D02*
X135300219Y-111714765D01*
X170529864Y-94486733D02*
X170549764Y-94521180D01*
X125443680Y-111533594D02*
X125413747Y-111507807D01*
X130030581Y-85879234D02*
X161386708Y-85879234D01*
X155547756Y-111395843D02*
X155539337Y-111372469D01*
X155913985Y-111704715D02*
X155889687Y-111699129D01*
X155606762Y-111505135D02*
X155592762Y-111484433D01*
X125911016Y-111713783D02*
X125871616Y-111710851D01*
X135798948Y-111250413D02*
X135796535Y-111275365D01*
X135350580Y-111712224D02*
X135325488Y-111714127D01*
X142451679Y-101582661D02*
X143079588Y-101389988D01*
X170622327Y-94705609D02*
X170631248Y-94744450D01*
X150083106Y-102096467D02*
X150671531Y-102417590D01*
X147597792Y-101240136D02*
X148234475Y-101389994D01*
X170405026Y-94330481D02*
X170433275Y-94359370D01*
X125307666Y-111390717D02*
X125285096Y-111358606D01*
X135942412Y-109212579D02*
X136076875Y-108569684D01*
X155309685Y-108889652D02*
X155371633Y-109212603D01*
X129653869Y-85973479D02*
X129688755Y-85955940D01*
X148862384Y-101582669D02*
X149479326Y-101818160D01*
X135734195Y-111463093D02*
X135721278Y-111484418D01*
X125185267Y-111147433D02*
X125174814Y-111109765D01*
X135640895Y-111580745D02*
X135622052Y-111597422D01*
X170291165Y-111580373D02*
X170258063Y-111601293D01*
X161944342Y-86105612D02*
X170405026Y-94330481D01*
X125755686Y-111690639D02*
X125718018Y-111680186D01*
X135375450Y-111709076D02*
X135350580Y-111712224D01*
X125244932Y-90382417D02*
X125264175Y-90348390D01*
X170584264Y-94592720D02*
X170598806Y-94629674D01*
X155511126Y-110529680D02*
X155518262Y-110864067D01*
X136469935Y-107324787D02*
X136726414Y-106726626D01*
X129835581Y-85903361D02*
X129873780Y-85894748D01*
X170549764Y-94521180D02*
X170567907Y-94556532D01*
X169926395Y-111710867D02*
X169886994Y-111713798D01*
X136076875Y-108569684D02*
X136253069Y-107939780D01*
X161886050Y-86054206D02*
X161915759Y-86079147D01*
X129724434Y-85940131D02*
X129760842Y-85926080D01*
X170490345Y-111390733D02*
X170466153Y-111421788D01*
X155621827Y-111525172D02*
X155606762Y-111505135D01*
X125227392Y-111256592D02*
X125211583Y-111220912D01*
X170612744Y-111147450D02*
X170600478Y-111184520D01*
X125413747Y-111507807D02*
X125385001Y-111480451D01*
X125166200Y-111071566D02*
X125159454Y-111032900D01*
X125331858Y-111421772D02*
X125307666Y-111390717D01*
X155842188Y-111684401D02*
X155819073Y-111675296D01*
X135300219Y-111714766D02*
X125950686Y-111714766D01*
X170643266Y-94823538D02*
X170646305Y-94863646D01*
X161578248Y-85902500D02*
X161615293Y-85912585D01*
X153186786Y-104540743D02*
X153393310Y-104793370D01*
X170512915Y-111358622D02*
X170490345Y-111390733D01*
X170623197Y-111109782D02*
X170612744Y-111147450D01*
X161425650Y-85880182D02*
X161464337Y-85883007D01*
X154130965Y-105865169D02*
X154292607Y-106147241D01*
X161386708Y-85879234D02*
X161425650Y-85880182D01*
X125166200Y-90602328D02*
X125174814Y-90564129D01*
X170553079Y-111291494D02*
X170533835Y-111325521D01*
X155237172Y-108569708D02*
X155309685Y-108889652D01*
X155819073Y-111675296D02*
X155796439Y-111665054D01*
X155711572Y-111613087D02*
X155691988Y-111597437D01*
X170631810Y-111071582D02*
X170623197Y-111109782D01*
X145657032Y-101047460D02*
X146306877Y-101068869D01*
X155513931Y-111225292D02*
X155514039Y-111200015D01*
X170647324Y-110914780D02*
X170646341Y-110954450D01*
X154957565Y-107630323D02*
X155060979Y-107939803D01*
X125211583Y-90452983D02*
X125227392Y-90417303D01*
X140077199Y-102777809D02*
X140642529Y-102417578D01*
X141834736Y-101818150D02*
X142451679Y-101582661D01*
X143716272Y-101240132D02*
X144359536Y-101133091D01*
X129619842Y-85992723D02*
X129653869Y-85973479D01*
X169847325Y-111714781D02*
X156013821Y-111714781D01*
X170646341Y-110954450D02*
X170643409Y-110993851D01*
X161790786Y-85988782D02*
X161823501Y-86008998D01*
X155963460Y-111712241D02*
X155938590Y-111709092D01*
X125950686Y-111714766D02*
X125911016Y-111713783D01*
X136726414Y-106726626D02*
X137021446Y-106147218D01*
X161687624Y-85937986D02*
X161722785Y-85953250D01*
X170631248Y-94744450D02*
X170638238Y-94783783D01*
X135622052Y-111597422D02*
X135602469Y-111613072D01*
X155655084Y-111563075D02*
X155655084Y-111563075D01*
X129951511Y-85883149D02*
X129990911Y-85880217D01*
X125244932Y-111291478D02*
X125227392Y-111256592D01*
X135774703Y-111372454D02*
X135766284Y-111395828D01*
X125174814Y-90564129D02*
X125185267Y-90526461D01*
X155154226Y-108253012D02*
X155237172Y-108569708D01*
X125151670Y-110954434D02*
X125150687Y-110914764D01*
X153591122Y-105052367D02*
X153780090Y-105317492D01*
X170508236Y-94453259D02*
X170529864Y-94486733D01*
X155592762Y-111484433D02*
X155579845Y-111463109D01*
X155865741Y-111692351D02*
X155842188Y-111684401D01*
X153393310Y-104793370D02*
X153591122Y-105052367D01*
X125307666Y-90283178D02*
X125331858Y-90252123D01*
X152748132Y-104055556D02*
X152971682Y-104294725D01*
X170586428Y-111220928D02*
X170570619Y-111256608D01*
X135802916Y-110529658D02*
X135850739Y-109866544D01*
X125506846Y-111580356D02*
X125474735Y-111557787D01*
X151236861Y-102777822D02*
X151508312Y-102970853D01*
X129554630Y-86036214D02*
X129586741Y-86013644D01*
X155568027Y-111441207D02*
X155557325Y-111418770D01*
X125197532Y-90489390D02*
X125211583Y-90452983D01*
X170533835Y-111325521D02*
X170512915Y-111358622D01*
X129797913Y-85913814D02*
X129835581Y-85903361D01*
X155518262Y-110864067D02*
X155514039Y-111200021D01*
X135517601Y-111665038D02*
X135494967Y-111675280D01*
X170643409Y-110993851D02*
X170638557Y-111032917D01*
X135800000Y-111200000D02*
X135800109Y-111225277D01*
X125151670Y-90719460D02*
X125154601Y-90680059D01*
X155938590Y-111709092D02*
X155913985Y-111704715D01*
X170600478Y-111184520D02*
X170586428Y-111220928D01*
X135707278Y-111505120D02*
X135692214Y-111525157D01*
X155796439Y-111665054D02*
X155774328Y-111653694D01*
X135448299Y-111692336D02*
X135424353Y-111699113D01*
X139037838Y-103598709D02*
X139541949Y-103172159D01*
X152971682Y-104294725D02*
X153186786Y-104540743D01*
X125680947Y-111667920D02*
X125644539Y-111653869D01*
X152028124Y-103381545D02*
X152276221Y-103598726D01*
X154587638Y-106726649D02*
X154720762Y-107023505D01*
X129873780Y-85894748D02*
X129912445Y-85888001D01*
X155422883Y-109538321D02*
X155463304Y-109866567D01*
X135658956Y-111563060D02*
X135658956Y-111563060D01*
X135400055Y-111704699D02*
X135375450Y-111709076D01*
X155731851Y-111627692D02*
X155711572Y-111613087D01*
X155655084Y-111563075D02*
X155637940Y-111544500D01*
X151508312Y-102970853D02*
X151772111Y-103172174D01*
X154720762Y-107023505D02*
X154844115Y-107324810D01*
X150957890Y-102593321D02*
X151236861Y-102777822D01*
X125150687Y-110914766D02*
X125150687Y-90759129D01*
X146306877Y-101068869D02*
X146954528Y-101133095D01*
M02*
