%TF.GenerationSoftware,KiCad,Pcbnew,(6.0.7)*%
%TF.CreationDate,2023-10-07T15:19:58-05:00*%
%TF.ProjectId,Throttle Position Sensor,5468726f-7474-46c6-9520-506f73697469,rev?*%
%TF.SameCoordinates,Original*%
%TF.FileFunction,Legend,Bot*%
%TF.FilePolarity,Positive*%
%FSLAX46Y46*%
G04 Gerber Fmt 4.6, Leading zero omitted, Abs format (unit mm)*
G04 Created by KiCad (PCBNEW (6.0.7)) date 2023-10-07 15:19:58*
%MOMM*%
%LPD*%
G01*
G04 APERTURE LIST*
%ADD10C,0.300000*%
G04 APERTURE END LIST*
D10*
X153565428Y-92645071D02*
X153565428Y-91145071D01*
X153208285Y-91145071D01*
X152994000Y-91216500D01*
X152851142Y-91359357D01*
X152779714Y-91502214D01*
X152708285Y-91787928D01*
X152708285Y-92002214D01*
X152779714Y-92287928D01*
X152851142Y-92430785D01*
X152994000Y-92573642D01*
X153208285Y-92645071D01*
X153565428Y-92645071D01*
X152065428Y-92073642D02*
X150922571Y-92073642D01*
X149779714Y-91145071D02*
X149779714Y-92216500D01*
X149851142Y-92430785D01*
X149994000Y-92573642D01*
X150208285Y-92645071D01*
X150351142Y-92645071D01*
X149065428Y-91859357D02*
X148565428Y-91859357D01*
X148351142Y-92645071D02*
X149065428Y-92645071D01*
X149065428Y-91145071D01*
X148351142Y-91145071D01*
X147922571Y-91145071D02*
X147065428Y-91145071D01*
X147494000Y-92645071D02*
X147494000Y-91145071D01*
X145708285Y-92645071D02*
X146208285Y-91930785D01*
X146565428Y-92645071D02*
X146565428Y-91145071D01*
X145994000Y-91145071D01*
X145851142Y-91216500D01*
X145779714Y-91287928D01*
X145708285Y-91430785D01*
X145708285Y-91645071D01*
X145779714Y-91787928D01*
X145851142Y-91859357D01*
X145994000Y-91930785D01*
X146565428Y-91930785D01*
X144779714Y-91145071D02*
X144494000Y-91145071D01*
X144351142Y-91216500D01*
X144208285Y-91359357D01*
X144136857Y-91645071D01*
X144136857Y-92145071D01*
X144208285Y-92430785D01*
X144351142Y-92573642D01*
X144494000Y-92645071D01*
X144779714Y-92645071D01*
X144922571Y-92573642D01*
X145065428Y-92430785D01*
X145136857Y-92145071D01*
X145136857Y-91645071D01*
X145065428Y-91359357D01*
X144922571Y-91216500D01*
X144779714Y-91145071D01*
X143494000Y-92645071D02*
X143494000Y-91145071D01*
X142636857Y-92645071D01*
X142636857Y-91145071D01*
X141922571Y-92645071D02*
X141922571Y-91145071D01*
X140351142Y-92502214D02*
X140422571Y-92573642D01*
X140636857Y-92645071D01*
X140779714Y-92645071D01*
X140994000Y-92573642D01*
X141136857Y-92430785D01*
X141208285Y-92287928D01*
X141279714Y-92002214D01*
X141279714Y-91787928D01*
X141208285Y-91502214D01*
X141136857Y-91359357D01*
X140994000Y-91216500D01*
X140779714Y-91145071D01*
X140636857Y-91145071D01*
X140422571Y-91216500D01*
X140351142Y-91287928D01*
X165851142Y-93560071D02*
X164994000Y-93560071D01*
X165422571Y-95060071D02*
X165422571Y-93560071D01*
X164494000Y-95060071D02*
X164494000Y-93560071D01*
X164494000Y-94274357D02*
X163636857Y-94274357D01*
X163636857Y-95060071D02*
X163636857Y-93560071D01*
X162065428Y-95060071D02*
X162565428Y-94345785D01*
X162922571Y-95060071D02*
X162922571Y-93560071D01*
X162351142Y-93560071D01*
X162208285Y-93631500D01*
X162136857Y-93702928D01*
X162065428Y-93845785D01*
X162065428Y-94060071D01*
X162136857Y-94202928D01*
X162208285Y-94274357D01*
X162351142Y-94345785D01*
X162922571Y-94345785D01*
X161136857Y-93560071D02*
X160851142Y-93560071D01*
X160708285Y-93631500D01*
X160565428Y-93774357D01*
X160494000Y-94060071D01*
X160494000Y-94560071D01*
X160565428Y-94845785D01*
X160708285Y-94988642D01*
X160851142Y-95060071D01*
X161136857Y-95060071D01*
X161279714Y-94988642D01*
X161422571Y-94845785D01*
X161494000Y-94560071D01*
X161494000Y-94060071D01*
X161422571Y-93774357D01*
X161279714Y-93631500D01*
X161136857Y-93560071D01*
X160065428Y-93560071D02*
X159208285Y-93560071D01*
X159636857Y-95060071D02*
X159636857Y-93560071D01*
X158922571Y-93560071D02*
X158065428Y-93560071D01*
X158494000Y-95060071D02*
X158494000Y-93560071D01*
X156851142Y-95060071D02*
X157565428Y-95060071D01*
X157565428Y-93560071D01*
X156351142Y-94274357D02*
X155851142Y-94274357D01*
X155636857Y-95060071D02*
X156351142Y-95060071D01*
X156351142Y-93560071D01*
X155636857Y-93560071D01*
X153851142Y-95060071D02*
X153851142Y-93560071D01*
X153279714Y-93560071D01*
X153136857Y-93631500D01*
X153065428Y-93702928D01*
X152994000Y-93845785D01*
X152994000Y-94060071D01*
X153065428Y-94202928D01*
X153136857Y-94274357D01*
X153279714Y-94345785D01*
X153851142Y-94345785D01*
X152065428Y-93560071D02*
X151779714Y-93560071D01*
X151636857Y-93631500D01*
X151494000Y-93774357D01*
X151422571Y-94060071D01*
X151422571Y-94560071D01*
X151494000Y-94845785D01*
X151636857Y-94988642D01*
X151779714Y-95060071D01*
X152065428Y-95060071D01*
X152208285Y-94988642D01*
X152351142Y-94845785D01*
X152422571Y-94560071D01*
X152422571Y-94060071D01*
X152351142Y-93774357D01*
X152208285Y-93631500D01*
X152065428Y-93560071D01*
X150851142Y-94988642D02*
X150636857Y-95060071D01*
X150279714Y-95060071D01*
X150136857Y-94988642D01*
X150065428Y-94917214D01*
X149994000Y-94774357D01*
X149994000Y-94631500D01*
X150065428Y-94488642D01*
X150136857Y-94417214D01*
X150279714Y-94345785D01*
X150565428Y-94274357D01*
X150708285Y-94202928D01*
X150779714Y-94131500D01*
X150851142Y-93988642D01*
X150851142Y-93845785D01*
X150779714Y-93702928D01*
X150708285Y-93631500D01*
X150565428Y-93560071D01*
X150208285Y-93560071D01*
X149994000Y-93631500D01*
X149351142Y-95060071D02*
X149351142Y-93560071D01*
X148851142Y-93560071D02*
X147994000Y-93560071D01*
X148422571Y-95060071D02*
X148422571Y-93560071D01*
X147494000Y-95060071D02*
X147494000Y-93560071D01*
X146494000Y-93560071D02*
X146208285Y-93560071D01*
X146065428Y-93631500D01*
X145922571Y-93774357D01*
X145851142Y-94060071D01*
X145851142Y-94560071D01*
X145922571Y-94845785D01*
X146065428Y-94988642D01*
X146208285Y-95060071D01*
X146494000Y-95060071D01*
X146636857Y-94988642D01*
X146779714Y-94845785D01*
X146851142Y-94560071D01*
X146851142Y-94060071D01*
X146779714Y-93774357D01*
X146636857Y-93631500D01*
X146494000Y-93560071D01*
X145208285Y-95060071D02*
X145208285Y-93560071D01*
X144351142Y-95060071D01*
X144351142Y-93560071D01*
X142565428Y-94988642D02*
X142351142Y-95060071D01*
X141994000Y-95060071D01*
X141851142Y-94988642D01*
X141779714Y-94917214D01*
X141708285Y-94774357D01*
X141708285Y-94631500D01*
X141779714Y-94488642D01*
X141851142Y-94417214D01*
X141994000Y-94345785D01*
X142279714Y-94274357D01*
X142422571Y-94202928D01*
X142494000Y-94131500D01*
X142565428Y-93988642D01*
X142565428Y-93845785D01*
X142494000Y-93702928D01*
X142422571Y-93631500D01*
X142279714Y-93560071D01*
X141922571Y-93560071D01*
X141708285Y-93631500D01*
X141065428Y-94274357D02*
X140565428Y-94274357D01*
X140351142Y-95060071D02*
X141065428Y-95060071D01*
X141065428Y-93560071D01*
X140351142Y-93560071D01*
X139708285Y-95060071D02*
X139708285Y-93560071D01*
X138851142Y-95060071D01*
X138851142Y-93560071D01*
X138208285Y-94988642D02*
X137994000Y-95060071D01*
X137636857Y-95060071D01*
X137494000Y-94988642D01*
X137422571Y-94917214D01*
X137351142Y-94774357D01*
X137351142Y-94631500D01*
X137422571Y-94488642D01*
X137494000Y-94417214D01*
X137636857Y-94345785D01*
X137922571Y-94274357D01*
X138065428Y-94202928D01*
X138136857Y-94131500D01*
X138208285Y-93988642D01*
X138208285Y-93845785D01*
X138136857Y-93702928D01*
X138065428Y-93631500D01*
X137922571Y-93560071D01*
X137565428Y-93560071D01*
X137351142Y-93631500D01*
X136422571Y-93560071D02*
X136136857Y-93560071D01*
X135994000Y-93631500D01*
X135851142Y-93774357D01*
X135779714Y-94060071D01*
X135779714Y-94560071D01*
X135851142Y-94845785D01*
X135994000Y-94988642D01*
X136136857Y-95060071D01*
X136422571Y-95060071D01*
X136565428Y-94988642D01*
X136708285Y-94845785D01*
X136779714Y-94560071D01*
X136779714Y-94060071D01*
X136708285Y-93774357D01*
X136565428Y-93631500D01*
X136422571Y-93560071D01*
X134279714Y-95060071D02*
X134779714Y-94345785D01*
X135136857Y-95060071D02*
X135136857Y-93560071D01*
X134565428Y-93560071D01*
X134422571Y-93631500D01*
X134351142Y-93702928D01*
X134279714Y-93845785D01*
X134279714Y-94060071D01*
X134351142Y-94202928D01*
X134422571Y-94274357D01*
X134565428Y-94345785D01*
X135136857Y-94345785D01*
X132708285Y-93560071D02*
X132208285Y-95060071D01*
X131708285Y-93560071D01*
X130422571Y-95060071D02*
X131279714Y-95060071D01*
X130851142Y-95060071D02*
X130851142Y-93560071D01*
X130994000Y-93774357D01*
X131136857Y-93917214D01*
X131279714Y-93988642D01*
X129779714Y-94917214D02*
X129708285Y-94988642D01*
X129779714Y-95060071D01*
X129851142Y-94988642D01*
X129779714Y-94917214D01*
X129779714Y-95060071D01*
X128779714Y-93560071D02*
X128636857Y-93560071D01*
X128494000Y-93631500D01*
X128422571Y-93702928D01*
X128351142Y-93845785D01*
X128279714Y-94131500D01*
X128279714Y-94488642D01*
X128351142Y-94774357D01*
X128422571Y-94917214D01*
X128494000Y-94988642D01*
X128636857Y-95060071D01*
X128779714Y-95060071D01*
X128922571Y-94988642D01*
X128994000Y-94917214D01*
X129065428Y-94774357D01*
X129136857Y-94488642D01*
X129136857Y-94131500D01*
X129065428Y-93845785D01*
X128994000Y-93702928D01*
X128922571Y-93631500D01*
X128779714Y-93560071D01*
X162208285Y-97475071D02*
X162208285Y-96689357D01*
X162279714Y-96546500D01*
X162422571Y-96475071D01*
X162708285Y-96475071D01*
X162851142Y-96546500D01*
X162208285Y-97403642D02*
X162351142Y-97475071D01*
X162708285Y-97475071D01*
X162851142Y-97403642D01*
X162922571Y-97260785D01*
X162922571Y-97117928D01*
X162851142Y-96975071D01*
X162708285Y-96903642D01*
X162351142Y-96903642D01*
X162208285Y-96832214D01*
X161494000Y-96475071D02*
X161494000Y-97475071D01*
X161494000Y-96617928D02*
X161422571Y-96546500D01*
X161279714Y-96475071D01*
X161065428Y-96475071D01*
X160922571Y-96546500D01*
X160851142Y-96689357D01*
X160851142Y-97475071D01*
X159494000Y-97475071D02*
X159494000Y-95975071D01*
X159494000Y-97403642D02*
X159636857Y-97475071D01*
X159922571Y-97475071D01*
X160065428Y-97403642D01*
X160136857Y-97332214D01*
X160208285Y-97189357D01*
X160208285Y-96760785D01*
X160136857Y-96617928D01*
X160065428Y-96546500D01*
X159922571Y-96475071D01*
X159636857Y-96475071D01*
X159494000Y-96546500D01*
X158922571Y-96475071D02*
X158565428Y-97475071D01*
X158208285Y-96475071D02*
X158565428Y-97475071D01*
X158708285Y-97832214D01*
X158779714Y-97903642D01*
X158922571Y-97975071D01*
X156708285Y-96760785D02*
X156779714Y-96689357D01*
X156922571Y-96617928D01*
X157065428Y-96617928D01*
X157208285Y-96689357D01*
X157279714Y-96760785D01*
X157351142Y-96903642D01*
X157351142Y-97046500D01*
X157279714Y-97189357D01*
X157208285Y-97260785D01*
X157065428Y-97332214D01*
X156922571Y-97332214D01*
X156779714Y-97260785D01*
X156708285Y-97189357D01*
X156708285Y-96617928D02*
X156708285Y-97189357D01*
X156636857Y-97260785D01*
X156565428Y-97260785D01*
X156422571Y-97189357D01*
X156351142Y-97046500D01*
X156351142Y-96689357D01*
X156494000Y-96475071D01*
X156708285Y-96332214D01*
X156994000Y-96260785D01*
X157279714Y-96332214D01*
X157494000Y-96475071D01*
X157636857Y-96689357D01*
X157708285Y-96975071D01*
X157636857Y-97260785D01*
X157494000Y-97475071D01*
X157279714Y-97617928D01*
X156994000Y-97689357D01*
X156708285Y-97617928D01*
X156494000Y-97475071D01*
X155708285Y-97475071D02*
X155708285Y-95975071D01*
X155708285Y-96546500D02*
X155565428Y-96475071D01*
X155279714Y-96475071D01*
X155136857Y-96546500D01*
X155065428Y-96617928D01*
X154994000Y-96760785D01*
X154994000Y-97189357D01*
X155065428Y-97332214D01*
X155136857Y-97403642D01*
X155279714Y-97475071D01*
X155565428Y-97475071D01*
X155708285Y-97403642D01*
X154351142Y-97475071D02*
X154351142Y-96475071D01*
X154351142Y-96760785D02*
X154279714Y-96617928D01*
X154208285Y-96546500D01*
X154065428Y-96475071D01*
X153922571Y-96475071D01*
X153422571Y-97475071D02*
X153422571Y-96475071D01*
X153422571Y-95975071D02*
X153494000Y-96046500D01*
X153422571Y-96117928D01*
X153351142Y-96046500D01*
X153422571Y-95975071D01*
X153422571Y-96117928D01*
X152922571Y-96475071D02*
X152351142Y-96475071D01*
X152708285Y-95975071D02*
X152708285Y-97260785D01*
X152636857Y-97403642D01*
X152494000Y-97475071D01*
X152351142Y-97475071D01*
X151851142Y-97475071D02*
X151851142Y-96475071D01*
X151851142Y-95975071D02*
X151922571Y-96046500D01*
X151851142Y-96117928D01*
X151779714Y-96046500D01*
X151851142Y-95975071D01*
X151851142Y-96117928D01*
X151208285Y-97403642D02*
X151065428Y-97475071D01*
X150779714Y-97475071D01*
X150636857Y-97403642D01*
X150565428Y-97260785D01*
X150565428Y-97189357D01*
X150636857Y-97046500D01*
X150779714Y-96975071D01*
X150994000Y-96975071D01*
X151136857Y-96903642D01*
X151208285Y-96760785D01*
X151208285Y-96689357D01*
X151136857Y-96546500D01*
X150994000Y-96475071D01*
X150779714Y-96475071D01*
X150636857Y-96546500D01*
X149922571Y-97475071D02*
X149922571Y-95975071D01*
X149279714Y-97475071D02*
X149279714Y-96689357D01*
X149351142Y-96546500D01*
X149494000Y-96475071D01*
X149708285Y-96475071D01*
X149851142Y-96546500D01*
X149922571Y-96617928D01*
X148565428Y-97475071D02*
X148565428Y-96475071D01*
X148565428Y-95975071D02*
X148636857Y-96046500D01*
X148565428Y-96117928D01*
X148494000Y-96046500D01*
X148565428Y-95975071D01*
X148565428Y-96117928D01*
X147208285Y-97475071D02*
X147208285Y-95975071D01*
X147208285Y-97403642D02*
X147351142Y-97475071D01*
X147636857Y-97475071D01*
X147779714Y-97403642D01*
X147851142Y-97332214D01*
X147922571Y-97189357D01*
X147922571Y-96760785D01*
X147851142Y-96617928D01*
X147779714Y-96546500D01*
X147636857Y-96475071D01*
X147351142Y-96475071D01*
X147208285Y-96546500D01*
X145922571Y-97403642D02*
X146065428Y-97475071D01*
X146351142Y-97475071D01*
X146494000Y-97403642D01*
X146565428Y-97260785D01*
X146565428Y-96689357D01*
X146494000Y-96546500D01*
X146351142Y-96475071D01*
X146065428Y-96475071D01*
X145922571Y-96546500D01*
X145851142Y-96689357D01*
X145851142Y-96832214D01*
X146565428Y-96975071D01*
X144565428Y-97475071D02*
X144565428Y-96689357D01*
X144636857Y-96546500D01*
X144779714Y-96475071D01*
X145065428Y-96475071D01*
X145208285Y-96546500D01*
X144565428Y-97403642D02*
X144708285Y-97475071D01*
X145065428Y-97475071D01*
X145208285Y-97403642D01*
X145279714Y-97260785D01*
X145279714Y-97117928D01*
X145208285Y-96975071D01*
X145065428Y-96903642D01*
X144708285Y-96903642D01*
X144565428Y-96832214D01*
X143922571Y-97403642D02*
X143779714Y-97475071D01*
X143494000Y-97475071D01*
X143351142Y-97403642D01*
X143279714Y-97260785D01*
X143279714Y-97189357D01*
X143351142Y-97046500D01*
X143494000Y-96975071D01*
X143708285Y-96975071D01*
X143851142Y-96903642D01*
X143922571Y-96760785D01*
X143922571Y-96689357D01*
X143851142Y-96546500D01*
X143708285Y-96475071D01*
X143494000Y-96475071D01*
X143351142Y-96546500D01*
X142636857Y-97332214D02*
X142565428Y-97403642D01*
X142636857Y-97475071D01*
X142708285Y-97403642D01*
X142636857Y-97332214D01*
X142636857Y-97475071D01*
X141279714Y-97403642D02*
X141422571Y-97475071D01*
X141708285Y-97475071D01*
X141851142Y-97403642D01*
X141922571Y-97332214D01*
X141994000Y-97189357D01*
X141994000Y-96760785D01*
X141922571Y-96617928D01*
X141851142Y-96546500D01*
X141708285Y-96475071D01*
X141422571Y-96475071D01*
X141279714Y-96546500D01*
X140422571Y-97475071D02*
X140565428Y-97403642D01*
X140636857Y-97332214D01*
X140708285Y-97189357D01*
X140708285Y-96760785D01*
X140636857Y-96617928D01*
X140565428Y-96546500D01*
X140422571Y-96475071D01*
X140208285Y-96475071D01*
X140065428Y-96546500D01*
X139994000Y-96617928D01*
X139922571Y-96760785D01*
X139922571Y-97189357D01*
X139994000Y-97332214D01*
X140065428Y-97403642D01*
X140208285Y-97475071D01*
X140422571Y-97475071D01*
X139279714Y-97475071D02*
X139279714Y-96475071D01*
X139279714Y-96617928D02*
X139208285Y-96546500D01*
X139065428Y-96475071D01*
X138851142Y-96475071D01*
X138708285Y-96546500D01*
X138636857Y-96689357D01*
X138636857Y-97475071D01*
X138636857Y-96689357D02*
X138565428Y-96546500D01*
X138422571Y-96475071D01*
X138208285Y-96475071D01*
X138065428Y-96546500D01*
X137994000Y-96689357D01*
X137994000Y-97475071D01*
X136208285Y-96117928D02*
X136136857Y-96046500D01*
X135994000Y-95975071D01*
X135636857Y-95975071D01*
X135494000Y-96046500D01*
X135422571Y-96117928D01*
X135351142Y-96260785D01*
X135351142Y-96403642D01*
X135422571Y-96617928D01*
X136279714Y-97475071D01*
X135351142Y-97475071D01*
X134422571Y-95975071D02*
X134279714Y-95975071D01*
X134136857Y-96046500D01*
X134065428Y-96117928D01*
X133994000Y-96260785D01*
X133922571Y-96546500D01*
X133922571Y-96903642D01*
X133994000Y-97189357D01*
X134065428Y-97332214D01*
X134136857Y-97403642D01*
X134279714Y-97475071D01*
X134422571Y-97475071D01*
X134565428Y-97403642D01*
X134636857Y-97332214D01*
X134708285Y-97189357D01*
X134779714Y-96903642D01*
X134779714Y-96546500D01*
X134708285Y-96260785D01*
X134636857Y-96117928D01*
X134565428Y-96046500D01*
X134422571Y-95975071D01*
X133351142Y-96117928D02*
X133279714Y-96046500D01*
X133136857Y-95975071D01*
X132779714Y-95975071D01*
X132636857Y-96046500D01*
X132565428Y-96117928D01*
X132494000Y-96260785D01*
X132494000Y-96403642D01*
X132565428Y-96617928D01*
X133422571Y-97475071D01*
X132494000Y-97475071D01*
X131994000Y-95975071D02*
X131065428Y-95975071D01*
X131565428Y-96546500D01*
X131351142Y-96546500D01*
X131208285Y-96617928D01*
X131136857Y-96689357D01*
X131065428Y-96832214D01*
X131065428Y-97189357D01*
X131136857Y-97332214D01*
X131208285Y-97403642D01*
X131351142Y-97475071D01*
X131779714Y-97475071D01*
X131922571Y-97403642D01*
X131994000Y-97332214D01*
X153101142Y-99890071D02*
X153101142Y-98390071D01*
X153101142Y-99818642D02*
X153244000Y-99890071D01*
X153529714Y-99890071D01*
X153672571Y-99818642D01*
X153744000Y-99747214D01*
X153815428Y-99604357D01*
X153815428Y-99175785D01*
X153744000Y-99032928D01*
X153672571Y-98961500D01*
X153529714Y-98890071D01*
X153244000Y-98890071D01*
X153101142Y-98961500D01*
X152386857Y-98890071D02*
X152386857Y-100175785D01*
X152458285Y-100318642D01*
X152601142Y-100390071D01*
X152672571Y-100390071D01*
X152386857Y-98390071D02*
X152458285Y-98461500D01*
X152386857Y-98532928D01*
X152315428Y-98461500D01*
X152386857Y-98390071D01*
X152386857Y-98532928D01*
X151101142Y-99818642D02*
X151244000Y-99890071D01*
X151529714Y-99890071D01*
X151672571Y-99818642D01*
X151744000Y-99675785D01*
X151744000Y-99104357D01*
X151672571Y-98961500D01*
X151529714Y-98890071D01*
X151244000Y-98890071D01*
X151101142Y-98961500D01*
X151029714Y-99104357D01*
X151029714Y-99247214D01*
X151744000Y-99390071D01*
X150601142Y-98890071D02*
X150029714Y-98890071D01*
X150386857Y-98390071D02*
X150386857Y-99675785D01*
X150315428Y-99818642D01*
X150172571Y-99890071D01*
X150029714Y-99890071D01*
X149529714Y-99890071D02*
X149529714Y-98890071D01*
X149529714Y-99175785D02*
X149458285Y-99032928D01*
X149386857Y-98961500D01*
X149244000Y-98890071D01*
X149101142Y-98890071D01*
X148386857Y-99890071D02*
X148529714Y-99818642D01*
X148601142Y-99747214D01*
X148672571Y-99604357D01*
X148672571Y-99175785D01*
X148601142Y-99032928D01*
X148529714Y-98961500D01*
X148386857Y-98890071D01*
X148172571Y-98890071D01*
X148029714Y-98961500D01*
X147958285Y-99032928D01*
X147886857Y-99175785D01*
X147886857Y-99604357D01*
X147958285Y-99747214D01*
X148029714Y-99818642D01*
X148172571Y-99890071D01*
X148386857Y-99890071D01*
X147244000Y-98890071D02*
X147244000Y-99890071D01*
X147244000Y-99032928D02*
X147172571Y-98961500D01*
X147029714Y-98890071D01*
X146815428Y-98890071D01*
X146672571Y-98961500D01*
X146601142Y-99104357D01*
X146601142Y-99890071D01*
X145886857Y-99890071D02*
X145886857Y-98890071D01*
X145886857Y-98390071D02*
X145958285Y-98461500D01*
X145886857Y-98532928D01*
X145815428Y-98461500D01*
X145886857Y-98390071D01*
X145886857Y-98532928D01*
X144529714Y-99818642D02*
X144672571Y-99890071D01*
X144958285Y-99890071D01*
X145101142Y-99818642D01*
X145172571Y-99747214D01*
X145244000Y-99604357D01*
X145244000Y-99175785D01*
X145172571Y-99032928D01*
X145101142Y-98961500D01*
X144958285Y-98890071D01*
X144672571Y-98890071D01*
X144529714Y-98961500D01*
X143886857Y-99747214D02*
X143815428Y-99818642D01*
X143886857Y-99890071D01*
X143958285Y-99818642D01*
X143886857Y-99747214D01*
X143886857Y-99890071D01*
X142958285Y-99890071D02*
X143101142Y-99818642D01*
X143172571Y-99747214D01*
X143244000Y-99604357D01*
X143244000Y-99175785D01*
X143172571Y-99032928D01*
X143101142Y-98961500D01*
X142958285Y-98890071D01*
X142744000Y-98890071D01*
X142601142Y-98961500D01*
X142529714Y-99032928D01*
X142458285Y-99175785D01*
X142458285Y-99604357D01*
X142529714Y-99747214D01*
X142601142Y-99818642D01*
X142744000Y-99890071D01*
X142958285Y-99890071D01*
X141815428Y-99890071D02*
X141815428Y-98890071D01*
X141815428Y-99175785D02*
X141744000Y-99032928D01*
X141672571Y-98961500D01*
X141529714Y-98890071D01*
X141386857Y-98890071D01*
X140244000Y-98890071D02*
X140244000Y-100104357D01*
X140315428Y-100247214D01*
X140386857Y-100318642D01*
X140529714Y-100390071D01*
X140744000Y-100390071D01*
X140886857Y-100318642D01*
X140244000Y-99818642D02*
X140386857Y-99890071D01*
X140672571Y-99890071D01*
X140815428Y-99818642D01*
X140886857Y-99747214D01*
X140958285Y-99604357D01*
X140958285Y-99175785D01*
X140886857Y-99032928D01*
X140815428Y-98961500D01*
X140672571Y-98890071D01*
X140386857Y-98890071D01*
X140244000Y-98961500D01*
M02*
