%TF.GenerationSoftware,KiCad,Pcbnew,(6.0.7)*%
%TF.CreationDate,2023-10-07T15:19:58-05:00*%
%TF.ProjectId,Throttle Position Sensor,5468726f-7474-46c6-9520-506f73697469,rev?*%
%TF.SameCoordinates,Original*%
%TF.FileFunction,Copper,L1,Top*%
%TF.FilePolarity,Positive*%
%FSLAX46Y46*%
G04 Gerber Fmt 4.6, Leading zero omitted, Abs format (unit mm)*
G04 Created by KiCad (PCBNEW (6.0.7)) date 2023-10-07 15:19:58*
%MOMM*%
%LPD*%
G01*
G04 APERTURE LIST*
%TA.AperFunction,NonConductor*%
%ADD10C,0.001000*%
%TD*%
%TA.AperFunction,NonConductor*%
%ADD11C,0.010000*%
%TD*%
G04 APERTURE END LIST*
D10*
G36*
X141509000Y-97550000D02*
G01*
X141442000Y-97688000D01*
X140722000Y-99172000D01*
X140638000Y-99337000D01*
X140202000Y-100238000D01*
X140101000Y-100290000D01*
X139891000Y-100402000D01*
X139748000Y-100482000D01*
X139546000Y-100597000D01*
X139395000Y-100691000D01*
X139259000Y-100775000D01*
X139128000Y-100856000D01*
X139030000Y-100921000D01*
X138686000Y-101159000D01*
X138579000Y-101238000D01*
X138477000Y-101311000D01*
X138395000Y-101372000D01*
X138328000Y-101427000D01*
X138198000Y-101527000D01*
X138090000Y-101615000D01*
X137967000Y-101714000D01*
X137848000Y-101817000D01*
X137739000Y-101912000D01*
X137652000Y-101991000D01*
X137309000Y-102310000D01*
X137086000Y-102530000D01*
X136942000Y-102682000D01*
X136840000Y-102790000D01*
X136661000Y-102987000D01*
X136492000Y-103183000D01*
X136346000Y-103358000D01*
X136103000Y-103670000D01*
X135941000Y-103888000D01*
X135795000Y-104094000D01*
X135606000Y-104380000D01*
X135484000Y-104575000D01*
X135421000Y-104670000D01*
X135412000Y-104686000D01*
X135385000Y-104698000D01*
X135353000Y-104703000D01*
X135332000Y-104700000D01*
X135312000Y-104689000D01*
X135293000Y-104670000D01*
X135283000Y-104647000D01*
X135281000Y-104638000D01*
X135282000Y-102425000D01*
X135276000Y-102357000D01*
X135259000Y-102270000D01*
X135240000Y-102208000D01*
X135211000Y-102142000D01*
X135164000Y-102064000D01*
X135122000Y-102010000D01*
X135075000Y-101953000D01*
X135010000Y-101899000D01*
X134958000Y-101862000D01*
X134902000Y-101826000D01*
X134854000Y-101806000D01*
X134800000Y-101784000D01*
X134747000Y-101768000D01*
X134692000Y-101756000D01*
X134593000Y-101747000D01*
X130388000Y-101749000D01*
X130294000Y-101743000D01*
X130176000Y-101745000D01*
X130066000Y-101756000D01*
X129964000Y-101770000D01*
X129828000Y-101801000D01*
X129711000Y-101840000D01*
X129595000Y-101884000D01*
X129471000Y-101950000D01*
X129333000Y-102035000D01*
X129188000Y-102154000D01*
X129092000Y-102249000D01*
X129020000Y-102327000D01*
X128929000Y-102449000D01*
X128844000Y-102601000D01*
X128796000Y-102708000D01*
X128755000Y-102820000D01*
X128726000Y-102915000D01*
X128701000Y-103006000D01*
X128678000Y-103163000D01*
X128668000Y-103296000D01*
X128675000Y-103400000D01*
X128673000Y-103473000D01*
X128671000Y-105659000D01*
X128675000Y-105810000D01*
X128689000Y-105923000D01*
X128717000Y-106037000D01*
X128745000Y-106125000D01*
X128796000Y-106255000D01*
X128860000Y-106376000D01*
X128943000Y-106498000D01*
X129015000Y-106588000D01*
X129090000Y-106665000D01*
X129191000Y-106757000D01*
X129300000Y-106832000D01*
X129404000Y-106895000D01*
X129538000Y-106953000D01*
X129661000Y-106996000D01*
X129760000Y-107024000D01*
X129861000Y-107044000D01*
X129958000Y-107051000D01*
X130042000Y-107053000D01*
X133907000Y-107054000D01*
X133995000Y-107061000D01*
X134087000Y-107080000D01*
X134187000Y-107113000D01*
X134290000Y-107167000D01*
X134368000Y-107220000D01*
X134434000Y-107276000D01*
X134481000Y-107327000D01*
X134545000Y-107422000D01*
X134600000Y-107522000D01*
X134636000Y-107619000D01*
X134650000Y-107692000D01*
X134658000Y-107735000D01*
X134662000Y-107801000D01*
X134664000Y-107827000D01*
X134666000Y-110161000D01*
X134659000Y-110255000D01*
X134635000Y-110370000D01*
X134608000Y-110459000D01*
X134529000Y-110617000D01*
X134477000Y-110685000D01*
X134417000Y-110752000D01*
X134337000Y-110830000D01*
X134254000Y-110885000D01*
X134177000Y-110926000D01*
X134090000Y-110964000D01*
X133983000Y-110997000D01*
X133896000Y-111012000D01*
X133825000Y-111019000D01*
X132203000Y-111018000D01*
X132202000Y-111609000D01*
X129882000Y-111607000D01*
X129879000Y-111016000D01*
X127459000Y-111014000D01*
X127455195Y-109950618D01*
X127780195Y-109911618D01*
X128046000Y-109822000D01*
X128275000Y-109671000D01*
X128433000Y-109515000D01*
X128545000Y-109360000D01*
X128645000Y-109138000D01*
X128699456Y-108916424D01*
X128699000Y-108734000D01*
X128681000Y-108524000D01*
X128610000Y-108288000D01*
X128488000Y-108067000D01*
X128307000Y-107849000D01*
X128138000Y-107727000D01*
X127929000Y-107631000D01*
X127757000Y-107582000D01*
X127517000Y-107551000D01*
X127250000Y-107580000D01*
X127022000Y-107653000D01*
X126834000Y-107751000D01*
X126651000Y-107905000D01*
X126511000Y-108075000D01*
X126383000Y-108320000D01*
X126322000Y-108520000D01*
X126305000Y-108794000D01*
X126332000Y-109009000D01*
X126395000Y-109222000D01*
X126508000Y-109423000D01*
X126651000Y-109592000D01*
X126797000Y-109722000D01*
X127010096Y-109843371D01*
X127198000Y-109913000D01*
X127445000Y-109949000D01*
X127442000Y-111014000D01*
X126362000Y-111009000D01*
X126293000Y-111021000D01*
X126191000Y-111011000D01*
X126127000Y-110999000D01*
X125994000Y-110966000D01*
X125902000Y-110927000D01*
X125830000Y-110889000D01*
X125771000Y-110851000D01*
X125705000Y-110802000D01*
X125651000Y-110753000D01*
X125599000Y-110698000D01*
X125573000Y-110670000D01*
X125539000Y-110625000D01*
X125507000Y-110577000D01*
X125472000Y-110516000D01*
X125451000Y-110472000D01*
X125426000Y-110414000D01*
X125413000Y-110383000D01*
X125393000Y-110316000D01*
X125380000Y-110267000D01*
X125372000Y-110222000D01*
X125364000Y-110164000D01*
X125361000Y-110121000D01*
X125360000Y-107369000D01*
X125357000Y-107303000D01*
X125357000Y-107208000D01*
X125367000Y-107121000D01*
X125385000Y-107046000D01*
X125410000Y-106961000D01*
X125432000Y-106895000D01*
X125468000Y-106825000D01*
X125507000Y-106762000D01*
X125536000Y-106718000D01*
X125573000Y-106670000D01*
X125614000Y-106624000D01*
X125668000Y-106572000D01*
X125718000Y-106527000D01*
X125776000Y-106487000D01*
X125842000Y-106446000D01*
X125915000Y-106408000D01*
X125986000Y-106380000D01*
X126066000Y-106356000D01*
X126133000Y-106344000D01*
X126198000Y-106333000D01*
X126261000Y-106328000D01*
X126297000Y-106327000D01*
X127160000Y-106329000D01*
X127214000Y-106322000D01*
X127293000Y-106305000D01*
X127368000Y-106281000D01*
X127442000Y-106249000D01*
X127510000Y-106214000D01*
X127577000Y-106169000D01*
X127616000Y-106135000D01*
X127667000Y-106088000D01*
X127708000Y-106043000D01*
X127750000Y-105991000D01*
X127786000Y-105938000D01*
X127816000Y-105889000D01*
X127841000Y-105829000D01*
X127869000Y-105761000D01*
X127890000Y-105678000D01*
X127901000Y-105620000D01*
X127905000Y-105563000D01*
X127907000Y-105502000D01*
X127904000Y-105451000D01*
X127903000Y-105418000D01*
X127903000Y-102910000D01*
X127914000Y-102786000D01*
X127929000Y-102669000D01*
X127948000Y-102578000D01*
X127970000Y-102491000D01*
X128013000Y-102346000D01*
X128052000Y-102244000D01*
X128109000Y-102129000D01*
X128172000Y-102015000D01*
X128231000Y-101923000D01*
X128344000Y-101770000D01*
X128461000Y-101645000D01*
X128575000Y-101533000D01*
X128652000Y-101478000D01*
X128784000Y-101384000D01*
X128888000Y-101322000D01*
X128970000Y-101280000D01*
X129136000Y-101206000D01*
X129239000Y-101171000D01*
X129352000Y-101138000D01*
X129461000Y-101115000D01*
X129577000Y-101096000D01*
X129667000Y-101086000D01*
X129759000Y-101081000D01*
X129943000Y-101085000D01*
X135226000Y-101085000D01*
X135348000Y-101068000D01*
X135506000Y-101032000D01*
X135666000Y-100963000D01*
X135796000Y-100881000D01*
X135897000Y-100796000D01*
X135995000Y-100707000D01*
X136174000Y-100540000D01*
X136342000Y-100387000D01*
X136512000Y-100241000D01*
X136723000Y-100060000D01*
X136871000Y-99940000D01*
X137048000Y-99802000D01*
X137217000Y-99672000D01*
X137361000Y-99567000D01*
X137530000Y-99446000D01*
X137666000Y-99350000D01*
X137806000Y-99253000D01*
X138224000Y-98983000D01*
X138394000Y-98879000D01*
X138531000Y-98794000D01*
X138681000Y-98710000D01*
X138785000Y-98652000D01*
X138997000Y-98532000D01*
X139212000Y-98419000D01*
X139469000Y-98291000D01*
X139663000Y-98198000D01*
X139858000Y-98110000D01*
X140492000Y-97839000D01*
X140633000Y-97783000D01*
X140755000Y-97738000D01*
X140903000Y-97683000D01*
X141039000Y-97637000D01*
X141448000Y-97501000D01*
X141522000Y-97477000D01*
X141546000Y-97471000D01*
X141509000Y-97550000D01*
G37*
X141509000Y-97550000D02*
X141442000Y-97688000D01*
X140722000Y-99172000D01*
X140638000Y-99337000D01*
X140202000Y-100238000D01*
X140101000Y-100290000D01*
X139891000Y-100402000D01*
X139748000Y-100482000D01*
X139546000Y-100597000D01*
X139395000Y-100691000D01*
X139259000Y-100775000D01*
X139128000Y-100856000D01*
X139030000Y-100921000D01*
X138686000Y-101159000D01*
X138579000Y-101238000D01*
X138477000Y-101311000D01*
X138395000Y-101372000D01*
X138328000Y-101427000D01*
X138198000Y-101527000D01*
X138090000Y-101615000D01*
X137967000Y-101714000D01*
X137848000Y-101817000D01*
X137739000Y-101912000D01*
X137652000Y-101991000D01*
X137309000Y-102310000D01*
X137086000Y-102530000D01*
X136942000Y-102682000D01*
X136840000Y-102790000D01*
X136661000Y-102987000D01*
X136492000Y-103183000D01*
X136346000Y-103358000D01*
X136103000Y-103670000D01*
X135941000Y-103888000D01*
X135795000Y-104094000D01*
X135606000Y-104380000D01*
X135484000Y-104575000D01*
X135421000Y-104670000D01*
X135412000Y-104686000D01*
X135385000Y-104698000D01*
X135353000Y-104703000D01*
X135332000Y-104700000D01*
X135312000Y-104689000D01*
X135293000Y-104670000D01*
X135283000Y-104647000D01*
X135281000Y-104638000D01*
X135282000Y-102425000D01*
X135276000Y-102357000D01*
X135259000Y-102270000D01*
X135240000Y-102208000D01*
X135211000Y-102142000D01*
X135164000Y-102064000D01*
X135122000Y-102010000D01*
X135075000Y-101953000D01*
X135010000Y-101899000D01*
X134958000Y-101862000D01*
X134902000Y-101826000D01*
X134854000Y-101806000D01*
X134800000Y-101784000D01*
X134747000Y-101768000D01*
X134692000Y-101756000D01*
X134593000Y-101747000D01*
X130388000Y-101749000D01*
X130294000Y-101743000D01*
X130176000Y-101745000D01*
X130066000Y-101756000D01*
X129964000Y-101770000D01*
X129828000Y-101801000D01*
X129711000Y-101840000D01*
X129595000Y-101884000D01*
X129471000Y-101950000D01*
X129333000Y-102035000D01*
X129188000Y-102154000D01*
X129092000Y-102249000D01*
X129020000Y-102327000D01*
X128929000Y-102449000D01*
X128844000Y-102601000D01*
X128796000Y-102708000D01*
X128755000Y-102820000D01*
X128726000Y-102915000D01*
X128701000Y-103006000D01*
X128678000Y-103163000D01*
X128668000Y-103296000D01*
X128675000Y-103400000D01*
X128673000Y-103473000D01*
X128671000Y-105659000D01*
X128675000Y-105810000D01*
X128689000Y-105923000D01*
X128717000Y-106037000D01*
X128745000Y-106125000D01*
X128796000Y-106255000D01*
X128860000Y-106376000D01*
X128943000Y-106498000D01*
X129015000Y-106588000D01*
X129090000Y-106665000D01*
X129191000Y-106757000D01*
X129300000Y-106832000D01*
X129404000Y-106895000D01*
X129538000Y-106953000D01*
X129661000Y-106996000D01*
X129760000Y-107024000D01*
X129861000Y-107044000D01*
X129958000Y-107051000D01*
X130042000Y-107053000D01*
X133907000Y-107054000D01*
X133995000Y-107061000D01*
X134087000Y-107080000D01*
X134187000Y-107113000D01*
X134290000Y-107167000D01*
X134368000Y-107220000D01*
X134434000Y-107276000D01*
X134481000Y-107327000D01*
X134545000Y-107422000D01*
X134600000Y-107522000D01*
X134636000Y-107619000D01*
X134650000Y-107692000D01*
X134658000Y-107735000D01*
X134662000Y-107801000D01*
X134664000Y-107827000D01*
X134666000Y-110161000D01*
X134659000Y-110255000D01*
X134635000Y-110370000D01*
X134608000Y-110459000D01*
X134529000Y-110617000D01*
X134477000Y-110685000D01*
X134417000Y-110752000D01*
X134337000Y-110830000D01*
X134254000Y-110885000D01*
X134177000Y-110926000D01*
X134090000Y-110964000D01*
X133983000Y-110997000D01*
X133896000Y-111012000D01*
X133825000Y-111019000D01*
X132203000Y-111018000D01*
X132202000Y-111609000D01*
X129882000Y-111607000D01*
X129879000Y-111016000D01*
X127459000Y-111014000D01*
X127455195Y-109950618D01*
X127780195Y-109911618D01*
X128046000Y-109822000D01*
X128275000Y-109671000D01*
X128433000Y-109515000D01*
X128545000Y-109360000D01*
X128645000Y-109138000D01*
X128699456Y-108916424D01*
X128699000Y-108734000D01*
X128681000Y-108524000D01*
X128610000Y-108288000D01*
X128488000Y-108067000D01*
X128307000Y-107849000D01*
X128138000Y-107727000D01*
X127929000Y-107631000D01*
X127757000Y-107582000D01*
X127517000Y-107551000D01*
X127250000Y-107580000D01*
X127022000Y-107653000D01*
X126834000Y-107751000D01*
X126651000Y-107905000D01*
X126511000Y-108075000D01*
X126383000Y-108320000D01*
X126322000Y-108520000D01*
X126305000Y-108794000D01*
X126332000Y-109009000D01*
X126395000Y-109222000D01*
X126508000Y-109423000D01*
X126651000Y-109592000D01*
X126797000Y-109722000D01*
X127010096Y-109843371D01*
X127198000Y-109913000D01*
X127445000Y-109949000D01*
X127442000Y-111014000D01*
X126362000Y-111009000D01*
X126293000Y-111021000D01*
X126191000Y-111011000D01*
X126127000Y-110999000D01*
X125994000Y-110966000D01*
X125902000Y-110927000D01*
X125830000Y-110889000D01*
X125771000Y-110851000D01*
X125705000Y-110802000D01*
X125651000Y-110753000D01*
X125599000Y-110698000D01*
X125573000Y-110670000D01*
X125539000Y-110625000D01*
X125507000Y-110577000D01*
X125472000Y-110516000D01*
X125451000Y-110472000D01*
X125426000Y-110414000D01*
X125413000Y-110383000D01*
X125393000Y-110316000D01*
X125380000Y-110267000D01*
X125372000Y-110222000D01*
X125364000Y-110164000D01*
X125361000Y-110121000D01*
X125360000Y-107369000D01*
X125357000Y-107303000D01*
X125357000Y-107208000D01*
X125367000Y-107121000D01*
X125385000Y-107046000D01*
X125410000Y-106961000D01*
X125432000Y-106895000D01*
X125468000Y-106825000D01*
X125507000Y-106762000D01*
X125536000Y-106718000D01*
X125573000Y-106670000D01*
X125614000Y-106624000D01*
X125668000Y-106572000D01*
X125718000Y-106527000D01*
X125776000Y-106487000D01*
X125842000Y-106446000D01*
X125915000Y-106408000D01*
X125986000Y-106380000D01*
X126066000Y-106356000D01*
X126133000Y-106344000D01*
X126198000Y-106333000D01*
X126261000Y-106328000D01*
X126297000Y-106327000D01*
X127160000Y-106329000D01*
X127214000Y-106322000D01*
X127293000Y-106305000D01*
X127368000Y-106281000D01*
X127442000Y-106249000D01*
X127510000Y-106214000D01*
X127577000Y-106169000D01*
X127616000Y-106135000D01*
X127667000Y-106088000D01*
X127708000Y-106043000D01*
X127750000Y-105991000D01*
X127786000Y-105938000D01*
X127816000Y-105889000D01*
X127841000Y-105829000D01*
X127869000Y-105761000D01*
X127890000Y-105678000D01*
X127901000Y-105620000D01*
X127905000Y-105563000D01*
X127907000Y-105502000D01*
X127904000Y-105451000D01*
X127903000Y-105418000D01*
X127903000Y-102910000D01*
X127914000Y-102786000D01*
X127929000Y-102669000D01*
X127948000Y-102578000D01*
X127970000Y-102491000D01*
X128013000Y-102346000D01*
X128052000Y-102244000D01*
X128109000Y-102129000D01*
X128172000Y-102015000D01*
X128231000Y-101923000D01*
X128344000Y-101770000D01*
X128461000Y-101645000D01*
X128575000Y-101533000D01*
X128652000Y-101478000D01*
X128784000Y-101384000D01*
X128888000Y-101322000D01*
X128970000Y-101280000D01*
X129136000Y-101206000D01*
X129239000Y-101171000D01*
X129352000Y-101138000D01*
X129461000Y-101115000D01*
X129577000Y-101096000D01*
X129667000Y-101086000D01*
X129759000Y-101081000D01*
X129943000Y-101085000D01*
X135226000Y-101085000D01*
X135348000Y-101068000D01*
X135506000Y-101032000D01*
X135666000Y-100963000D01*
X135796000Y-100881000D01*
X135897000Y-100796000D01*
X135995000Y-100707000D01*
X136174000Y-100540000D01*
X136342000Y-100387000D01*
X136512000Y-100241000D01*
X136723000Y-100060000D01*
X136871000Y-99940000D01*
X137048000Y-99802000D01*
X137217000Y-99672000D01*
X137361000Y-99567000D01*
X137530000Y-99446000D01*
X137666000Y-99350000D01*
X137806000Y-99253000D01*
X138224000Y-98983000D01*
X138394000Y-98879000D01*
X138531000Y-98794000D01*
X138681000Y-98710000D01*
X138785000Y-98652000D01*
X138997000Y-98532000D01*
X139212000Y-98419000D01*
X139469000Y-98291000D01*
X139663000Y-98198000D01*
X139858000Y-98110000D01*
X140492000Y-97839000D01*
X140633000Y-97783000D01*
X140755000Y-97738000D01*
X140903000Y-97683000D01*
X141039000Y-97637000D01*
X141448000Y-97501000D01*
X141522000Y-97477000D01*
X141546000Y-97471000D01*
X141509000Y-97550000D01*
G36*
X146033000Y-96860000D02*
G01*
X146281000Y-96862000D01*
X146885000Y-96905000D01*
X147507000Y-96972000D01*
X148131000Y-97071000D01*
X148762000Y-97201000D01*
X149346000Y-97347000D01*
X149974000Y-97528000D01*
X151051000Y-97932000D01*
X151159000Y-97978000D01*
X151872000Y-98321000D01*
X152272000Y-98508000D01*
X153349000Y-99148000D01*
X154391000Y-99889000D01*
X154930000Y-100344000D01*
X155363000Y-100739000D01*
X155680000Y-101057000D01*
X156211000Y-101623000D01*
X156485000Y-101952000D01*
X156699000Y-102215000D01*
X157308000Y-103049000D01*
X157517000Y-103373000D01*
X158037000Y-104251000D01*
X158284000Y-104732000D01*
X158371000Y-104918000D01*
X158844000Y-106030000D01*
X159921000Y-106321000D01*
X159817000Y-106998000D01*
X159593000Y-106939000D01*
X159406000Y-106886000D01*
X159099000Y-106808000D01*
X159147000Y-106962000D01*
X159205000Y-107169000D01*
X159258000Y-107368000D01*
X159391000Y-107931000D01*
X159447000Y-108210000D01*
X159503000Y-108497000D01*
X159580000Y-108999000D01*
X159611000Y-109236000D01*
X157527000Y-109237000D01*
X157493000Y-109036000D01*
X157463000Y-108858000D01*
X157420000Y-108596000D01*
X157355000Y-108311000D01*
X157256000Y-107876000D01*
X157113000Y-107388000D01*
X157049000Y-107181000D01*
X156865000Y-106660000D01*
X156611000Y-106048000D01*
X156491000Y-105780000D01*
X156292000Y-105373000D01*
X155950000Y-104771000D01*
X155651000Y-104303000D01*
X155452000Y-103992000D01*
X155301000Y-103793000D01*
X155127000Y-103565000D01*
X154777000Y-103133000D01*
X154590000Y-102916000D01*
X154139000Y-102436000D01*
X153730000Y-102042000D01*
X153384000Y-101745000D01*
X152754000Y-101243000D01*
X152160000Y-100841000D01*
X151823000Y-100633000D01*
X151546000Y-100471000D01*
X151221000Y-100296000D01*
X150931000Y-100149000D01*
X150324000Y-99866000D01*
X149691000Y-99622000D01*
X149223000Y-99467000D01*
X148891000Y-99363000D01*
X148330000Y-99225000D01*
X147667000Y-99091000D01*
X146993000Y-98997000D01*
X146315000Y-98940000D01*
X145722000Y-98926000D01*
X145608000Y-98923000D01*
X144941000Y-98941000D01*
X144265000Y-99001000D01*
X143595000Y-99099000D01*
X142922000Y-99239000D01*
X142229000Y-99421000D01*
X141770000Y-99576000D01*
X141576000Y-99639000D01*
X141190000Y-99792000D01*
X140944000Y-99887000D01*
X141043000Y-99700000D01*
X141171000Y-99463000D01*
X141638000Y-98587000D01*
X141773000Y-98337000D01*
X142075000Y-97775000D01*
X142185000Y-97573000D01*
X142358000Y-97246000D01*
X142989000Y-97111000D01*
X143537000Y-97018000D01*
X143657000Y-96999000D01*
X144305000Y-96918000D01*
X144950000Y-96871000D01*
X145597000Y-96852000D01*
X146033000Y-96860000D01*
G37*
X146033000Y-96860000D02*
X146281000Y-96862000D01*
X146885000Y-96905000D01*
X147507000Y-96972000D01*
X148131000Y-97071000D01*
X148762000Y-97201000D01*
X149346000Y-97347000D01*
X149974000Y-97528000D01*
X151051000Y-97932000D01*
X151159000Y-97978000D01*
X151872000Y-98321000D01*
X152272000Y-98508000D01*
X153349000Y-99148000D01*
X154391000Y-99889000D01*
X154930000Y-100344000D01*
X155363000Y-100739000D01*
X155680000Y-101057000D01*
X156211000Y-101623000D01*
X156485000Y-101952000D01*
X156699000Y-102215000D01*
X157308000Y-103049000D01*
X157517000Y-103373000D01*
X158037000Y-104251000D01*
X158284000Y-104732000D01*
X158371000Y-104918000D01*
X158844000Y-106030000D01*
X159921000Y-106321000D01*
X159817000Y-106998000D01*
X159593000Y-106939000D01*
X159406000Y-106886000D01*
X159099000Y-106808000D01*
X159147000Y-106962000D01*
X159205000Y-107169000D01*
X159258000Y-107368000D01*
X159391000Y-107931000D01*
X159447000Y-108210000D01*
X159503000Y-108497000D01*
X159580000Y-108999000D01*
X159611000Y-109236000D01*
X157527000Y-109237000D01*
X157493000Y-109036000D01*
X157463000Y-108858000D01*
X157420000Y-108596000D01*
X157355000Y-108311000D01*
X157256000Y-107876000D01*
X157113000Y-107388000D01*
X157049000Y-107181000D01*
X156865000Y-106660000D01*
X156611000Y-106048000D01*
X156491000Y-105780000D01*
X156292000Y-105373000D01*
X155950000Y-104771000D01*
X155651000Y-104303000D01*
X155452000Y-103992000D01*
X155301000Y-103793000D01*
X155127000Y-103565000D01*
X154777000Y-103133000D01*
X154590000Y-102916000D01*
X154139000Y-102436000D01*
X153730000Y-102042000D01*
X153384000Y-101745000D01*
X152754000Y-101243000D01*
X152160000Y-100841000D01*
X151823000Y-100633000D01*
X151546000Y-100471000D01*
X151221000Y-100296000D01*
X150931000Y-100149000D01*
X150324000Y-99866000D01*
X149691000Y-99622000D01*
X149223000Y-99467000D01*
X148891000Y-99363000D01*
X148330000Y-99225000D01*
X147667000Y-99091000D01*
X146993000Y-98997000D01*
X146315000Y-98940000D01*
X145722000Y-98926000D01*
X145608000Y-98923000D01*
X144941000Y-98941000D01*
X144265000Y-99001000D01*
X143595000Y-99099000D01*
X142922000Y-99239000D01*
X142229000Y-99421000D01*
X141770000Y-99576000D01*
X141576000Y-99639000D01*
X141190000Y-99792000D01*
X140944000Y-99887000D01*
X141043000Y-99700000D01*
X141171000Y-99463000D01*
X141638000Y-98587000D01*
X141773000Y-98337000D01*
X142075000Y-97775000D01*
X142185000Y-97573000D01*
X142358000Y-97246000D01*
X142989000Y-97111000D01*
X143537000Y-97018000D01*
X143657000Y-96999000D01*
X144305000Y-96918000D01*
X144950000Y-96871000D01*
X145597000Y-96852000D01*
X146033000Y-96860000D01*
G36*
X164305000Y-103164000D02*
G01*
X164345000Y-103260000D01*
X164462000Y-103551000D01*
X164562000Y-103809000D01*
X164696000Y-104169000D01*
X164745000Y-104312000D01*
X165067000Y-104399000D01*
X165373000Y-104484000D01*
X166044000Y-104660000D01*
X166446000Y-104771000D01*
X166926000Y-104899000D01*
X167923000Y-105168000D01*
X168088000Y-105210000D01*
X168136000Y-105225000D01*
X168157000Y-105323000D01*
X168182000Y-105423000D01*
X168259000Y-105760000D01*
X168311000Y-105978000D01*
X168360000Y-106209000D01*
X168401000Y-106422000D01*
X168438000Y-106619000D01*
X168479000Y-106809000D01*
X168508000Y-106991000D01*
X168539000Y-107190000D01*
X168572000Y-107389000D01*
X168594000Y-107538000D01*
X168614000Y-107678000D01*
X168651000Y-107945000D01*
X168685000Y-108220000D01*
X168709000Y-108463000D01*
X168732000Y-108678000D01*
X168753000Y-108921000D01*
X168776000Y-109208000D01*
X168791000Y-109418000D01*
X168802000Y-109586000D01*
X168816000Y-109833000D01*
X168822000Y-110021000D01*
X168830000Y-110250000D01*
X168836000Y-110508000D01*
X168842000Y-110709000D01*
X168840000Y-110877000D01*
X168837000Y-111128000D01*
X168831000Y-111484000D01*
X167547000Y-111488000D01*
X167547000Y-111672000D01*
X166022000Y-111670000D01*
X166022000Y-111497000D01*
X165797000Y-111483000D01*
X165572000Y-111472000D01*
X165159000Y-111447000D01*
X164939000Y-111434000D01*
X164938000Y-111277000D01*
X164946000Y-110819000D01*
X164937000Y-110512000D01*
X164920000Y-109985000D01*
X164907000Y-109749000D01*
X164892000Y-109492000D01*
X164879000Y-109297000D01*
X164860000Y-109102000D01*
X164845000Y-108970000D01*
X164825000Y-108795000D01*
X164781000Y-108435000D01*
X164765000Y-108287000D01*
X164705000Y-107873000D01*
X164669000Y-107666000D01*
X164500000Y-106799000D01*
X164467000Y-106646000D01*
X164334000Y-106092000D01*
X164288000Y-105912000D01*
X164250000Y-105779000D01*
X164100000Y-105245000D01*
X164039000Y-105074000D01*
X163993000Y-104931000D01*
X163780000Y-104306000D01*
X163684000Y-104046000D01*
X163614000Y-103866000D01*
X163512000Y-103624000D01*
X163460000Y-103497000D01*
X163454000Y-103478000D01*
X163443000Y-103449000D01*
X164289000Y-103126000D01*
X164305000Y-103164000D01*
G37*
X164305000Y-103164000D02*
X164345000Y-103260000D01*
X164462000Y-103551000D01*
X164562000Y-103809000D01*
X164696000Y-104169000D01*
X164745000Y-104312000D01*
X165067000Y-104399000D01*
X165373000Y-104484000D01*
X166044000Y-104660000D01*
X166446000Y-104771000D01*
X166926000Y-104899000D01*
X167923000Y-105168000D01*
X168088000Y-105210000D01*
X168136000Y-105225000D01*
X168157000Y-105323000D01*
X168182000Y-105423000D01*
X168259000Y-105760000D01*
X168311000Y-105978000D01*
X168360000Y-106209000D01*
X168401000Y-106422000D01*
X168438000Y-106619000D01*
X168479000Y-106809000D01*
X168508000Y-106991000D01*
X168539000Y-107190000D01*
X168572000Y-107389000D01*
X168594000Y-107538000D01*
X168614000Y-107678000D01*
X168651000Y-107945000D01*
X168685000Y-108220000D01*
X168709000Y-108463000D01*
X168732000Y-108678000D01*
X168753000Y-108921000D01*
X168776000Y-109208000D01*
X168791000Y-109418000D01*
X168802000Y-109586000D01*
X168816000Y-109833000D01*
X168822000Y-110021000D01*
X168830000Y-110250000D01*
X168836000Y-110508000D01*
X168842000Y-110709000D01*
X168840000Y-110877000D01*
X168837000Y-111128000D01*
X168831000Y-111484000D01*
X167547000Y-111488000D01*
X167547000Y-111672000D01*
X166022000Y-111670000D01*
X166022000Y-111497000D01*
X165797000Y-111483000D01*
X165572000Y-111472000D01*
X165159000Y-111447000D01*
X164939000Y-111434000D01*
X164938000Y-111277000D01*
X164946000Y-110819000D01*
X164937000Y-110512000D01*
X164920000Y-109985000D01*
X164907000Y-109749000D01*
X164892000Y-109492000D01*
X164879000Y-109297000D01*
X164860000Y-109102000D01*
X164845000Y-108970000D01*
X164825000Y-108795000D01*
X164781000Y-108435000D01*
X164765000Y-108287000D01*
X164705000Y-107873000D01*
X164669000Y-107666000D01*
X164500000Y-106799000D01*
X164467000Y-106646000D01*
X164334000Y-106092000D01*
X164288000Y-105912000D01*
X164250000Y-105779000D01*
X164100000Y-105245000D01*
X164039000Y-105074000D01*
X163993000Y-104931000D01*
X163780000Y-104306000D01*
X163684000Y-104046000D01*
X163614000Y-103866000D01*
X163512000Y-103624000D01*
X163460000Y-103497000D01*
X163454000Y-103478000D01*
X163443000Y-103449000D01*
X164289000Y-103126000D01*
X164305000Y-103164000D01*
G36*
X145749000Y-99719000D02*
G01*
X145963000Y-99722000D01*
X146113000Y-99725000D01*
X146357000Y-99739000D01*
X146598000Y-99756000D01*
X146897000Y-99783000D01*
X147066000Y-99804000D01*
X147380000Y-99847000D01*
X147754000Y-99912000D01*
X148049000Y-99975000D01*
X148313000Y-100030000D01*
X148608000Y-100109000D01*
X148848000Y-100180000D01*
X149424000Y-100366000D01*
X149774000Y-100498000D01*
X150067000Y-100614000D01*
X150302000Y-100723000D01*
X150587000Y-100858000D01*
X150880000Y-101002000D01*
X151328000Y-101257000D01*
X151582000Y-101414000D01*
X151730000Y-101508000D01*
X151876000Y-101601000D01*
X152041000Y-101723000D01*
X152254000Y-101871000D01*
X152417000Y-101996000D01*
X152593000Y-102118000D01*
X152739000Y-102256000D01*
X153045000Y-102501000D01*
X153263000Y-102704000D01*
X153453000Y-102879000D01*
X153635000Y-103064000D01*
X153874000Y-103305000D01*
X154047000Y-103514000D01*
X154207000Y-103693000D01*
X154362000Y-103863000D01*
X154565000Y-104141000D01*
X154716000Y-104341000D01*
X154842000Y-104511000D01*
X155192000Y-105059000D01*
X155355000Y-105316000D01*
X155483000Y-105545000D01*
X155756000Y-106079000D01*
X155837000Y-106254000D01*
X155929000Y-106460000D01*
X155993000Y-106615000D01*
X156107000Y-106888000D01*
X156209000Y-107173000D01*
X156316000Y-107488000D01*
X156412000Y-107793000D01*
X156535000Y-108266000D01*
X156606000Y-108583000D01*
X156675000Y-108945000D01*
X156732000Y-109294000D01*
X156752000Y-109453000D01*
X156771000Y-109569000D01*
X156809000Y-109670000D01*
X156858000Y-109764000D01*
X156925000Y-109853000D01*
X156988000Y-109933000D01*
X157072000Y-110002000D01*
X157163000Y-110061000D01*
X157228000Y-110096000D01*
X157308000Y-110127000D01*
X157393000Y-110146000D01*
X157467000Y-110157000D01*
X157522000Y-110161000D01*
X159768000Y-110188000D01*
X159921000Y-110149000D01*
X160017000Y-110108000D01*
X160131000Y-110045000D01*
X160230000Y-109970000D01*
X160302000Y-109900000D01*
X160380000Y-109808000D01*
X160415000Y-109745000D01*
X160479000Y-109624000D01*
X160519000Y-109502000D01*
X160538000Y-109405000D01*
X160547000Y-109312000D01*
X160547000Y-109197000D01*
X160536000Y-109113000D01*
X160379000Y-108151000D01*
X162452000Y-108763000D01*
X162465000Y-108877000D01*
X162487000Y-109065000D01*
X162497000Y-109160000D01*
X162550000Y-109805000D01*
X162560000Y-109932000D01*
X162567000Y-110063000D01*
X162585000Y-110720000D01*
X162587000Y-110841000D01*
X162588000Y-110933000D01*
X162579000Y-111433000D01*
X161484000Y-111434000D01*
X161484000Y-111669000D01*
X157149000Y-111670000D01*
X157148000Y-111433000D01*
X155816000Y-111433000D01*
X155816000Y-111308000D01*
X155821000Y-111158000D01*
X155827000Y-111006000D01*
X155820000Y-110624000D01*
X155813000Y-110388000D01*
X155803000Y-110216000D01*
X155791000Y-110049000D01*
X155764000Y-109793000D01*
X155747000Y-109620000D01*
X155730000Y-109503000D01*
X155699000Y-109310000D01*
X155681000Y-109177000D01*
X155658000Y-109055000D01*
X155606000Y-108804000D01*
X155571000Y-108620000D01*
X155549000Y-108543000D01*
X155454000Y-108163000D01*
X155377000Y-107921000D01*
X155298000Y-107659000D01*
X155241000Y-107509000D01*
X155112000Y-107149000D01*
X154962000Y-106795000D01*
X154817000Y-106468000D01*
X154691000Y-106220000D01*
X154564000Y-106001000D01*
X154446000Y-105792000D01*
X154134000Y-105285000D01*
X153985000Y-105071000D01*
X153897000Y-104945000D01*
X153674000Y-104655000D01*
X153522000Y-104456000D01*
X153374000Y-104284000D01*
X153024000Y-103893000D01*
X152793000Y-103665000D01*
X152564000Y-103443000D01*
X152301000Y-103210000D01*
X152068000Y-103010000D01*
X151851000Y-102839000D01*
X151629000Y-102673000D01*
X151474000Y-102563000D01*
X151166000Y-102356000D01*
X150861000Y-102161000D01*
X150572000Y-102002000D01*
X150243000Y-101821000D01*
X149891000Y-101656000D01*
X149327000Y-101421000D01*
X148964000Y-101284000D01*
X148546000Y-101152000D01*
X148144000Y-101046000D01*
X147711000Y-100945000D01*
X147338000Y-100875000D01*
X146881000Y-100811000D01*
X146405000Y-100767000D01*
X146075000Y-100746000D01*
X145771000Y-100743000D01*
X145533000Y-100736000D01*
X144963000Y-100761000D01*
X144673000Y-100782000D01*
X144355000Y-100821000D01*
X144042000Y-100866000D01*
X143255000Y-101025000D01*
X142876000Y-101121000D01*
X142468000Y-101251000D01*
X142124000Y-101373000D01*
X141711000Y-101537000D01*
X141456000Y-101650000D01*
X141232000Y-101757000D01*
X141155000Y-101790000D01*
X140657000Y-100897000D01*
X140764000Y-100844000D01*
X140943000Y-100762000D01*
X141082000Y-100693000D01*
X141286000Y-100608000D01*
X141565000Y-100493000D01*
X141741000Y-100427000D01*
X141901000Y-100366000D01*
X142155000Y-100279000D01*
X142326000Y-100225000D01*
X142464000Y-100182000D01*
X142749000Y-100101000D01*
X142936000Y-100052000D01*
X143117000Y-100008000D01*
X143309000Y-99969000D01*
X143550000Y-99915000D01*
X143776000Y-99877000D01*
X143948000Y-99846000D01*
X144157000Y-99819000D01*
X144400000Y-99786000D01*
X144776000Y-99750000D01*
X144984000Y-99736000D01*
X145275000Y-99724000D01*
X145508000Y-99717000D01*
X145749000Y-99719000D01*
G37*
X145749000Y-99719000D02*
X145963000Y-99722000D01*
X146113000Y-99725000D01*
X146357000Y-99739000D01*
X146598000Y-99756000D01*
X146897000Y-99783000D01*
X147066000Y-99804000D01*
X147380000Y-99847000D01*
X147754000Y-99912000D01*
X148049000Y-99975000D01*
X148313000Y-100030000D01*
X148608000Y-100109000D01*
X148848000Y-100180000D01*
X149424000Y-100366000D01*
X149774000Y-100498000D01*
X150067000Y-100614000D01*
X150302000Y-100723000D01*
X150587000Y-100858000D01*
X150880000Y-101002000D01*
X151328000Y-101257000D01*
X151582000Y-101414000D01*
X151730000Y-101508000D01*
X151876000Y-101601000D01*
X152041000Y-101723000D01*
X152254000Y-101871000D01*
X152417000Y-101996000D01*
X152593000Y-102118000D01*
X152739000Y-102256000D01*
X153045000Y-102501000D01*
X153263000Y-102704000D01*
X153453000Y-102879000D01*
X153635000Y-103064000D01*
X153874000Y-103305000D01*
X154047000Y-103514000D01*
X154207000Y-103693000D01*
X154362000Y-103863000D01*
X154565000Y-104141000D01*
X154716000Y-104341000D01*
X154842000Y-104511000D01*
X155192000Y-105059000D01*
X155355000Y-105316000D01*
X155483000Y-105545000D01*
X155756000Y-106079000D01*
X155837000Y-106254000D01*
X155929000Y-106460000D01*
X155993000Y-106615000D01*
X156107000Y-106888000D01*
X156209000Y-107173000D01*
X156316000Y-107488000D01*
X156412000Y-107793000D01*
X156535000Y-108266000D01*
X156606000Y-108583000D01*
X156675000Y-108945000D01*
X156732000Y-109294000D01*
X156752000Y-109453000D01*
X156771000Y-109569000D01*
X156809000Y-109670000D01*
X156858000Y-109764000D01*
X156925000Y-109853000D01*
X156988000Y-109933000D01*
X157072000Y-110002000D01*
X157163000Y-110061000D01*
X157228000Y-110096000D01*
X157308000Y-110127000D01*
X157393000Y-110146000D01*
X157467000Y-110157000D01*
X157522000Y-110161000D01*
X159768000Y-110188000D01*
X159921000Y-110149000D01*
X160017000Y-110108000D01*
X160131000Y-110045000D01*
X160230000Y-109970000D01*
X160302000Y-109900000D01*
X160380000Y-109808000D01*
X160415000Y-109745000D01*
X160479000Y-109624000D01*
X160519000Y-109502000D01*
X160538000Y-109405000D01*
X160547000Y-109312000D01*
X160547000Y-109197000D01*
X160536000Y-109113000D01*
X160379000Y-108151000D01*
X162452000Y-108763000D01*
X162465000Y-108877000D01*
X162487000Y-109065000D01*
X162497000Y-109160000D01*
X162550000Y-109805000D01*
X162560000Y-109932000D01*
X162567000Y-110063000D01*
X162585000Y-110720000D01*
X162587000Y-110841000D01*
X162588000Y-110933000D01*
X162579000Y-111433000D01*
X161484000Y-111434000D01*
X161484000Y-111669000D01*
X157149000Y-111670000D01*
X157148000Y-111433000D01*
X155816000Y-111433000D01*
X155816000Y-111308000D01*
X155821000Y-111158000D01*
X155827000Y-111006000D01*
X155820000Y-110624000D01*
X155813000Y-110388000D01*
X155803000Y-110216000D01*
X155791000Y-110049000D01*
X155764000Y-109793000D01*
X155747000Y-109620000D01*
X155730000Y-109503000D01*
X155699000Y-109310000D01*
X155681000Y-109177000D01*
X155658000Y-109055000D01*
X155606000Y-108804000D01*
X155571000Y-108620000D01*
X155549000Y-108543000D01*
X155454000Y-108163000D01*
X155377000Y-107921000D01*
X155298000Y-107659000D01*
X155241000Y-107509000D01*
X155112000Y-107149000D01*
X154962000Y-106795000D01*
X154817000Y-106468000D01*
X154691000Y-106220000D01*
X154564000Y-106001000D01*
X154446000Y-105792000D01*
X154134000Y-105285000D01*
X153985000Y-105071000D01*
X153897000Y-104945000D01*
X153674000Y-104655000D01*
X153522000Y-104456000D01*
X153374000Y-104284000D01*
X153024000Y-103893000D01*
X152793000Y-103665000D01*
X152564000Y-103443000D01*
X152301000Y-103210000D01*
X152068000Y-103010000D01*
X151851000Y-102839000D01*
X151629000Y-102673000D01*
X151474000Y-102563000D01*
X151166000Y-102356000D01*
X150861000Y-102161000D01*
X150572000Y-102002000D01*
X150243000Y-101821000D01*
X149891000Y-101656000D01*
X149327000Y-101421000D01*
X148964000Y-101284000D01*
X148546000Y-101152000D01*
X148144000Y-101046000D01*
X147711000Y-100945000D01*
X147338000Y-100875000D01*
X146881000Y-100811000D01*
X146405000Y-100767000D01*
X146075000Y-100746000D01*
X145771000Y-100743000D01*
X145533000Y-100736000D01*
X144963000Y-100761000D01*
X144673000Y-100782000D01*
X144355000Y-100821000D01*
X144042000Y-100866000D01*
X143255000Y-101025000D01*
X142876000Y-101121000D01*
X142468000Y-101251000D01*
X142124000Y-101373000D01*
X141711000Y-101537000D01*
X141456000Y-101650000D01*
X141232000Y-101757000D01*
X141155000Y-101790000D01*
X140657000Y-100897000D01*
X140764000Y-100844000D01*
X140943000Y-100762000D01*
X141082000Y-100693000D01*
X141286000Y-100608000D01*
X141565000Y-100493000D01*
X141741000Y-100427000D01*
X141901000Y-100366000D01*
X142155000Y-100279000D01*
X142326000Y-100225000D01*
X142464000Y-100182000D01*
X142749000Y-100101000D01*
X142936000Y-100052000D01*
X143117000Y-100008000D01*
X143309000Y-99969000D01*
X143550000Y-99915000D01*
X143776000Y-99877000D01*
X143948000Y-99846000D01*
X144157000Y-99819000D01*
X144400000Y-99786000D01*
X144776000Y-99750000D01*
X144984000Y-99736000D01*
X145275000Y-99724000D01*
X145508000Y-99717000D01*
X145749000Y-99719000D01*
G36*
X153872000Y-87159000D02*
G01*
X154240000Y-87293000D01*
X154557000Y-87411000D01*
X154893000Y-87537000D01*
X154424000Y-88611000D01*
X154250000Y-88748000D01*
X154083000Y-88886000D01*
X153603000Y-89274000D01*
X153257000Y-89552000D01*
X152704000Y-89997000D01*
X152267000Y-90349000D01*
X151952000Y-90599000D01*
X151698000Y-90808000D01*
X151536000Y-90764000D01*
X151419000Y-90729000D01*
X150963000Y-90604000D01*
X150460000Y-90481000D01*
X150194000Y-90417000D01*
X149862000Y-90347000D01*
X149472000Y-90270000D01*
X149317000Y-90243000D01*
X149090000Y-90206000D01*
X148440000Y-90106000D01*
X148132000Y-90070000D01*
X147937000Y-90043000D01*
X147523000Y-90006000D01*
X147184000Y-89972000D01*
X146362000Y-89933000D01*
X145672000Y-89920000D01*
X134664000Y-89920000D01*
X134666000Y-90143000D01*
X134660000Y-90227000D01*
X134641000Y-90345000D01*
X134583000Y-90490000D01*
X134493000Y-90643000D01*
X134465000Y-90686000D01*
X134361000Y-90791000D01*
X134249000Y-90867000D01*
X134128000Y-90936000D01*
X134005000Y-90976000D01*
X133863000Y-90998000D01*
X133809000Y-91000000D01*
X129389000Y-91001000D01*
X129298000Y-91003000D01*
X129133000Y-90978000D01*
X128993000Y-90917000D01*
X128871000Y-90842000D01*
X128764000Y-90744000D01*
X128672000Y-90614000D01*
X128637000Y-90557000D01*
X128606000Y-90480000D01*
X128580000Y-90400000D01*
X128562000Y-90317000D01*
X128556000Y-90234000D01*
X128556000Y-90170000D01*
X128559000Y-90144000D01*
X128556000Y-87965000D01*
X128560000Y-87864000D01*
X128591000Y-87705000D01*
X128636000Y-87571000D01*
X128730000Y-87398000D01*
X128811000Y-87300000D01*
X128903000Y-87207000D01*
X129013000Y-87124000D01*
X129086000Y-87079000D01*
X129166000Y-87040000D01*
X129262000Y-87005000D01*
X129359000Y-86981000D01*
X129457000Y-86965000D01*
X129549000Y-86961000D01*
X153271000Y-86958000D01*
X153872000Y-87159000D01*
G37*
X153872000Y-87159000D02*
X154240000Y-87293000D01*
X154557000Y-87411000D01*
X154893000Y-87537000D01*
X154424000Y-88611000D01*
X154250000Y-88748000D01*
X154083000Y-88886000D01*
X153603000Y-89274000D01*
X153257000Y-89552000D01*
X152704000Y-89997000D01*
X152267000Y-90349000D01*
X151952000Y-90599000D01*
X151698000Y-90808000D01*
X151536000Y-90764000D01*
X151419000Y-90729000D01*
X150963000Y-90604000D01*
X150460000Y-90481000D01*
X150194000Y-90417000D01*
X149862000Y-90347000D01*
X149472000Y-90270000D01*
X149317000Y-90243000D01*
X149090000Y-90206000D01*
X148440000Y-90106000D01*
X148132000Y-90070000D01*
X147937000Y-90043000D01*
X147523000Y-90006000D01*
X147184000Y-89972000D01*
X146362000Y-89933000D01*
X145672000Y-89920000D01*
X134664000Y-89920000D01*
X134666000Y-90143000D01*
X134660000Y-90227000D01*
X134641000Y-90345000D01*
X134583000Y-90490000D01*
X134493000Y-90643000D01*
X134465000Y-90686000D01*
X134361000Y-90791000D01*
X134249000Y-90867000D01*
X134128000Y-90936000D01*
X134005000Y-90976000D01*
X133863000Y-90998000D01*
X133809000Y-91000000D01*
X129389000Y-91001000D01*
X129298000Y-91003000D01*
X129133000Y-90978000D01*
X128993000Y-90917000D01*
X128871000Y-90842000D01*
X128764000Y-90744000D01*
X128672000Y-90614000D01*
X128637000Y-90557000D01*
X128606000Y-90480000D01*
X128580000Y-90400000D01*
X128562000Y-90317000D01*
X128556000Y-90234000D01*
X128556000Y-90170000D01*
X128559000Y-90144000D01*
X128556000Y-87965000D01*
X128560000Y-87864000D01*
X128591000Y-87705000D01*
X128636000Y-87571000D01*
X128730000Y-87398000D01*
X128811000Y-87300000D01*
X128903000Y-87207000D01*
X129013000Y-87124000D01*
X129086000Y-87079000D01*
X129166000Y-87040000D01*
X129262000Y-87005000D01*
X129359000Y-86981000D01*
X129457000Y-86965000D01*
X129549000Y-86961000D01*
X153271000Y-86958000D01*
X153872000Y-87159000D01*
G36*
X158433000Y-89797000D02*
G01*
X161496000Y-91868000D01*
X163780000Y-94487000D01*
X165592000Y-96511000D01*
X165341000Y-97178000D01*
X165274000Y-97148000D01*
X165238000Y-97094000D01*
X165127000Y-96940000D01*
X165067000Y-96855000D01*
X164989000Y-96751000D01*
X164883000Y-96608000D01*
X164659000Y-96312000D01*
X164449000Y-96040000D01*
X164410000Y-95988000D01*
X164370000Y-95968000D01*
X164252000Y-95938000D01*
X164145000Y-95915000D01*
X163990000Y-95901000D01*
X163862000Y-95903000D01*
X163788000Y-95910000D01*
X163542000Y-95955000D01*
X163224000Y-96012000D01*
X161729000Y-96270000D01*
X161310000Y-96343000D01*
X160850000Y-96427000D01*
X160719000Y-96287000D01*
X160571000Y-96141000D01*
X163455000Y-95578000D01*
X163499000Y-95568000D01*
X163548000Y-95546000D01*
X163599000Y-95513000D01*
X163639000Y-95473000D01*
X163670000Y-95434000D01*
X163697000Y-95385000D01*
X163724000Y-95323000D01*
X163732000Y-95275000D01*
X163734000Y-95227000D01*
X163728000Y-95174000D01*
X163708000Y-95147000D01*
X163511000Y-94926000D01*
X163383000Y-94785000D01*
X163260000Y-94646000D01*
X162930000Y-94298000D01*
X162815000Y-94178000D01*
X162695000Y-94055000D01*
X162125000Y-94195000D01*
X161687000Y-94305000D01*
X160659000Y-94561000D01*
X160036000Y-94717000D01*
X159600000Y-94827000D01*
X159351000Y-94888000D01*
X159250000Y-94914000D01*
X159182000Y-94861000D01*
X159083000Y-94775000D01*
X158975000Y-94682000D01*
X161814000Y-93870000D01*
X161842000Y-93860000D01*
X161901000Y-93830000D01*
X161944000Y-93794000D01*
X161982000Y-93752000D01*
X162018000Y-93697000D01*
X162054000Y-93583000D01*
X162055000Y-93531000D01*
X162049000Y-93473000D01*
X162032000Y-93414000D01*
X162004000Y-93386000D01*
X161766000Y-93170000D01*
X161664000Y-93078000D01*
X161389000Y-92832000D01*
X161284000Y-92741000D01*
X161157000Y-92634000D01*
X161004000Y-92508000D01*
X160931000Y-92446000D01*
X160833000Y-92364000D01*
X160779000Y-92320000D01*
X160521000Y-92423000D01*
X160181000Y-92554000D01*
X158316000Y-93296000D01*
X158123000Y-93373000D01*
X157931000Y-93451000D01*
X157614000Y-93574000D01*
X157538000Y-93606000D01*
X157493000Y-93575000D01*
X157434000Y-93537000D01*
X157327000Y-93464000D01*
X157217000Y-93390000D01*
X157185000Y-93368000D01*
X159984000Y-92199000D01*
X160027000Y-92172000D01*
X160064000Y-92139000D01*
X160103000Y-92079000D01*
X160128000Y-92025000D01*
X160138000Y-91944000D01*
X160131000Y-91884000D01*
X160112000Y-91824000D01*
X160088000Y-91780000D01*
X159901000Y-91637000D01*
X159776000Y-91547000D01*
X159623000Y-91436000D01*
X159067000Y-91052000D01*
X158943000Y-90965000D01*
X158843000Y-90900000D01*
X158710000Y-90966000D01*
X158505000Y-91068000D01*
X158248000Y-91194000D01*
X157858000Y-91389000D01*
X157264000Y-91685000D01*
X156900000Y-91863000D01*
X156022000Y-92301000D01*
X155898000Y-92363000D01*
X155682000Y-92470000D01*
X155484000Y-92362000D01*
X155354000Y-92295000D01*
X155280000Y-92257000D01*
X157891000Y-90910000D01*
X157955000Y-90881000D01*
X158004000Y-90839000D01*
X158065000Y-90760000D01*
X158085000Y-90719000D01*
X158099000Y-90656000D01*
X158101000Y-90579000D01*
X158085000Y-90500000D01*
X158066000Y-90458000D01*
X158038000Y-90417000D01*
X158013000Y-90386000D01*
X157985000Y-90362000D01*
X157883000Y-90298000D01*
X157752000Y-90225000D01*
X157620000Y-90145000D01*
X157463000Y-90056000D01*
X157129000Y-89872000D01*
X157052000Y-89830000D01*
X156954000Y-89776000D01*
X156663000Y-89623000D01*
X156607000Y-89595000D01*
X156509000Y-89661000D01*
X156270000Y-89820000D01*
X155642000Y-90247000D01*
X155481000Y-90355000D01*
X154220000Y-91210000D01*
X154094000Y-91294000D01*
X153905000Y-91422000D01*
X153813000Y-91484000D01*
X153735000Y-91536000D01*
X153604000Y-91483000D01*
X153407000Y-91402000D01*
X153336000Y-91375000D01*
X155829000Y-89611000D01*
X155862000Y-89582000D01*
X155894000Y-89530000D01*
X155920000Y-89477000D01*
X155923000Y-89425000D01*
X155917000Y-89343000D01*
X155888000Y-89284000D01*
X155847000Y-89233000D01*
X155807000Y-89202000D01*
X155723000Y-89164000D01*
X155590000Y-89104000D01*
X155391000Y-89013000D01*
X155240000Y-88949000D01*
X155138000Y-88900000D01*
X155069000Y-88872000D01*
X154942000Y-88814000D01*
X155224000Y-88328000D01*
X158433000Y-89797000D01*
G37*
X158433000Y-89797000D02*
X161496000Y-91868000D01*
X163780000Y-94487000D01*
X165592000Y-96511000D01*
X165341000Y-97178000D01*
X165274000Y-97148000D01*
X165238000Y-97094000D01*
X165127000Y-96940000D01*
X165067000Y-96855000D01*
X164989000Y-96751000D01*
X164883000Y-96608000D01*
X164659000Y-96312000D01*
X164449000Y-96040000D01*
X164410000Y-95988000D01*
X164370000Y-95968000D01*
X164252000Y-95938000D01*
X164145000Y-95915000D01*
X163990000Y-95901000D01*
X163862000Y-95903000D01*
X163788000Y-95910000D01*
X163542000Y-95955000D01*
X163224000Y-96012000D01*
X161729000Y-96270000D01*
X161310000Y-96343000D01*
X160850000Y-96427000D01*
X160719000Y-96287000D01*
X160571000Y-96141000D01*
X163455000Y-95578000D01*
X163499000Y-95568000D01*
X163548000Y-95546000D01*
X163599000Y-95513000D01*
X163639000Y-95473000D01*
X163670000Y-95434000D01*
X163697000Y-95385000D01*
X163724000Y-95323000D01*
X163732000Y-95275000D01*
X163734000Y-95227000D01*
X163728000Y-95174000D01*
X163708000Y-95147000D01*
X163511000Y-94926000D01*
X163383000Y-94785000D01*
X163260000Y-94646000D01*
X162930000Y-94298000D01*
X162815000Y-94178000D01*
X162695000Y-94055000D01*
X162125000Y-94195000D01*
X161687000Y-94305000D01*
X160659000Y-94561000D01*
X160036000Y-94717000D01*
X159600000Y-94827000D01*
X159351000Y-94888000D01*
X159250000Y-94914000D01*
X159182000Y-94861000D01*
X159083000Y-94775000D01*
X158975000Y-94682000D01*
X161814000Y-93870000D01*
X161842000Y-93860000D01*
X161901000Y-93830000D01*
X161944000Y-93794000D01*
X161982000Y-93752000D01*
X162018000Y-93697000D01*
X162054000Y-93583000D01*
X162055000Y-93531000D01*
X162049000Y-93473000D01*
X162032000Y-93414000D01*
X162004000Y-93386000D01*
X161766000Y-93170000D01*
X161664000Y-93078000D01*
X161389000Y-92832000D01*
X161284000Y-92741000D01*
X161157000Y-92634000D01*
X161004000Y-92508000D01*
X160931000Y-92446000D01*
X160833000Y-92364000D01*
X160779000Y-92320000D01*
X160521000Y-92423000D01*
X160181000Y-92554000D01*
X158316000Y-93296000D01*
X158123000Y-93373000D01*
X157931000Y-93451000D01*
X157614000Y-93574000D01*
X157538000Y-93606000D01*
X157493000Y-93575000D01*
X157434000Y-93537000D01*
X157327000Y-93464000D01*
X157217000Y-93390000D01*
X157185000Y-93368000D01*
X159984000Y-92199000D01*
X160027000Y-92172000D01*
X160064000Y-92139000D01*
X160103000Y-92079000D01*
X160128000Y-92025000D01*
X160138000Y-91944000D01*
X160131000Y-91884000D01*
X160112000Y-91824000D01*
X160088000Y-91780000D01*
X159901000Y-91637000D01*
X159776000Y-91547000D01*
X159623000Y-91436000D01*
X159067000Y-91052000D01*
X158943000Y-90965000D01*
X158843000Y-90900000D01*
X158710000Y-90966000D01*
X158505000Y-91068000D01*
X158248000Y-91194000D01*
X157858000Y-91389000D01*
X157264000Y-91685000D01*
X156900000Y-91863000D01*
X156022000Y-92301000D01*
X155898000Y-92363000D01*
X155682000Y-92470000D01*
X155484000Y-92362000D01*
X155354000Y-92295000D01*
X155280000Y-92257000D01*
X157891000Y-90910000D01*
X157955000Y-90881000D01*
X158004000Y-90839000D01*
X158065000Y-90760000D01*
X158085000Y-90719000D01*
X158099000Y-90656000D01*
X158101000Y-90579000D01*
X158085000Y-90500000D01*
X158066000Y-90458000D01*
X158038000Y-90417000D01*
X158013000Y-90386000D01*
X157985000Y-90362000D01*
X157883000Y-90298000D01*
X157752000Y-90225000D01*
X157620000Y-90145000D01*
X157463000Y-90056000D01*
X157129000Y-89872000D01*
X157052000Y-89830000D01*
X156954000Y-89776000D01*
X156663000Y-89623000D01*
X156607000Y-89595000D01*
X156509000Y-89661000D01*
X156270000Y-89820000D01*
X155642000Y-90247000D01*
X155481000Y-90355000D01*
X154220000Y-91210000D01*
X154094000Y-91294000D01*
X153905000Y-91422000D01*
X153813000Y-91484000D01*
X153735000Y-91536000D01*
X153604000Y-91483000D01*
X153407000Y-91402000D01*
X153336000Y-91375000D01*
X155829000Y-89611000D01*
X155862000Y-89582000D01*
X155894000Y-89530000D01*
X155920000Y-89477000D01*
X155923000Y-89425000D01*
X155917000Y-89343000D01*
X155888000Y-89284000D01*
X155847000Y-89233000D01*
X155807000Y-89202000D01*
X155723000Y-89164000D01*
X155590000Y-89104000D01*
X155391000Y-89013000D01*
X155240000Y-88949000D01*
X155138000Y-88900000D01*
X155069000Y-88872000D01*
X154942000Y-88814000D01*
X155224000Y-88328000D01*
X158433000Y-89797000D01*
G36*
X141166000Y-101784000D02*
G01*
X140834000Y-101957000D01*
X140568000Y-102102000D01*
X140351000Y-102237000D01*
X139977000Y-102470000D01*
X139773000Y-102616000D01*
X139585000Y-102749000D01*
X139425000Y-102878000D01*
X139270000Y-102997000D01*
X139095000Y-103143000D01*
X138938000Y-103272000D01*
X138819000Y-103386000D01*
X138727000Y-103465000D01*
X138403000Y-103784000D01*
X138229000Y-103960000D01*
X138076000Y-104134000D01*
X137920000Y-104310000D01*
X137777000Y-104483000D01*
X137668000Y-104615000D01*
X137566000Y-104749000D01*
X137476000Y-104871000D01*
X137373000Y-105007000D01*
X137254000Y-105181000D01*
X137122000Y-105377000D01*
X136976000Y-105613000D01*
X136851000Y-105821000D01*
X136741000Y-106026000D01*
X136637000Y-106217000D01*
X136546000Y-106400000D01*
X136450000Y-106590000D01*
X136337000Y-106845000D01*
X136193000Y-107196000D01*
X136074000Y-107517000D01*
X135972000Y-107807000D01*
X135934000Y-107922000D01*
X135880000Y-107997000D01*
X135831000Y-108046000D01*
X135772000Y-108086000D01*
X135714000Y-108119000D01*
X135641000Y-108145000D01*
X135572000Y-108161000D01*
X135508000Y-108166000D01*
X135432000Y-108165000D01*
X135352000Y-108145000D01*
X135268000Y-108120000D01*
X135195000Y-108077000D01*
X135101000Y-107993000D01*
X135035000Y-107899000D01*
X134989000Y-107798000D01*
X134973000Y-107701000D01*
X134969000Y-107651000D01*
X134976000Y-107594000D01*
X134981000Y-107503000D01*
X134974000Y-107411000D01*
X134961000Y-107245000D01*
X134928000Y-107104000D01*
X134871000Y-106912000D01*
X134822000Y-106808000D01*
X134749000Y-106675000D01*
X134679000Y-106572000D01*
X134606000Y-106482000D01*
X134538000Y-106404000D01*
X134455000Y-106329000D01*
X134347000Y-106242000D01*
X134257000Y-106176000D01*
X134171000Y-106127000D01*
X134079000Y-106076000D01*
X133905000Y-106012000D01*
X133835000Y-105989000D01*
X133748000Y-105968000D01*
X133687000Y-105955000D01*
X133676000Y-105955000D01*
X130149000Y-105957000D01*
X130053000Y-105947000D01*
X129976000Y-105931000D01*
X129897000Y-105916000D01*
X129847000Y-105896000D01*
X129769000Y-105863000D01*
X129696000Y-105821000D01*
X129618000Y-105771000D01*
X129551000Y-105714000D01*
X129470000Y-105638000D01*
X129422000Y-105578000D01*
X129381000Y-105518000D01*
X129340000Y-105452000D01*
X129301000Y-105370000D01*
X129276000Y-105288000D01*
X129251000Y-105204000D01*
X129240000Y-105133000D01*
X129231000Y-105065000D01*
X129230000Y-105045000D01*
X129230000Y-103369000D01*
X129232000Y-103296000D01*
X129240000Y-103224000D01*
X129256000Y-103149000D01*
X129282000Y-103059000D01*
X129319000Y-102971000D01*
X129379000Y-102868000D01*
X129443000Y-102788000D01*
X129521000Y-102707000D01*
X129614000Y-102637000D01*
X129685000Y-102596000D01*
X129768000Y-102552000D01*
X129865000Y-102519000D01*
X129939000Y-102501000D01*
X130010000Y-102490000D01*
X130076000Y-102487000D01*
X133829000Y-102487000D01*
X133895000Y-102491000D01*
X134006000Y-102510000D01*
X134094000Y-102538000D01*
X134188000Y-102578000D01*
X134263000Y-102621000D01*
X134333000Y-102672000D01*
X134406000Y-102734000D01*
X134465000Y-102794000D01*
X134516000Y-102865000D01*
X134558000Y-102935000D01*
X134591000Y-103002000D01*
X134626000Y-103082000D01*
X134646000Y-103155000D01*
X134657000Y-103216000D01*
X134663000Y-103255000D01*
X134667000Y-104927000D01*
X134669000Y-104975000D01*
X134678000Y-105031000D01*
X134701000Y-105105000D01*
X134721000Y-105165000D01*
X134764000Y-105241000D01*
X134828000Y-105330000D01*
X134878000Y-105382000D01*
X134933000Y-105432000D01*
X134995000Y-105475000D01*
X135053000Y-105510000D01*
X135120000Y-105538000D01*
X135216000Y-105572000D01*
X135305000Y-105586000D01*
X135402000Y-105593000D01*
X135502000Y-105583000D01*
X135625000Y-105553000D01*
X135714000Y-105511000D01*
X135809000Y-105455000D01*
X135887000Y-105392000D01*
X135947000Y-105320000D01*
X135987000Y-105271000D01*
X136026000Y-105207000D01*
X136075000Y-105127000D01*
X136157000Y-104994000D01*
X136210000Y-104906000D01*
X136345000Y-104701000D01*
X136446000Y-104555000D01*
X136514000Y-104454000D01*
X136616000Y-104313000D01*
X136728000Y-104164000D01*
X136844000Y-104008000D01*
X136957000Y-103872000D01*
X137060000Y-103744000D01*
X137163000Y-103621000D01*
X137266000Y-103496000D01*
X137373000Y-103385000D01*
X137506000Y-103245000D01*
X137633000Y-103105000D01*
X137766000Y-102972000D01*
X137852000Y-102885000D01*
X137959000Y-102786000D01*
X138058000Y-102695000D01*
X138184000Y-102576000D01*
X138315000Y-102460000D01*
X138420000Y-102373000D01*
X138542000Y-102268000D01*
X138646000Y-102184000D01*
X138758000Y-102098000D01*
X138891000Y-101994000D01*
X138983000Y-101924000D01*
X139115000Y-101827000D01*
X139296000Y-101700000D01*
X139455000Y-101593000D01*
X139579000Y-101509000D01*
X139703000Y-101434000D01*
X139908000Y-101306000D01*
X140077000Y-101210000D01*
X140210000Y-101135000D01*
X140360000Y-101049000D01*
X140554000Y-100949000D01*
X140673000Y-100887000D01*
X141166000Y-101784000D01*
G37*
X141166000Y-101784000D02*
X140834000Y-101957000D01*
X140568000Y-102102000D01*
X140351000Y-102237000D01*
X139977000Y-102470000D01*
X139773000Y-102616000D01*
X139585000Y-102749000D01*
X139425000Y-102878000D01*
X139270000Y-102997000D01*
X139095000Y-103143000D01*
X138938000Y-103272000D01*
X138819000Y-103386000D01*
X138727000Y-103465000D01*
X138403000Y-103784000D01*
X138229000Y-103960000D01*
X138076000Y-104134000D01*
X137920000Y-104310000D01*
X137777000Y-104483000D01*
X137668000Y-104615000D01*
X137566000Y-104749000D01*
X137476000Y-104871000D01*
X137373000Y-105007000D01*
X137254000Y-105181000D01*
X137122000Y-105377000D01*
X136976000Y-105613000D01*
X136851000Y-105821000D01*
X136741000Y-106026000D01*
X136637000Y-106217000D01*
X136546000Y-106400000D01*
X136450000Y-106590000D01*
X136337000Y-106845000D01*
X136193000Y-107196000D01*
X136074000Y-107517000D01*
X135972000Y-107807000D01*
X135934000Y-107922000D01*
X135880000Y-107997000D01*
X135831000Y-108046000D01*
X135772000Y-108086000D01*
X135714000Y-108119000D01*
X135641000Y-108145000D01*
X135572000Y-108161000D01*
X135508000Y-108166000D01*
X135432000Y-108165000D01*
X135352000Y-108145000D01*
X135268000Y-108120000D01*
X135195000Y-108077000D01*
X135101000Y-107993000D01*
X135035000Y-107899000D01*
X134989000Y-107798000D01*
X134973000Y-107701000D01*
X134969000Y-107651000D01*
X134976000Y-107594000D01*
X134981000Y-107503000D01*
X134974000Y-107411000D01*
X134961000Y-107245000D01*
X134928000Y-107104000D01*
X134871000Y-106912000D01*
X134822000Y-106808000D01*
X134749000Y-106675000D01*
X134679000Y-106572000D01*
X134606000Y-106482000D01*
X134538000Y-106404000D01*
X134455000Y-106329000D01*
X134347000Y-106242000D01*
X134257000Y-106176000D01*
X134171000Y-106127000D01*
X134079000Y-106076000D01*
X133905000Y-106012000D01*
X133835000Y-105989000D01*
X133748000Y-105968000D01*
X133687000Y-105955000D01*
X133676000Y-105955000D01*
X130149000Y-105957000D01*
X130053000Y-105947000D01*
X129976000Y-105931000D01*
X129897000Y-105916000D01*
X129847000Y-105896000D01*
X129769000Y-105863000D01*
X129696000Y-105821000D01*
X129618000Y-105771000D01*
X129551000Y-105714000D01*
X129470000Y-105638000D01*
X129422000Y-105578000D01*
X129381000Y-105518000D01*
X129340000Y-105452000D01*
X129301000Y-105370000D01*
X129276000Y-105288000D01*
X129251000Y-105204000D01*
X129240000Y-105133000D01*
X129231000Y-105065000D01*
X129230000Y-105045000D01*
X129230000Y-103369000D01*
X129232000Y-103296000D01*
X129240000Y-103224000D01*
X129256000Y-103149000D01*
X129282000Y-103059000D01*
X129319000Y-102971000D01*
X129379000Y-102868000D01*
X129443000Y-102788000D01*
X129521000Y-102707000D01*
X129614000Y-102637000D01*
X129685000Y-102596000D01*
X129768000Y-102552000D01*
X129865000Y-102519000D01*
X129939000Y-102501000D01*
X130010000Y-102490000D01*
X130076000Y-102487000D01*
X133829000Y-102487000D01*
X133895000Y-102491000D01*
X134006000Y-102510000D01*
X134094000Y-102538000D01*
X134188000Y-102578000D01*
X134263000Y-102621000D01*
X134333000Y-102672000D01*
X134406000Y-102734000D01*
X134465000Y-102794000D01*
X134516000Y-102865000D01*
X134558000Y-102935000D01*
X134591000Y-103002000D01*
X134626000Y-103082000D01*
X134646000Y-103155000D01*
X134657000Y-103216000D01*
X134663000Y-103255000D01*
X134667000Y-104927000D01*
X134669000Y-104975000D01*
X134678000Y-105031000D01*
X134701000Y-105105000D01*
X134721000Y-105165000D01*
X134764000Y-105241000D01*
X134828000Y-105330000D01*
X134878000Y-105382000D01*
X134933000Y-105432000D01*
X134995000Y-105475000D01*
X135053000Y-105510000D01*
X135120000Y-105538000D01*
X135216000Y-105572000D01*
X135305000Y-105586000D01*
X135402000Y-105593000D01*
X135502000Y-105583000D01*
X135625000Y-105553000D01*
X135714000Y-105511000D01*
X135809000Y-105455000D01*
X135887000Y-105392000D01*
X135947000Y-105320000D01*
X135987000Y-105271000D01*
X136026000Y-105207000D01*
X136075000Y-105127000D01*
X136157000Y-104994000D01*
X136210000Y-104906000D01*
X136345000Y-104701000D01*
X136446000Y-104555000D01*
X136514000Y-104454000D01*
X136616000Y-104313000D01*
X136728000Y-104164000D01*
X136844000Y-104008000D01*
X136957000Y-103872000D01*
X137060000Y-103744000D01*
X137163000Y-103621000D01*
X137266000Y-103496000D01*
X137373000Y-103385000D01*
X137506000Y-103245000D01*
X137633000Y-103105000D01*
X137766000Y-102972000D01*
X137852000Y-102885000D01*
X137959000Y-102786000D01*
X138058000Y-102695000D01*
X138184000Y-102576000D01*
X138315000Y-102460000D01*
X138420000Y-102373000D01*
X138542000Y-102268000D01*
X138646000Y-102184000D01*
X138758000Y-102098000D01*
X138891000Y-101994000D01*
X138983000Y-101924000D01*
X139115000Y-101827000D01*
X139296000Y-101700000D01*
X139455000Y-101593000D01*
X139579000Y-101509000D01*
X139703000Y-101434000D01*
X139908000Y-101306000D01*
X140077000Y-101210000D01*
X140210000Y-101135000D01*
X140360000Y-101049000D01*
X140554000Y-100949000D01*
X140673000Y-100887000D01*
X141166000Y-101784000D01*
G36*
X145852000Y-90720000D02*
G01*
X146139000Y-90729000D01*
X146445000Y-90733000D01*
X146514000Y-90736000D01*
X146650000Y-90743000D01*
X147106000Y-90772000D01*
X147340000Y-90785000D01*
X147841000Y-90839000D01*
X148092000Y-90866000D01*
X148146000Y-90871000D01*
X148675000Y-90948000D01*
X148893000Y-90974000D01*
X148977000Y-90992000D01*
X149379000Y-91068000D01*
X149733000Y-91132000D01*
X150256000Y-91250000D01*
X150511000Y-91309000D01*
X150817000Y-91390000D01*
X151181000Y-91488000D01*
X151322000Y-91527000D01*
X151407000Y-91540000D01*
X151469000Y-91539000D01*
X151558000Y-91529000D01*
X151642000Y-91502000D01*
X151708000Y-91468000D01*
X151738000Y-91447000D01*
X151792000Y-92629000D01*
X151587000Y-92553000D01*
X151163000Y-92435000D01*
X150817000Y-92334000D01*
X150443000Y-92229000D01*
X150244000Y-92173000D01*
X149569000Y-92034000D01*
X149193000Y-91955000D01*
X148899000Y-91894000D01*
X147748000Y-91742000D01*
X147535000Y-91712000D01*
X146186000Y-91625000D01*
X146056000Y-91625000D01*
X144819000Y-91639000D01*
X143497000Y-91743000D01*
X142128000Y-91946000D01*
X140808000Y-92240000D01*
X139482000Y-92635000D01*
X138256000Y-93098000D01*
X138198000Y-93121000D01*
X136963000Y-93690000D01*
X135750000Y-94360000D01*
X134570000Y-95125000D01*
X134213000Y-95399000D01*
X133486000Y-95946000D01*
X133467000Y-95964000D01*
X129488000Y-95966000D01*
X129394000Y-95966000D01*
X129308000Y-95962000D01*
X129160000Y-95932000D01*
X129004000Y-95867000D01*
X128871000Y-95775000D01*
X128756000Y-95677000D01*
X128689000Y-95576000D01*
X128628000Y-95465000D01*
X128601000Y-95394000D01*
X128578000Y-95314000D01*
X128564000Y-95246000D01*
X128557000Y-95190000D01*
X128555000Y-95132000D01*
X128556000Y-95074000D01*
X128559000Y-95065000D01*
X128558000Y-92931000D01*
X128550000Y-92888000D01*
X128549000Y-92796000D01*
X128560000Y-92697000D01*
X128578000Y-92610000D01*
X128606000Y-92521000D01*
X128652000Y-92420000D01*
X128731000Y-92294000D01*
X128795000Y-92221000D01*
X128882000Y-92146000D01*
X128969000Y-92089000D01*
X129048000Y-92049000D01*
X129127000Y-92015000D01*
X129260000Y-91984000D01*
X129374000Y-91972000D01*
X129446000Y-91977000D01*
X129496000Y-91979000D01*
X138632000Y-91979000D01*
X138835000Y-91908000D01*
X139396000Y-91713000D01*
X140009000Y-91526000D01*
X140174000Y-91476000D01*
X140950000Y-91273000D01*
X141737000Y-91101000D01*
X142516000Y-90960000D01*
X143322000Y-90850000D01*
X144005000Y-90787000D01*
X144151000Y-90773000D01*
X144852000Y-90735000D01*
X145040000Y-90729000D01*
X145421000Y-90720000D01*
X145684000Y-90718000D01*
X145852000Y-90720000D01*
G37*
X145852000Y-90720000D02*
X146139000Y-90729000D01*
X146445000Y-90733000D01*
X146514000Y-90736000D01*
X146650000Y-90743000D01*
X147106000Y-90772000D01*
X147340000Y-90785000D01*
X147841000Y-90839000D01*
X148092000Y-90866000D01*
X148146000Y-90871000D01*
X148675000Y-90948000D01*
X148893000Y-90974000D01*
X148977000Y-90992000D01*
X149379000Y-91068000D01*
X149733000Y-91132000D01*
X150256000Y-91250000D01*
X150511000Y-91309000D01*
X150817000Y-91390000D01*
X151181000Y-91488000D01*
X151322000Y-91527000D01*
X151407000Y-91540000D01*
X151469000Y-91539000D01*
X151558000Y-91529000D01*
X151642000Y-91502000D01*
X151708000Y-91468000D01*
X151738000Y-91447000D01*
X151792000Y-92629000D01*
X151587000Y-92553000D01*
X151163000Y-92435000D01*
X150817000Y-92334000D01*
X150443000Y-92229000D01*
X150244000Y-92173000D01*
X149569000Y-92034000D01*
X149193000Y-91955000D01*
X148899000Y-91894000D01*
X147748000Y-91742000D01*
X147535000Y-91712000D01*
X146186000Y-91625000D01*
X146056000Y-91625000D01*
X144819000Y-91639000D01*
X143497000Y-91743000D01*
X142128000Y-91946000D01*
X140808000Y-92240000D01*
X139482000Y-92635000D01*
X138256000Y-93098000D01*
X138198000Y-93121000D01*
X136963000Y-93690000D01*
X135750000Y-94360000D01*
X134570000Y-95125000D01*
X134213000Y-95399000D01*
X133486000Y-95946000D01*
X133467000Y-95964000D01*
X129488000Y-95966000D01*
X129394000Y-95966000D01*
X129308000Y-95962000D01*
X129160000Y-95932000D01*
X129004000Y-95867000D01*
X128871000Y-95775000D01*
X128756000Y-95677000D01*
X128689000Y-95576000D01*
X128628000Y-95465000D01*
X128601000Y-95394000D01*
X128578000Y-95314000D01*
X128564000Y-95246000D01*
X128557000Y-95190000D01*
X128555000Y-95132000D01*
X128556000Y-95074000D01*
X128559000Y-95065000D01*
X128558000Y-92931000D01*
X128550000Y-92888000D01*
X128549000Y-92796000D01*
X128560000Y-92697000D01*
X128578000Y-92610000D01*
X128606000Y-92521000D01*
X128652000Y-92420000D01*
X128731000Y-92294000D01*
X128795000Y-92221000D01*
X128882000Y-92146000D01*
X128969000Y-92089000D01*
X129048000Y-92049000D01*
X129127000Y-92015000D01*
X129260000Y-91984000D01*
X129374000Y-91972000D01*
X129446000Y-91977000D01*
X129496000Y-91979000D01*
X138632000Y-91979000D01*
X138835000Y-91908000D01*
X139396000Y-91713000D01*
X140009000Y-91526000D01*
X140174000Y-91476000D01*
X140950000Y-91273000D01*
X141737000Y-91101000D01*
X142516000Y-90960000D01*
X143322000Y-90850000D01*
X144005000Y-90787000D01*
X144151000Y-90773000D01*
X144852000Y-90735000D01*
X145040000Y-90729000D01*
X145421000Y-90720000D01*
X145684000Y-90718000D01*
X145852000Y-90720000D01*
G36*
X146568000Y-94004000D02*
G01*
X146745000Y-94010000D01*
X147674000Y-94097000D01*
X148689000Y-94253000D01*
X149699000Y-94470000D01*
X150706000Y-94751000D01*
X151664000Y-95081000D01*
X152629000Y-95482000D01*
X153754000Y-96042000D01*
X154489000Y-96463000D01*
X155187000Y-96915000D01*
X155462000Y-97110000D01*
X155747000Y-97325000D01*
X156117000Y-97597000D01*
X156281000Y-97723000D01*
X156910000Y-98262000D01*
X157513105Y-98823931D01*
X158029000Y-99363000D01*
X158353000Y-99706000D01*
X156765000Y-100866000D01*
X156489000Y-100547000D01*
X156009000Y-100080000D01*
X155897000Y-99970000D01*
X155278000Y-99425000D01*
X155183000Y-99335000D01*
X154754000Y-99016000D01*
X154410000Y-98747000D01*
X153642000Y-98231000D01*
X152881000Y-97784000D01*
X152793000Y-97736000D01*
X151959000Y-97315000D01*
X151340000Y-97046000D01*
X151104000Y-96944000D01*
X150917000Y-96883000D01*
X150303000Y-96668000D01*
X150193000Y-96625000D01*
X149537000Y-96445000D01*
X149246000Y-96359000D01*
X148498000Y-96203000D01*
X148295000Y-96160000D01*
X147346000Y-96022000D01*
X146394000Y-95940000D01*
X145457000Y-95928000D01*
X144801000Y-95952000D01*
X144469000Y-95968000D01*
X143526000Y-96076000D01*
X142590000Y-96241000D01*
X141696000Y-96458000D01*
X140776000Y-96739000D01*
X139914000Y-97070000D01*
X139055000Y-97455000D01*
X138239000Y-97892000D01*
X137388000Y-98413000D01*
X136965000Y-98716000D01*
X136574000Y-98991000D01*
X136118000Y-99364000D01*
X135862000Y-99566000D01*
X135652000Y-99767000D01*
X135311000Y-100081000D01*
X135183000Y-100198000D01*
X135106000Y-100264000D01*
X135029000Y-100328000D01*
X134950000Y-100377000D01*
X134841000Y-100431000D01*
X134726000Y-100462000D01*
X134645000Y-100472000D01*
X134584000Y-100481000D01*
X134515000Y-100482000D01*
X134450000Y-100479000D01*
X129817000Y-100479000D01*
X129759000Y-100483000D01*
X129680000Y-100487000D01*
X129588000Y-100480000D01*
X129420000Y-100446000D01*
X129309000Y-100412000D01*
X129197000Y-100364000D01*
X129095000Y-100307000D01*
X129019000Y-100253000D01*
X128943000Y-100190000D01*
X128900000Y-100153000D01*
X128854000Y-100103000D01*
X128796000Y-100030000D01*
X128744000Y-99958000D01*
X128712000Y-99904000D01*
X128664000Y-99817000D01*
X128637000Y-99753000D01*
X128612000Y-99687000D01*
X128587000Y-99594000D01*
X128570000Y-99515000D01*
X128560000Y-99417000D01*
X128558000Y-99361000D01*
X128557000Y-97715000D01*
X128558000Y-97662000D01*
X128565000Y-97607000D01*
X128577000Y-97542000D01*
X128604000Y-97460000D01*
X128636000Y-97386000D01*
X128676000Y-97318000D01*
X128715000Y-97266000D01*
X128764000Y-97209000D01*
X128834000Y-97147000D01*
X128924000Y-97086000D01*
X129009000Y-97044000D01*
X129117000Y-97010000D01*
X129199000Y-96996000D01*
X129282000Y-96991000D01*
X129317000Y-96992000D01*
X136017000Y-96992000D01*
X136099000Y-96938000D01*
X136234000Y-96852000D01*
X136447000Y-96714000D01*
X136592000Y-96619000D01*
X136751000Y-96515000D01*
X136879000Y-96433000D01*
X137011000Y-96358000D01*
X137152000Y-96278000D01*
X137247000Y-96224000D01*
X137390000Y-96142000D01*
X137497000Y-96085000D01*
X137619000Y-96015000D01*
X137781000Y-95923000D01*
X137905000Y-95862000D01*
X138077000Y-95777000D01*
X138581000Y-95533000D01*
X138743000Y-95454000D01*
X138973000Y-95360000D01*
X139501000Y-95142000D01*
X139676000Y-95068000D01*
X140628000Y-94742000D01*
X141601000Y-94470000D01*
X142604000Y-94252000D01*
X143625000Y-94102000D01*
X144612000Y-94009000D01*
X145631000Y-93976000D01*
X146568000Y-94004000D01*
G37*
X146568000Y-94004000D02*
X146745000Y-94010000D01*
X147674000Y-94097000D01*
X148689000Y-94253000D01*
X149699000Y-94470000D01*
X150706000Y-94751000D01*
X151664000Y-95081000D01*
X152629000Y-95482000D01*
X153754000Y-96042000D01*
X154489000Y-96463000D01*
X155187000Y-96915000D01*
X155462000Y-97110000D01*
X155747000Y-97325000D01*
X156117000Y-97597000D01*
X156281000Y-97723000D01*
X156910000Y-98262000D01*
X157513105Y-98823931D01*
X158029000Y-99363000D01*
X158353000Y-99706000D01*
X156765000Y-100866000D01*
X156489000Y-100547000D01*
X156009000Y-100080000D01*
X155897000Y-99970000D01*
X155278000Y-99425000D01*
X155183000Y-99335000D01*
X154754000Y-99016000D01*
X154410000Y-98747000D01*
X153642000Y-98231000D01*
X152881000Y-97784000D01*
X152793000Y-97736000D01*
X151959000Y-97315000D01*
X151340000Y-97046000D01*
X151104000Y-96944000D01*
X150917000Y-96883000D01*
X150303000Y-96668000D01*
X150193000Y-96625000D01*
X149537000Y-96445000D01*
X149246000Y-96359000D01*
X148498000Y-96203000D01*
X148295000Y-96160000D01*
X147346000Y-96022000D01*
X146394000Y-95940000D01*
X145457000Y-95928000D01*
X144801000Y-95952000D01*
X144469000Y-95968000D01*
X143526000Y-96076000D01*
X142590000Y-96241000D01*
X141696000Y-96458000D01*
X140776000Y-96739000D01*
X139914000Y-97070000D01*
X139055000Y-97455000D01*
X138239000Y-97892000D01*
X137388000Y-98413000D01*
X136965000Y-98716000D01*
X136574000Y-98991000D01*
X136118000Y-99364000D01*
X135862000Y-99566000D01*
X135652000Y-99767000D01*
X135311000Y-100081000D01*
X135183000Y-100198000D01*
X135106000Y-100264000D01*
X135029000Y-100328000D01*
X134950000Y-100377000D01*
X134841000Y-100431000D01*
X134726000Y-100462000D01*
X134645000Y-100472000D01*
X134584000Y-100481000D01*
X134515000Y-100482000D01*
X134450000Y-100479000D01*
X129817000Y-100479000D01*
X129759000Y-100483000D01*
X129680000Y-100487000D01*
X129588000Y-100480000D01*
X129420000Y-100446000D01*
X129309000Y-100412000D01*
X129197000Y-100364000D01*
X129095000Y-100307000D01*
X129019000Y-100253000D01*
X128943000Y-100190000D01*
X128900000Y-100153000D01*
X128854000Y-100103000D01*
X128796000Y-100030000D01*
X128744000Y-99958000D01*
X128712000Y-99904000D01*
X128664000Y-99817000D01*
X128637000Y-99753000D01*
X128612000Y-99687000D01*
X128587000Y-99594000D01*
X128570000Y-99515000D01*
X128560000Y-99417000D01*
X128558000Y-99361000D01*
X128557000Y-97715000D01*
X128558000Y-97662000D01*
X128565000Y-97607000D01*
X128577000Y-97542000D01*
X128604000Y-97460000D01*
X128636000Y-97386000D01*
X128676000Y-97318000D01*
X128715000Y-97266000D01*
X128764000Y-97209000D01*
X128834000Y-97147000D01*
X128924000Y-97086000D01*
X129009000Y-97044000D01*
X129117000Y-97010000D01*
X129199000Y-96996000D01*
X129282000Y-96991000D01*
X129317000Y-96992000D01*
X136017000Y-96992000D01*
X136099000Y-96938000D01*
X136234000Y-96852000D01*
X136447000Y-96714000D01*
X136592000Y-96619000D01*
X136751000Y-96515000D01*
X136879000Y-96433000D01*
X137011000Y-96358000D01*
X137152000Y-96278000D01*
X137247000Y-96224000D01*
X137390000Y-96142000D01*
X137497000Y-96085000D01*
X137619000Y-96015000D01*
X137781000Y-95923000D01*
X137905000Y-95862000D01*
X138077000Y-95777000D01*
X138581000Y-95533000D01*
X138743000Y-95454000D01*
X138973000Y-95360000D01*
X139501000Y-95142000D01*
X139676000Y-95068000D01*
X140628000Y-94742000D01*
X141601000Y-94470000D01*
X142604000Y-94252000D01*
X143625000Y-94102000D01*
X144612000Y-94009000D01*
X145631000Y-93976000D01*
X146568000Y-94004000D01*
G36*
X154777000Y-89595000D02*
G01*
X154481000Y-89824000D01*
X153916000Y-90254000D01*
X153619000Y-90484000D01*
X152505000Y-91335000D01*
X152462000Y-91391000D01*
X152416000Y-91488000D01*
X152406000Y-91558000D01*
X152404000Y-91627000D01*
X152417000Y-91712000D01*
X152442000Y-91775000D01*
X152474000Y-91827000D01*
X152516000Y-91877000D01*
X152567000Y-91922000D01*
X152615000Y-91953000D01*
X152666000Y-91973000D01*
X152907000Y-92062000D01*
X153094000Y-92135000D01*
X153272000Y-92207000D01*
X153390000Y-92250000D01*
X153498000Y-92263000D01*
X153594000Y-92248000D01*
X153679000Y-92222000D01*
X153764000Y-92172000D01*
X154091000Y-91966000D01*
X154418000Y-91761000D01*
X154727000Y-91569000D01*
X155125000Y-91318000D01*
X155745000Y-90925000D01*
X156058000Y-90731000D01*
X156332000Y-90557000D01*
X156533000Y-90433000D01*
X156911000Y-90639000D01*
X156809000Y-90702000D01*
X156650000Y-90802000D01*
X155855000Y-91301000D01*
X155559000Y-91484000D01*
X155221000Y-91697000D01*
X155027000Y-91819000D01*
X154450000Y-92178000D01*
X154416000Y-92205000D01*
X154363000Y-92280000D01*
X154333000Y-92360000D01*
X154326000Y-92432000D01*
X154329000Y-92503000D01*
X154350000Y-92580000D01*
X154385000Y-92645000D01*
X154419000Y-92687000D01*
X154463000Y-92728000D01*
X154519000Y-92767000D01*
X154550000Y-92781000D01*
X154706000Y-92857000D01*
X154900000Y-92955000D01*
X155077000Y-93048000D01*
X155226000Y-93127000D01*
X155279000Y-93156000D01*
X155338000Y-93175000D01*
X155437000Y-93182000D01*
X155536000Y-93164000D01*
X155619000Y-93131000D01*
X155659000Y-93111000D01*
X156254000Y-92823000D01*
X156496000Y-92708000D01*
X156742000Y-92590000D01*
X157225000Y-92354000D01*
X157596000Y-92177000D01*
X157969000Y-91998000D01*
X158228000Y-91871000D01*
X158456000Y-91763000D01*
X158615000Y-91683000D01*
X158864000Y-91854000D01*
X158956000Y-91920000D01*
X158699000Y-92045000D01*
X158477000Y-92151000D01*
X158009000Y-92376000D01*
X157759000Y-92496000D01*
X157542000Y-92601000D01*
X157303000Y-92718000D01*
X156870000Y-92923000D01*
X156576000Y-93064000D01*
X156341000Y-93179000D01*
X156295000Y-93202000D01*
X156260000Y-93251000D01*
X156232000Y-93305000D01*
X156202000Y-93403000D01*
X156197000Y-93505000D01*
X156216000Y-93598000D01*
X156241000Y-93660000D01*
X156263000Y-93700000D01*
X156289000Y-93733000D01*
X156310000Y-93757000D01*
X156509000Y-93880000D01*
X156737000Y-94028000D01*
X156900000Y-94138000D01*
X156990000Y-94198000D01*
X157088000Y-94264000D01*
X157127000Y-94276000D01*
X157212000Y-94292000D01*
X157300000Y-94296000D01*
X157379000Y-94290000D01*
X157484000Y-94264000D01*
X157560000Y-94236000D01*
X157763000Y-94159000D01*
X158048000Y-94055000D01*
X158350000Y-93939000D01*
X159054000Y-93677000D01*
X159577000Y-93482000D01*
X160113000Y-93280000D01*
X160418000Y-93166000D01*
X160532000Y-93121000D01*
X160604000Y-93186000D01*
X160698000Y-93267000D01*
X160795000Y-93349000D01*
X160850000Y-93398000D01*
X160709000Y-93451000D01*
X160572000Y-93505000D01*
X159961000Y-93734000D01*
X159665000Y-93846000D01*
X159233000Y-94009000D01*
X158629000Y-94235000D01*
X158345000Y-94343000D01*
X158096000Y-94437000D01*
X158005000Y-94518000D01*
X157962000Y-94620000D01*
X157941000Y-94712000D01*
X157949000Y-94786000D01*
X157964000Y-94854000D01*
X157991000Y-94913000D01*
X158013000Y-94940000D01*
X157388000Y-95602000D01*
X157138000Y-95415000D01*
X156900000Y-95238000D01*
X156626000Y-95041000D01*
X156398000Y-94888000D01*
X156185000Y-94750000D01*
X156014000Y-94640000D01*
X155890000Y-94560000D01*
X155754000Y-94475000D01*
X155594000Y-94384000D01*
X155402000Y-94261000D01*
X155189000Y-94144000D01*
X154668000Y-93854000D01*
X154462000Y-93756000D01*
X154319000Y-93674000D01*
X154172000Y-93602000D01*
X153925000Y-93492000D01*
X153721000Y-93400000D01*
X153549000Y-93325000D01*
X153368000Y-93244000D01*
X153202000Y-93169000D01*
X153026000Y-93091000D01*
X152879000Y-93021000D01*
X152534000Y-92895000D01*
X152249000Y-92801000D01*
X152007000Y-92711000D01*
X151814000Y-92638000D01*
X151792000Y-92629000D01*
X151759000Y-92617000D01*
X151708000Y-91468000D01*
X151738000Y-91448000D01*
X151977000Y-91257000D01*
X152376000Y-90940000D01*
X153471000Y-90079000D01*
X153858000Y-89773000D01*
X154323000Y-89406000D01*
X154777000Y-89595000D01*
G37*
X154777000Y-89595000D02*
X154481000Y-89824000D01*
X153916000Y-90254000D01*
X153619000Y-90484000D01*
X152505000Y-91335000D01*
X152462000Y-91391000D01*
X152416000Y-91488000D01*
X152406000Y-91558000D01*
X152404000Y-91627000D01*
X152417000Y-91712000D01*
X152442000Y-91775000D01*
X152474000Y-91827000D01*
X152516000Y-91877000D01*
X152567000Y-91922000D01*
X152615000Y-91953000D01*
X152666000Y-91973000D01*
X152907000Y-92062000D01*
X153094000Y-92135000D01*
X153272000Y-92207000D01*
X153390000Y-92250000D01*
X153498000Y-92263000D01*
X153594000Y-92248000D01*
X153679000Y-92222000D01*
X153764000Y-92172000D01*
X154091000Y-91966000D01*
X154418000Y-91761000D01*
X154727000Y-91569000D01*
X155125000Y-91318000D01*
X155745000Y-90925000D01*
X156058000Y-90731000D01*
X156332000Y-90557000D01*
X156533000Y-90433000D01*
X156911000Y-90639000D01*
X156809000Y-90702000D01*
X156650000Y-90802000D01*
X155855000Y-91301000D01*
X155559000Y-91484000D01*
X155221000Y-91697000D01*
X155027000Y-91819000D01*
X154450000Y-92178000D01*
X154416000Y-92205000D01*
X154363000Y-92280000D01*
X154333000Y-92360000D01*
X154326000Y-92432000D01*
X154329000Y-92503000D01*
X154350000Y-92580000D01*
X154385000Y-92645000D01*
X154419000Y-92687000D01*
X154463000Y-92728000D01*
X154519000Y-92767000D01*
X154550000Y-92781000D01*
X154706000Y-92857000D01*
X154900000Y-92955000D01*
X155077000Y-93048000D01*
X155226000Y-93127000D01*
X155279000Y-93156000D01*
X155338000Y-93175000D01*
X155437000Y-93182000D01*
X155536000Y-93164000D01*
X155619000Y-93131000D01*
X155659000Y-93111000D01*
X156254000Y-92823000D01*
X156496000Y-92708000D01*
X156742000Y-92590000D01*
X157225000Y-92354000D01*
X157596000Y-92177000D01*
X157969000Y-91998000D01*
X158228000Y-91871000D01*
X158456000Y-91763000D01*
X158615000Y-91683000D01*
X158864000Y-91854000D01*
X158956000Y-91920000D01*
X158699000Y-92045000D01*
X158477000Y-92151000D01*
X158009000Y-92376000D01*
X157759000Y-92496000D01*
X157542000Y-92601000D01*
X157303000Y-92718000D01*
X156870000Y-92923000D01*
X156576000Y-93064000D01*
X156341000Y-93179000D01*
X156295000Y-93202000D01*
X156260000Y-93251000D01*
X156232000Y-93305000D01*
X156202000Y-93403000D01*
X156197000Y-93505000D01*
X156216000Y-93598000D01*
X156241000Y-93660000D01*
X156263000Y-93700000D01*
X156289000Y-93733000D01*
X156310000Y-93757000D01*
X156509000Y-93880000D01*
X156737000Y-94028000D01*
X156900000Y-94138000D01*
X156990000Y-94198000D01*
X157088000Y-94264000D01*
X157127000Y-94276000D01*
X157212000Y-94292000D01*
X157300000Y-94296000D01*
X157379000Y-94290000D01*
X157484000Y-94264000D01*
X157560000Y-94236000D01*
X157763000Y-94159000D01*
X158048000Y-94055000D01*
X158350000Y-93939000D01*
X159054000Y-93677000D01*
X159577000Y-93482000D01*
X160113000Y-93280000D01*
X160418000Y-93166000D01*
X160532000Y-93121000D01*
X160604000Y-93186000D01*
X160698000Y-93267000D01*
X160795000Y-93349000D01*
X160850000Y-93398000D01*
X160709000Y-93451000D01*
X160572000Y-93505000D01*
X159961000Y-93734000D01*
X159665000Y-93846000D01*
X159233000Y-94009000D01*
X158629000Y-94235000D01*
X158345000Y-94343000D01*
X158096000Y-94437000D01*
X158005000Y-94518000D01*
X157962000Y-94620000D01*
X157941000Y-94712000D01*
X157949000Y-94786000D01*
X157964000Y-94854000D01*
X157991000Y-94913000D01*
X158013000Y-94940000D01*
X157388000Y-95602000D01*
X157138000Y-95415000D01*
X156900000Y-95238000D01*
X156626000Y-95041000D01*
X156398000Y-94888000D01*
X156185000Y-94750000D01*
X156014000Y-94640000D01*
X155890000Y-94560000D01*
X155754000Y-94475000D01*
X155594000Y-94384000D01*
X155402000Y-94261000D01*
X155189000Y-94144000D01*
X154668000Y-93854000D01*
X154462000Y-93756000D01*
X154319000Y-93674000D01*
X154172000Y-93602000D01*
X153925000Y-93492000D01*
X153721000Y-93400000D01*
X153549000Y-93325000D01*
X153368000Y-93244000D01*
X153202000Y-93169000D01*
X153026000Y-93091000D01*
X152879000Y-93021000D01*
X152534000Y-92895000D01*
X152249000Y-92801000D01*
X152007000Y-92711000D01*
X151814000Y-92638000D01*
X151792000Y-92629000D01*
X151759000Y-92617000D01*
X151708000Y-91468000D01*
X151738000Y-91448000D01*
X151977000Y-91257000D01*
X152376000Y-90940000D01*
X153471000Y-90079000D01*
X153858000Y-89773000D01*
X154323000Y-89406000D01*
X154777000Y-89595000D01*
D11*
G36*
X166079500Y-90271000D02*
G01*
X165420000Y-90825000D01*
X165294000Y-90732000D01*
X165151000Y-90649000D01*
X164983000Y-90594000D01*
X164793000Y-90571000D01*
X164622000Y-90578000D01*
X164454500Y-90622000D01*
X164293000Y-90697000D01*
X164162000Y-90791000D01*
X164025000Y-90933000D01*
X163933500Y-91079000D01*
X163871000Y-91248000D01*
X163837500Y-91429000D01*
X163837000Y-91582000D01*
X163869500Y-91758000D01*
X163935000Y-91929000D01*
X164027500Y-92076000D01*
X164175000Y-92213000D01*
X164328500Y-92322000D01*
X164513500Y-92390000D01*
X164719500Y-92430000D01*
X164911500Y-92417000D01*
X165090500Y-92373000D01*
X165249500Y-92298000D01*
X165380500Y-92215000D01*
X165532500Y-92036000D01*
X165627500Y-91881000D01*
X165681500Y-91716000D01*
X165700500Y-91545000D01*
X165693500Y-91370000D01*
X165654500Y-91200000D01*
X165577500Y-91033000D01*
X165439000Y-90844000D01*
X166095500Y-90289000D01*
X167180500Y-91333000D01*
X165937500Y-92450000D01*
X165837500Y-92550000D01*
X165717500Y-92660000D01*
X165587500Y-92770000D01*
X165367500Y-92880000D01*
X165217500Y-92930000D01*
X164997500Y-92990000D01*
X164807500Y-93000000D01*
X164627500Y-93000000D01*
X164417500Y-92960000D01*
X164287500Y-92920000D01*
X164127500Y-92860000D01*
X164007500Y-92800000D01*
X163907500Y-92730000D01*
X163787500Y-92650000D01*
X163617500Y-92480000D01*
X163477500Y-92300000D01*
X163427500Y-92200000D01*
X163367500Y-92090000D01*
X163327500Y-91980000D01*
X163297500Y-91880000D01*
X163267500Y-91790000D01*
X163257500Y-91700000D01*
X163247500Y-91640000D01*
X163237500Y-91510000D01*
X163237500Y-91410000D01*
X163247500Y-91330000D01*
X163247500Y-91240000D01*
X163267500Y-91150000D01*
X163317500Y-90970000D01*
X163367500Y-90860000D01*
X163427500Y-90740000D01*
X163497500Y-90620000D01*
X163547500Y-90540000D01*
X163607500Y-90470000D01*
X163687500Y-90380000D01*
X164968500Y-89193000D01*
X166079500Y-90271000D01*
G37*
X166079500Y-90271000D02*
X165420000Y-90825000D01*
X165294000Y-90732000D01*
X165151000Y-90649000D01*
X164983000Y-90594000D01*
X164793000Y-90571000D01*
X164622000Y-90578000D01*
X164454500Y-90622000D01*
X164293000Y-90697000D01*
X164162000Y-90791000D01*
X164025000Y-90933000D01*
X163933500Y-91079000D01*
X163871000Y-91248000D01*
X163837500Y-91429000D01*
X163837000Y-91582000D01*
X163869500Y-91758000D01*
X163935000Y-91929000D01*
X164027500Y-92076000D01*
X164175000Y-92213000D01*
X164328500Y-92322000D01*
X164513500Y-92390000D01*
X164719500Y-92430000D01*
X164911500Y-92417000D01*
X165090500Y-92373000D01*
X165249500Y-92298000D01*
X165380500Y-92215000D01*
X165532500Y-92036000D01*
X165627500Y-91881000D01*
X165681500Y-91716000D01*
X165700500Y-91545000D01*
X165693500Y-91370000D01*
X165654500Y-91200000D01*
X165577500Y-91033000D01*
X165439000Y-90844000D01*
X166095500Y-90289000D01*
X167180500Y-91333000D01*
X165937500Y-92450000D01*
X165837500Y-92550000D01*
X165717500Y-92660000D01*
X165587500Y-92770000D01*
X165367500Y-92880000D01*
X165217500Y-92930000D01*
X164997500Y-92990000D01*
X164807500Y-93000000D01*
X164627500Y-93000000D01*
X164417500Y-92960000D01*
X164287500Y-92920000D01*
X164127500Y-92860000D01*
X164007500Y-92800000D01*
X163907500Y-92730000D01*
X163787500Y-92650000D01*
X163617500Y-92480000D01*
X163477500Y-92300000D01*
X163427500Y-92200000D01*
X163367500Y-92090000D01*
X163327500Y-91980000D01*
X163297500Y-91880000D01*
X163267500Y-91790000D01*
X163257500Y-91700000D01*
X163247500Y-91640000D01*
X163237500Y-91510000D01*
X163237500Y-91410000D01*
X163247500Y-91330000D01*
X163247500Y-91240000D01*
X163267500Y-91150000D01*
X163317500Y-90970000D01*
X163367500Y-90860000D01*
X163427500Y-90740000D01*
X163497500Y-90620000D01*
X163547500Y-90540000D01*
X163607500Y-90470000D01*
X163687500Y-90380000D01*
X164968500Y-89193000D01*
X166079500Y-90271000D01*
D10*
G36*
X158401000Y-99764000D02*
G01*
X158684000Y-100102000D01*
X158934000Y-100402000D01*
X159005000Y-100484000D01*
X159385000Y-101004000D01*
X159611000Y-101317000D01*
X160084000Y-102056000D01*
X160200000Y-102226000D01*
X160466000Y-102716000D01*
X160653000Y-103052000D01*
X160790000Y-103333000D01*
X160967000Y-103686000D01*
X161106000Y-103981000D01*
X161354000Y-104584000D01*
X161503000Y-104934000D01*
X161646000Y-105367000D01*
X161829000Y-105882000D01*
X161951000Y-106337000D01*
X162109000Y-106906000D01*
X163729000Y-107342000D01*
X163793000Y-107713000D01*
X163865000Y-108128000D01*
X163915000Y-108449000D01*
X164030000Y-109540000D01*
X164060000Y-110156000D01*
X164072000Y-110549000D01*
X164075000Y-110845000D01*
X164075000Y-111327000D01*
X164063000Y-111631000D01*
X164064000Y-111682000D01*
X163226000Y-111682000D01*
X163236000Y-111398000D01*
X163243000Y-111161000D01*
X163244000Y-110852000D01*
X163240000Y-110493000D01*
X163222000Y-110078000D01*
X163209000Y-109742000D01*
X163175000Y-109380000D01*
X163147000Y-109074000D01*
X163115000Y-108758000D01*
X163057000Y-108346000D01*
X163007000Y-108023000D01*
X162976000Y-107844000D01*
X159806000Y-106993000D01*
X159901000Y-106315000D01*
X159918000Y-106319000D01*
X159858000Y-106141000D01*
X159590000Y-105391000D01*
X159439000Y-105050000D01*
X159279000Y-104669000D01*
X159209000Y-104503000D01*
X158945000Y-103996000D01*
X158815000Y-103756000D01*
X158717000Y-103579000D01*
X158460000Y-103131000D01*
X158344000Y-102934000D01*
X158261000Y-102804000D01*
X157919000Y-102301000D01*
X157748000Y-102055000D01*
X157239000Y-101405000D01*
X157007000Y-101130000D01*
X156799000Y-100904000D01*
X156752000Y-100851000D01*
X158333000Y-99684000D01*
X158401000Y-99764000D01*
G37*
X158401000Y-99764000D02*
X158684000Y-100102000D01*
X158934000Y-100402000D01*
X159005000Y-100484000D01*
X159385000Y-101004000D01*
X159611000Y-101317000D01*
X160084000Y-102056000D01*
X160200000Y-102226000D01*
X160466000Y-102716000D01*
X160653000Y-103052000D01*
X160790000Y-103333000D01*
X160967000Y-103686000D01*
X161106000Y-103981000D01*
X161354000Y-104584000D01*
X161503000Y-104934000D01*
X161646000Y-105367000D01*
X161829000Y-105882000D01*
X161951000Y-106337000D01*
X162109000Y-106906000D01*
X163729000Y-107342000D01*
X163793000Y-107713000D01*
X163865000Y-108128000D01*
X163915000Y-108449000D01*
X164030000Y-109540000D01*
X164060000Y-110156000D01*
X164072000Y-110549000D01*
X164075000Y-110845000D01*
X164075000Y-111327000D01*
X164063000Y-111631000D01*
X164064000Y-111682000D01*
X163226000Y-111682000D01*
X163236000Y-111398000D01*
X163243000Y-111161000D01*
X163244000Y-110852000D01*
X163240000Y-110493000D01*
X163222000Y-110078000D01*
X163209000Y-109742000D01*
X163175000Y-109380000D01*
X163147000Y-109074000D01*
X163115000Y-108758000D01*
X163057000Y-108346000D01*
X163007000Y-108023000D01*
X162976000Y-107844000D01*
X159806000Y-106993000D01*
X159901000Y-106315000D01*
X159918000Y-106319000D01*
X159858000Y-106141000D01*
X159590000Y-105391000D01*
X159439000Y-105050000D01*
X159279000Y-104669000D01*
X159209000Y-104503000D01*
X158945000Y-103996000D01*
X158815000Y-103756000D01*
X158717000Y-103579000D01*
X158460000Y-103131000D01*
X158344000Y-102934000D01*
X158261000Y-102804000D01*
X157919000Y-102301000D01*
X157748000Y-102055000D01*
X157239000Y-101405000D01*
X157007000Y-101130000D01*
X156799000Y-100904000D01*
X156752000Y-100851000D01*
X158333000Y-99684000D01*
X158401000Y-99764000D01*
G36*
X162581000Y-95061000D02*
G01*
X159795000Y-95734000D01*
X159725000Y-95767000D01*
X159653000Y-95822000D01*
X159600000Y-95888000D01*
X159561000Y-95965000D01*
X159542000Y-96062000D01*
X159547000Y-96170000D01*
X159568000Y-96244000D01*
X159594000Y-96301000D01*
X159612000Y-96314000D01*
X159964000Y-96659000D01*
X160113000Y-96808000D01*
X160264000Y-96965000D01*
X160368000Y-97078000D01*
X160668000Y-97042000D01*
X161098000Y-96988000D01*
X162326000Y-96839000D01*
X162578000Y-96807000D01*
X162910000Y-96771000D01*
X163179000Y-96735000D01*
X163935000Y-96645000D01*
X164082000Y-96838000D01*
X164163000Y-96942000D01*
X164190000Y-96981000D01*
X164065000Y-96995000D01*
X163875000Y-97014000D01*
X163196000Y-97087000D01*
X162844000Y-97125000D01*
X162212000Y-97190000D01*
X161876000Y-97228000D01*
X161560000Y-97261000D01*
X161316000Y-97286000D01*
X161211000Y-97313000D01*
X161113000Y-97378000D01*
X161044000Y-97456000D01*
X161006000Y-97534000D01*
X160979000Y-97634000D01*
X160985000Y-97695000D01*
X160991000Y-97757000D01*
X161007000Y-97787000D01*
X161015000Y-97800000D01*
X161306000Y-98145000D01*
X161395000Y-98257000D01*
X161464000Y-98342000D01*
X161638000Y-98568000D01*
X161697000Y-98642000D01*
X165295000Y-98582000D01*
X165417000Y-98779000D01*
X165524000Y-98961000D01*
X165375000Y-98965000D01*
X164707000Y-98978000D01*
X164477000Y-98983000D01*
X163180000Y-99011000D01*
X162781000Y-99018000D01*
X162577000Y-99024000D01*
X162500000Y-99051000D01*
X162433000Y-99090000D01*
X162376000Y-99139000D01*
X162333000Y-99195000D01*
X162290000Y-99293000D01*
X162279000Y-99352000D01*
X162274000Y-99409000D01*
X162278000Y-99442000D01*
X162410000Y-99634000D01*
X162533000Y-99820000D01*
X162635000Y-99977000D01*
X162805000Y-100251000D01*
X162906000Y-100412000D01*
X163123000Y-100426000D01*
X163721000Y-100467000D01*
X163941000Y-100482000D01*
X164137000Y-100495000D01*
X164681000Y-100531000D01*
X164907000Y-100549000D01*
X165331000Y-100576000D01*
X165545000Y-100590000D01*
X166368000Y-100649000D01*
X166450000Y-100653000D01*
X166630000Y-101029000D01*
X166461000Y-101021000D01*
X166277000Y-101010000D01*
X165415000Y-100958000D01*
X165169000Y-100944000D01*
X164966000Y-100933000D01*
X163911000Y-100869000D01*
X163655000Y-100855000D01*
X163578000Y-100870000D01*
X163482000Y-100921000D01*
X163435000Y-100973000D01*
X163401000Y-101028000D01*
X163377000Y-101102000D01*
X163370000Y-101164000D01*
X163377000Y-101212000D01*
X163390000Y-101254000D01*
X163424000Y-101310000D01*
X163649000Y-101741000D01*
X163776000Y-101994000D01*
X163916000Y-102287000D01*
X164431000Y-102380000D01*
X165181000Y-102513000D01*
X165388000Y-102549000D01*
X166026000Y-102665000D01*
X166371000Y-102724000D01*
X166938000Y-102827000D01*
X167279000Y-102890000D01*
X167420000Y-102914000D01*
X167482000Y-103085000D01*
X167561000Y-103316000D01*
X167372000Y-103282000D01*
X167184000Y-103248000D01*
X166891000Y-103191000D01*
X166727000Y-103162000D01*
X166527000Y-103126000D01*
X166027000Y-103035000D01*
X165748000Y-102980000D01*
X165582000Y-102951000D01*
X165399000Y-102917000D01*
X165221000Y-102885000D01*
X165027000Y-102847000D01*
X164716000Y-102791000D01*
X164629000Y-102774000D01*
X164576000Y-102777000D01*
X164523000Y-102790000D01*
X164455000Y-102816000D01*
X164404000Y-102854000D01*
X164352000Y-102904000D01*
X164324000Y-102955000D01*
X164296000Y-103028000D01*
X164289000Y-103079000D01*
X164289000Y-103126000D01*
X164299000Y-103148000D01*
X164305000Y-103164000D01*
X163454000Y-103478000D01*
X163417000Y-103384000D01*
X163306000Y-103134000D01*
X163257000Y-103020000D01*
X162949000Y-102368000D01*
X162880000Y-102229000D01*
X162597000Y-101695000D01*
X162403000Y-101342000D01*
X162322000Y-101202000D01*
X161867000Y-100457000D01*
X161770000Y-100306000D01*
X161660000Y-100143000D01*
X161414000Y-99781000D01*
X161250000Y-99560000D01*
X161040000Y-99274000D01*
X160749000Y-98905000D01*
X160593000Y-98703000D01*
X160504000Y-98601000D01*
X160378000Y-98450000D01*
X160227000Y-98272000D01*
X160135000Y-98163000D01*
X160015000Y-98032000D01*
X159868000Y-97869000D01*
X159590000Y-97569000D01*
X159449000Y-97427000D01*
X159291000Y-97267000D01*
X159023000Y-97005000D01*
X158706000Y-96705000D01*
X158552000Y-96566000D01*
X158067000Y-96149000D01*
X157835000Y-95951000D01*
X157618000Y-95779000D01*
X157442000Y-95645000D01*
X157388000Y-95601000D01*
X157356000Y-95577000D01*
X157991000Y-94913000D01*
X158013000Y-94940000D01*
X158026000Y-94950000D01*
X158370000Y-95221000D01*
X158543000Y-95359000D01*
X158676000Y-95474000D01*
X158709000Y-95498000D01*
X158761000Y-95522000D01*
X158843000Y-95549000D01*
X158940000Y-95564000D01*
X159030000Y-95567000D01*
X159093000Y-95559000D01*
X159168000Y-95541000D01*
X159199000Y-95531000D01*
X162292000Y-94757000D01*
X162581000Y-95061000D01*
G37*
X162581000Y-95061000D02*
X159795000Y-95734000D01*
X159725000Y-95767000D01*
X159653000Y-95822000D01*
X159600000Y-95888000D01*
X159561000Y-95965000D01*
X159542000Y-96062000D01*
X159547000Y-96170000D01*
X159568000Y-96244000D01*
X159594000Y-96301000D01*
X159612000Y-96314000D01*
X159964000Y-96659000D01*
X160113000Y-96808000D01*
X160264000Y-96965000D01*
X160368000Y-97078000D01*
X160668000Y-97042000D01*
X161098000Y-96988000D01*
X162326000Y-96839000D01*
X162578000Y-96807000D01*
X162910000Y-96771000D01*
X163179000Y-96735000D01*
X163935000Y-96645000D01*
X164082000Y-96838000D01*
X164163000Y-96942000D01*
X164190000Y-96981000D01*
X164065000Y-96995000D01*
X163875000Y-97014000D01*
X163196000Y-97087000D01*
X162844000Y-97125000D01*
X162212000Y-97190000D01*
X161876000Y-97228000D01*
X161560000Y-97261000D01*
X161316000Y-97286000D01*
X161211000Y-97313000D01*
X161113000Y-97378000D01*
X161044000Y-97456000D01*
X161006000Y-97534000D01*
X160979000Y-97634000D01*
X160985000Y-97695000D01*
X160991000Y-97757000D01*
X161007000Y-97787000D01*
X161015000Y-97800000D01*
X161306000Y-98145000D01*
X161395000Y-98257000D01*
X161464000Y-98342000D01*
X161638000Y-98568000D01*
X161697000Y-98642000D01*
X165295000Y-98582000D01*
X165417000Y-98779000D01*
X165524000Y-98961000D01*
X165375000Y-98965000D01*
X164707000Y-98978000D01*
X164477000Y-98983000D01*
X163180000Y-99011000D01*
X162781000Y-99018000D01*
X162577000Y-99024000D01*
X162500000Y-99051000D01*
X162433000Y-99090000D01*
X162376000Y-99139000D01*
X162333000Y-99195000D01*
X162290000Y-99293000D01*
X162279000Y-99352000D01*
X162274000Y-99409000D01*
X162278000Y-99442000D01*
X162410000Y-99634000D01*
X162533000Y-99820000D01*
X162635000Y-99977000D01*
X162805000Y-100251000D01*
X162906000Y-100412000D01*
X163123000Y-100426000D01*
X163721000Y-100467000D01*
X163941000Y-100482000D01*
X164137000Y-100495000D01*
X164681000Y-100531000D01*
X164907000Y-100549000D01*
X165331000Y-100576000D01*
X165545000Y-100590000D01*
X166368000Y-100649000D01*
X166450000Y-100653000D01*
X166630000Y-101029000D01*
X166461000Y-101021000D01*
X166277000Y-101010000D01*
X165415000Y-100958000D01*
X165169000Y-100944000D01*
X164966000Y-100933000D01*
X163911000Y-100869000D01*
X163655000Y-100855000D01*
X163578000Y-100870000D01*
X163482000Y-100921000D01*
X163435000Y-100973000D01*
X163401000Y-101028000D01*
X163377000Y-101102000D01*
X163370000Y-101164000D01*
X163377000Y-101212000D01*
X163390000Y-101254000D01*
X163424000Y-101310000D01*
X163649000Y-101741000D01*
X163776000Y-101994000D01*
X163916000Y-102287000D01*
X164431000Y-102380000D01*
X165181000Y-102513000D01*
X165388000Y-102549000D01*
X166026000Y-102665000D01*
X166371000Y-102724000D01*
X166938000Y-102827000D01*
X167279000Y-102890000D01*
X167420000Y-102914000D01*
X167482000Y-103085000D01*
X167561000Y-103316000D01*
X167372000Y-103282000D01*
X167184000Y-103248000D01*
X166891000Y-103191000D01*
X166727000Y-103162000D01*
X166527000Y-103126000D01*
X166027000Y-103035000D01*
X165748000Y-102980000D01*
X165582000Y-102951000D01*
X165399000Y-102917000D01*
X165221000Y-102885000D01*
X165027000Y-102847000D01*
X164716000Y-102791000D01*
X164629000Y-102774000D01*
X164576000Y-102777000D01*
X164523000Y-102790000D01*
X164455000Y-102816000D01*
X164404000Y-102854000D01*
X164352000Y-102904000D01*
X164324000Y-102955000D01*
X164296000Y-103028000D01*
X164289000Y-103079000D01*
X164289000Y-103126000D01*
X164299000Y-103148000D01*
X164305000Y-103164000D01*
X163454000Y-103478000D01*
X163417000Y-103384000D01*
X163306000Y-103134000D01*
X163257000Y-103020000D01*
X162949000Y-102368000D01*
X162880000Y-102229000D01*
X162597000Y-101695000D01*
X162403000Y-101342000D01*
X162322000Y-101202000D01*
X161867000Y-100457000D01*
X161770000Y-100306000D01*
X161660000Y-100143000D01*
X161414000Y-99781000D01*
X161250000Y-99560000D01*
X161040000Y-99274000D01*
X160749000Y-98905000D01*
X160593000Y-98703000D01*
X160504000Y-98601000D01*
X160378000Y-98450000D01*
X160227000Y-98272000D01*
X160135000Y-98163000D01*
X160015000Y-98032000D01*
X159868000Y-97869000D01*
X159590000Y-97569000D01*
X159449000Y-97427000D01*
X159291000Y-97267000D01*
X159023000Y-97005000D01*
X158706000Y-96705000D01*
X158552000Y-96566000D01*
X158067000Y-96149000D01*
X157835000Y-95951000D01*
X157618000Y-95779000D01*
X157442000Y-95645000D01*
X157388000Y-95601000D01*
X157356000Y-95577000D01*
X157991000Y-94913000D01*
X158013000Y-94940000D01*
X158026000Y-94950000D01*
X158370000Y-95221000D01*
X158543000Y-95359000D01*
X158676000Y-95474000D01*
X158709000Y-95498000D01*
X158761000Y-95522000D01*
X158843000Y-95549000D01*
X158940000Y-95564000D01*
X159030000Y-95567000D01*
X159093000Y-95559000D01*
X159168000Y-95541000D01*
X159199000Y-95531000D01*
X162292000Y-94757000D01*
X162581000Y-95061000D01*
G36*
X164509000Y-88736000D02*
G01*
X164417000Y-88819000D01*
X164205000Y-89011000D01*
X163215000Y-89924000D01*
X162804000Y-90299000D01*
X162328000Y-90737000D01*
X162256000Y-90795000D01*
X162170000Y-90894000D01*
X162114000Y-90973000D01*
X162072000Y-91051000D01*
X162030000Y-91158000D01*
X162006000Y-91252000D01*
X161991000Y-91333000D01*
X161989000Y-91421000D01*
X161989000Y-91482000D01*
X162009000Y-91608000D01*
X162034000Y-91687000D01*
X162058000Y-91764000D01*
X162128000Y-91893000D01*
X162174000Y-91953000D01*
X162222000Y-92013000D01*
X162263000Y-92051000D01*
X162409000Y-92174000D01*
X162565000Y-92317000D01*
X162766000Y-92505000D01*
X162937000Y-92662000D01*
X163067000Y-92788000D01*
X163173000Y-92894000D01*
X163314000Y-93029000D01*
X163407000Y-93119000D01*
X163516000Y-93230000D01*
X163589000Y-93305000D01*
X163726000Y-93448000D01*
X163829000Y-93551000D01*
X163939000Y-93670000D01*
X164044000Y-93778000D01*
X164144000Y-93888000D01*
X164299000Y-94056000D01*
X164358000Y-94120000D01*
X164414000Y-94162000D01*
X164482000Y-94203000D01*
X164602000Y-94249000D01*
X164700000Y-94259000D01*
X164786000Y-94256000D01*
X164871000Y-94238000D01*
X164933000Y-94217000D01*
X165021000Y-94169000D01*
X165077000Y-94125000D01*
X165124000Y-94079000D01*
X165160000Y-94047000D01*
X165315000Y-93903000D01*
X165659000Y-93584000D01*
X165854000Y-93406000D01*
X166363000Y-92933000D01*
X166629000Y-92690000D01*
X166971000Y-92368000D01*
X167194000Y-92163000D01*
X167550000Y-91830000D01*
X167637000Y-91756000D01*
X169010000Y-93095000D01*
X168901000Y-93199000D01*
X168706000Y-93379000D01*
X168377000Y-93685000D01*
X168211000Y-93830000D01*
X168024000Y-94004000D01*
X167397000Y-94578000D01*
X167249000Y-94717000D01*
X166826000Y-95104000D01*
X166631000Y-95286000D01*
X166370000Y-95525000D01*
X166239000Y-95643000D01*
X166165000Y-95713000D01*
X166120000Y-95772000D01*
X166099000Y-95815000D01*
X166070000Y-95885000D01*
X166053000Y-95949000D01*
X166042000Y-96014000D01*
X166046000Y-96128000D01*
X166056000Y-96175000D01*
X166067000Y-96213000D01*
X166103000Y-96305000D01*
X166136000Y-96356000D01*
X166173000Y-96402000D01*
X166193000Y-96425000D01*
X166526000Y-96910000D01*
X166649000Y-97095000D01*
X166734000Y-97225000D01*
X166927000Y-97528000D01*
X167075000Y-97768000D01*
X167199000Y-97972000D01*
X167348000Y-98224000D01*
X167524000Y-98536000D01*
X167661000Y-98773000D01*
X167795000Y-99018000D01*
X167897000Y-99213000D01*
X167978000Y-99368000D01*
X168128000Y-99662000D01*
X168225000Y-99855000D01*
X168495000Y-100423000D01*
X168606000Y-100679000D01*
X168954000Y-101497000D01*
X169044000Y-101710000D01*
X169254000Y-102258000D01*
X169339000Y-102512000D01*
X169492000Y-102949000D01*
X169605000Y-103297000D01*
X169792000Y-103918000D01*
X170024000Y-104751000D01*
X170122000Y-105181000D01*
X170222000Y-105609000D01*
X170328000Y-106129000D01*
X170328000Y-106188000D01*
X170334000Y-111518000D01*
X170252000Y-111573000D01*
X170171000Y-111617000D01*
X170068000Y-111654000D01*
X169994000Y-111673000D01*
X169920000Y-111683000D01*
X169861000Y-111690000D01*
X169801000Y-111689000D01*
X169604000Y-111690000D01*
X169615000Y-111197000D01*
X169617000Y-110693000D01*
X169613000Y-110475000D01*
X169575000Y-109478000D01*
X169563000Y-109203000D01*
X169538000Y-108960000D01*
X169471000Y-108237000D01*
X169428000Y-107899000D01*
X169319000Y-107143000D01*
X169179000Y-106345000D01*
X169116000Y-106020000D01*
X168991000Y-105467000D01*
X168904000Y-105097000D01*
X168862000Y-105034000D01*
X168773000Y-104939000D01*
X168710000Y-104875000D01*
X168610000Y-104801000D01*
X168510000Y-104740000D01*
X168459000Y-104720000D01*
X165441000Y-103891000D01*
X165377000Y-103710000D01*
X165317000Y-103556000D01*
X165283000Y-103465000D01*
X165376000Y-103487000D01*
X165804000Y-103590000D01*
X166178000Y-103680000D01*
X167390000Y-103971000D01*
X167844000Y-104080000D01*
X168148000Y-104153000D01*
X168231000Y-104151000D01*
X168322000Y-104122000D01*
X168413000Y-104068000D01*
X168468000Y-104007000D01*
X168509000Y-103943000D01*
X168527000Y-103884000D01*
X168537000Y-103817000D01*
X168536000Y-103783000D01*
X168526000Y-103751000D01*
X168443000Y-103487000D01*
X168278000Y-103001000D01*
X168127000Y-102578000D01*
X168077000Y-102528000D01*
X168006000Y-102467000D01*
X167925000Y-102411000D01*
X167847000Y-102368000D01*
X167771000Y-102328000D01*
X167705000Y-102311000D01*
X167685000Y-102305000D01*
X164582000Y-101828000D01*
X164510000Y-101677000D01*
X164421000Y-101503000D01*
X164392000Y-101442000D01*
X164501000Y-101458000D01*
X164711000Y-101486000D01*
X165641000Y-101621000D01*
X165927000Y-101660000D01*
X166437000Y-101733000D01*
X166735000Y-101775000D01*
X167027000Y-101817000D01*
X167249000Y-101849000D01*
X167362000Y-101840000D01*
X167457000Y-101805000D01*
X167535000Y-101751000D01*
X167624000Y-101654000D01*
X167676000Y-101538000D01*
X167684000Y-101506000D01*
X167687000Y-101477000D01*
X167667000Y-101432000D01*
X167097000Y-100205000D01*
X167066000Y-100178000D01*
X167017000Y-100141000D01*
X166909000Y-100086000D01*
X166853000Y-100065000D01*
X166786000Y-100048000D01*
X166725000Y-100042000D01*
X166688000Y-100041000D01*
X166630000Y-100041000D01*
X163552000Y-99936000D01*
X163479000Y-99820000D01*
X163402000Y-99699000D01*
X163337000Y-99594000D01*
X163475000Y-99596000D01*
X163564000Y-99597000D01*
X164840000Y-99611000D01*
X165373000Y-99620000D01*
X166249000Y-99630000D01*
X166347000Y-99616000D01*
X166438000Y-99574000D01*
X166517000Y-99508000D01*
X166576000Y-99422000D01*
X166606000Y-99324000D01*
X166610000Y-99276000D01*
X166589000Y-99242000D01*
X166322000Y-98777000D01*
X165968000Y-98192000D01*
X165852000Y-98014000D01*
X165820000Y-97997000D01*
X165720000Y-97952000D01*
X165635000Y-97928000D01*
X165541000Y-97912000D01*
X165473000Y-97907000D01*
X165434000Y-97905000D01*
X165373000Y-97909000D01*
X164117000Y-97960000D01*
X163550000Y-97986000D01*
X162835000Y-98021000D01*
X162531000Y-98032000D01*
X162247000Y-98047000D01*
X162115000Y-97882000D01*
X161989000Y-97724000D01*
X162184000Y-97710000D01*
X162444000Y-97692000D01*
X163605000Y-97607000D01*
X164124000Y-97570000D01*
X164991000Y-97510000D01*
X165068000Y-97500000D01*
X165146000Y-97454000D01*
X165206000Y-97393000D01*
X165260000Y-97284000D01*
X165274000Y-97199000D01*
X165272000Y-97148000D01*
X165443000Y-96594000D01*
X164057000Y-95048000D01*
X161461000Y-92097000D01*
X158427000Y-89964000D01*
X155264000Y-88519000D01*
X155069000Y-88872000D01*
X154880000Y-88793000D01*
X154719000Y-88723000D01*
X154536000Y-88653000D01*
X154434000Y-88612000D01*
X154409000Y-88598000D01*
X154375000Y-88532000D01*
X154807000Y-87505000D01*
X154893000Y-87538000D01*
X155225000Y-87672000D01*
X155496000Y-87788000D01*
X155735000Y-87888000D01*
X156001000Y-88010000D01*
X156318000Y-88157000D01*
X156534000Y-88255000D01*
X156841000Y-88411000D01*
X156985000Y-88481000D01*
X157119000Y-88551000D01*
X157280000Y-88631000D01*
X157409000Y-88699000D01*
X157571000Y-88790000D01*
X157762000Y-88890000D01*
X157906000Y-88972000D01*
X158039000Y-89044000D01*
X158608000Y-89377000D01*
X158723000Y-89445000D01*
X158826000Y-89506000D01*
X159000000Y-89618000D01*
X159149000Y-89711000D01*
X159242000Y-89774000D01*
X159319000Y-89822000D01*
X159373000Y-89858000D01*
X159462000Y-89914000D01*
X159558000Y-89973000D01*
X159605000Y-90007000D01*
X159666000Y-90046000D01*
X159736000Y-90074000D01*
X159796000Y-90091000D01*
X159878000Y-90105000D01*
X159973000Y-90111000D01*
X160087000Y-90099000D01*
X160186000Y-90073000D01*
X160297000Y-90018000D01*
X160379000Y-89958000D01*
X160575000Y-89779000D01*
X160766000Y-89602000D01*
X160976000Y-89416000D01*
X161420000Y-89005000D01*
X161694000Y-88755000D01*
X162200000Y-88286000D01*
X162444000Y-88062000D01*
X162673000Y-87853000D01*
X162860000Y-87682000D01*
X163135000Y-87417000D01*
X164509000Y-88736000D01*
G37*
X164509000Y-88736000D02*
X164417000Y-88819000D01*
X164205000Y-89011000D01*
X163215000Y-89924000D01*
X162804000Y-90299000D01*
X162328000Y-90737000D01*
X162256000Y-90795000D01*
X162170000Y-90894000D01*
X162114000Y-90973000D01*
X162072000Y-91051000D01*
X162030000Y-91158000D01*
X162006000Y-91252000D01*
X161991000Y-91333000D01*
X161989000Y-91421000D01*
X161989000Y-91482000D01*
X162009000Y-91608000D01*
X162034000Y-91687000D01*
X162058000Y-91764000D01*
X162128000Y-91893000D01*
X162174000Y-91953000D01*
X162222000Y-92013000D01*
X162263000Y-92051000D01*
X162409000Y-92174000D01*
X162565000Y-92317000D01*
X162766000Y-92505000D01*
X162937000Y-92662000D01*
X163067000Y-92788000D01*
X163173000Y-92894000D01*
X163314000Y-93029000D01*
X163407000Y-93119000D01*
X163516000Y-93230000D01*
X163589000Y-93305000D01*
X163726000Y-93448000D01*
X163829000Y-93551000D01*
X163939000Y-93670000D01*
X164044000Y-93778000D01*
X164144000Y-93888000D01*
X164299000Y-94056000D01*
X164358000Y-94120000D01*
X164414000Y-94162000D01*
X164482000Y-94203000D01*
X164602000Y-94249000D01*
X164700000Y-94259000D01*
X164786000Y-94256000D01*
X164871000Y-94238000D01*
X164933000Y-94217000D01*
X165021000Y-94169000D01*
X165077000Y-94125000D01*
X165124000Y-94079000D01*
X165160000Y-94047000D01*
X165315000Y-93903000D01*
X165659000Y-93584000D01*
X165854000Y-93406000D01*
X166363000Y-92933000D01*
X166629000Y-92690000D01*
X166971000Y-92368000D01*
X167194000Y-92163000D01*
X167550000Y-91830000D01*
X167637000Y-91756000D01*
X169010000Y-93095000D01*
X168901000Y-93199000D01*
X168706000Y-93379000D01*
X168377000Y-93685000D01*
X168211000Y-93830000D01*
X168024000Y-94004000D01*
X167397000Y-94578000D01*
X167249000Y-94717000D01*
X166826000Y-95104000D01*
X166631000Y-95286000D01*
X166370000Y-95525000D01*
X166239000Y-95643000D01*
X166165000Y-95713000D01*
X166120000Y-95772000D01*
X166099000Y-95815000D01*
X166070000Y-95885000D01*
X166053000Y-95949000D01*
X166042000Y-96014000D01*
X166046000Y-96128000D01*
X166056000Y-96175000D01*
X166067000Y-96213000D01*
X166103000Y-96305000D01*
X166136000Y-96356000D01*
X166173000Y-96402000D01*
X166193000Y-96425000D01*
X166526000Y-96910000D01*
X166649000Y-97095000D01*
X166734000Y-97225000D01*
X166927000Y-97528000D01*
X167075000Y-97768000D01*
X167199000Y-97972000D01*
X167348000Y-98224000D01*
X167524000Y-98536000D01*
X167661000Y-98773000D01*
X167795000Y-99018000D01*
X167897000Y-99213000D01*
X167978000Y-99368000D01*
X168128000Y-99662000D01*
X168225000Y-99855000D01*
X168495000Y-100423000D01*
X168606000Y-100679000D01*
X168954000Y-101497000D01*
X169044000Y-101710000D01*
X169254000Y-102258000D01*
X169339000Y-102512000D01*
X169492000Y-102949000D01*
X169605000Y-103297000D01*
X169792000Y-103918000D01*
X170024000Y-104751000D01*
X170122000Y-105181000D01*
X170222000Y-105609000D01*
X170328000Y-106129000D01*
X170328000Y-106188000D01*
X170334000Y-111518000D01*
X170252000Y-111573000D01*
X170171000Y-111617000D01*
X170068000Y-111654000D01*
X169994000Y-111673000D01*
X169920000Y-111683000D01*
X169861000Y-111690000D01*
X169801000Y-111689000D01*
X169604000Y-111690000D01*
X169615000Y-111197000D01*
X169617000Y-110693000D01*
X169613000Y-110475000D01*
X169575000Y-109478000D01*
X169563000Y-109203000D01*
X169538000Y-108960000D01*
X169471000Y-108237000D01*
X169428000Y-107899000D01*
X169319000Y-107143000D01*
X169179000Y-106345000D01*
X169116000Y-106020000D01*
X168991000Y-105467000D01*
X168904000Y-105097000D01*
X168862000Y-105034000D01*
X168773000Y-104939000D01*
X168710000Y-104875000D01*
X168610000Y-104801000D01*
X168510000Y-104740000D01*
X168459000Y-104720000D01*
X165441000Y-103891000D01*
X165377000Y-103710000D01*
X165317000Y-103556000D01*
X165283000Y-103465000D01*
X165376000Y-103487000D01*
X165804000Y-103590000D01*
X166178000Y-103680000D01*
X167390000Y-103971000D01*
X167844000Y-104080000D01*
X168148000Y-104153000D01*
X168231000Y-104151000D01*
X168322000Y-104122000D01*
X168413000Y-104068000D01*
X168468000Y-104007000D01*
X168509000Y-103943000D01*
X168527000Y-103884000D01*
X168537000Y-103817000D01*
X168536000Y-103783000D01*
X168526000Y-103751000D01*
X168443000Y-103487000D01*
X168278000Y-103001000D01*
X168127000Y-102578000D01*
X168077000Y-102528000D01*
X168006000Y-102467000D01*
X167925000Y-102411000D01*
X167847000Y-102368000D01*
X167771000Y-102328000D01*
X167705000Y-102311000D01*
X167685000Y-102305000D01*
X164582000Y-101828000D01*
X164510000Y-101677000D01*
X164421000Y-101503000D01*
X164392000Y-101442000D01*
X164501000Y-101458000D01*
X164711000Y-101486000D01*
X165641000Y-101621000D01*
X165927000Y-101660000D01*
X166437000Y-101733000D01*
X166735000Y-101775000D01*
X167027000Y-101817000D01*
X167249000Y-101849000D01*
X167362000Y-101840000D01*
X167457000Y-101805000D01*
X167535000Y-101751000D01*
X167624000Y-101654000D01*
X167676000Y-101538000D01*
X167684000Y-101506000D01*
X167687000Y-101477000D01*
X167667000Y-101432000D01*
X167097000Y-100205000D01*
X167066000Y-100178000D01*
X167017000Y-100141000D01*
X166909000Y-100086000D01*
X166853000Y-100065000D01*
X166786000Y-100048000D01*
X166725000Y-100042000D01*
X166688000Y-100041000D01*
X166630000Y-100041000D01*
X163552000Y-99936000D01*
X163479000Y-99820000D01*
X163402000Y-99699000D01*
X163337000Y-99594000D01*
X163475000Y-99596000D01*
X163564000Y-99597000D01*
X164840000Y-99611000D01*
X165373000Y-99620000D01*
X166249000Y-99630000D01*
X166347000Y-99616000D01*
X166438000Y-99574000D01*
X166517000Y-99508000D01*
X166576000Y-99422000D01*
X166606000Y-99324000D01*
X166610000Y-99276000D01*
X166589000Y-99242000D01*
X166322000Y-98777000D01*
X165968000Y-98192000D01*
X165852000Y-98014000D01*
X165820000Y-97997000D01*
X165720000Y-97952000D01*
X165635000Y-97928000D01*
X165541000Y-97912000D01*
X165473000Y-97907000D01*
X165434000Y-97905000D01*
X165373000Y-97909000D01*
X164117000Y-97960000D01*
X163550000Y-97986000D01*
X162835000Y-98021000D01*
X162531000Y-98032000D01*
X162247000Y-98047000D01*
X162115000Y-97882000D01*
X161989000Y-97724000D01*
X162184000Y-97710000D01*
X162444000Y-97692000D01*
X163605000Y-97607000D01*
X164124000Y-97570000D01*
X164991000Y-97510000D01*
X165068000Y-97500000D01*
X165146000Y-97454000D01*
X165206000Y-97393000D01*
X165260000Y-97284000D01*
X165274000Y-97199000D01*
X165272000Y-97148000D01*
X165443000Y-96594000D01*
X164057000Y-95048000D01*
X161461000Y-92097000D01*
X158427000Y-89964000D01*
X155264000Y-88519000D01*
X155069000Y-88872000D01*
X154880000Y-88793000D01*
X154719000Y-88723000D01*
X154536000Y-88653000D01*
X154434000Y-88612000D01*
X154409000Y-88598000D01*
X154375000Y-88532000D01*
X154807000Y-87505000D01*
X154893000Y-87538000D01*
X155225000Y-87672000D01*
X155496000Y-87788000D01*
X155735000Y-87888000D01*
X156001000Y-88010000D01*
X156318000Y-88157000D01*
X156534000Y-88255000D01*
X156841000Y-88411000D01*
X156985000Y-88481000D01*
X157119000Y-88551000D01*
X157280000Y-88631000D01*
X157409000Y-88699000D01*
X157571000Y-88790000D01*
X157762000Y-88890000D01*
X157906000Y-88972000D01*
X158039000Y-89044000D01*
X158608000Y-89377000D01*
X158723000Y-89445000D01*
X158826000Y-89506000D01*
X159000000Y-89618000D01*
X159149000Y-89711000D01*
X159242000Y-89774000D01*
X159319000Y-89822000D01*
X159373000Y-89858000D01*
X159462000Y-89914000D01*
X159558000Y-89973000D01*
X159605000Y-90007000D01*
X159666000Y-90046000D01*
X159736000Y-90074000D01*
X159796000Y-90091000D01*
X159878000Y-90105000D01*
X159973000Y-90111000D01*
X160087000Y-90099000D01*
X160186000Y-90073000D01*
X160297000Y-90018000D01*
X160379000Y-89958000D01*
X160575000Y-89779000D01*
X160766000Y-89602000D01*
X160976000Y-89416000D01*
X161420000Y-89005000D01*
X161694000Y-88755000D01*
X162200000Y-88286000D01*
X162444000Y-88062000D01*
X162673000Y-87853000D01*
X162860000Y-87682000D01*
X163135000Y-87417000D01*
X164509000Y-88736000D01*
M02*
