<?xml version="1.0" encoding="utf-8"?>
<svg width="189.9519930515" height="189.9519930515" viewBox="0 0 189.9519930515 189.9519930515" xmlns="http://www.w3.org/2000/svg">
  <path stroke-width="0.05291666667" fill="none" stroke="black" stroke-linecap="round" d="M -85.50548005917 46.03194578453 L -85.50548005917 -30.14684227485" />
  <path stroke-width="0.05291666667" fill="none" stroke="black" stroke-linecap="round" d="M -84.61988166528 -32.2848659282 L -69.19980511731 -47.70494247616" />
  <path stroke-width="0.05291666667" fill="none" stroke="black" stroke-linecap="round" d="M -67.06178146396 -48.59054087006 L 51.4495678649 -48.59054087006" />
  <path stroke-width="0.05291666667" fill="none" stroke="black" stroke-linecap="round" d="M 53.55716467743 -47.73494233754 L 85.53455251746 -16.64882162575" />
  <path stroke-width="0.05291666667" fill="none" stroke="black" stroke-linecap="round" d="M 86.45032387824 -14.48104493796 L 86.45032387824 46.03200244154" />
  <path stroke-width="0.05291666667" fill="none" stroke="black" stroke-linecap="round" d="M 83.426701831 49.05562448879 L 31.14259338053 49.05562448879" />
  <path stroke-width="0.05291666667" fill="none" stroke="black" stroke-linecap="round" d="M -47.1450387985 49.05556783177 L -82.48185801192 49.05556783177" />
  <path stroke-width="0.05291666667" fill="none" stroke="black" stroke-linecap="round" d="M -45.25609935394 47.10999260899 A 1.88976377953 1.88976377953 0 0 1 -47.1450387985 49.05556783177" />
  <path stroke-width="0.05291666667" fill="none" stroke="black" stroke-linecap="round" d="M -82.48185801192 49.05556783177 A 3.02362204724 3.02362204724 0 0 1 -85.50548005917 46.03194578453" />
  <path stroke-width="0.05291666667" fill="none" stroke="black" stroke-linecap="round" d="M -85.50548005917 -30.14684227485 A 3.02362204724 3.02362204724 0 0 1 -84.61988166528 -32.2848659282" />
  <path stroke-width="0.05291666667" fill="none" stroke="black" stroke-linecap="round" d="M -69.19980511731 -47.70494247616 A 3.02362204724 3.02362204724 0 0 1 -67.06178146396 -48.59054087006" />
  <path stroke-width="0.05291666667" fill="none" stroke="black" stroke-linecap="round" d="M 51.4495678649 -48.59054087006 A 3.02362204724 3.02362204724 0 0 1 53.55716467743 -47.73494233754" />
  <path stroke-width="0.05291666667" fill="none" stroke="black" stroke-linecap="round" d="M 85.53455251746 -16.64882162575 A 3.02362204724 3.02362204724 0 0 1 86.45032387824 -14.48104493796" />
  <path stroke-width="0.05291666667" fill="none" stroke="black" stroke-linecap="round" d="M 86.45032387824 46.03200244154 A 3.02362204724 3.02362204724 0 0 1 83.426701831 49.05562448879" />
  <path stroke-width="0.05291666667" fill="none" stroke="black" stroke-linecap="round" d="M 31.14259338053 49.05562448879 A 1.88976377953 1.88976377953 0 0 1 29.25365393596 47.11004926625" />
  <path stroke-width="0.05291666667" fill="none" stroke="black" stroke-linecap="round" d="M 68.74596585666 -23.83881706358 L 73.58182017196 -28.26840989189" />
  <path stroke-width="0.05291666667" fill="none" stroke="black" stroke-linecap="round" d="M 60.35296544185 -31.74405893803 L 65.27868752889 -36.34011934232" />
  <path stroke-width="0.05291666667" fill="none" stroke="black" stroke-linecap="round" d="M 68.74596585666 -23.83881706358 A 5.78305703932 5.78305703932 0 1 1 60.35296544185 -31.74405893803" />
  <circle stroke-width="0.05291666667" fill="none" stroke="black" stroke-linecap="round" cx="64.23532477828" cy="-27.45791443475" r="3.21186658904" />
  <circle stroke-width="0.05291666667" fill="none" stroke="black" stroke-linecap="round" cx="-76.61017470472" cy="37.79362993916" r="4.34334847529" />
  <path stroke-width="0.05291666667" fill="none" stroke="black" stroke-linecap="round" d="M -80.89769027706 46.41952941951 L -67.63169896885 46.41952941951" />
  <path stroke-width="0.05291666667" fill="none" stroke="black" stroke-linecap="round" d="M -67.63169896885 46.41952941951 L -67.63169896885 48.65608365517" />
  <path stroke-width="0.05291666667" fill="none" stroke="black" stroke-linecap="round" d="M -58.85422924372 48.65608365517 L -58.85422924372 46.4195071243" />
  <path stroke-width="0.05291666667" fill="none" stroke="black" stroke-linecap="round" d="M -58.85422924372 46.4195071243 L -52.75816879873 46.4195071243" />
  <path stroke-width="0.05291666667" fill="none" stroke="black" stroke-linecap="round" d="M -84.71301725217 43.02126380618 L -84.71301725217 32.6030650029" />
  <path stroke-width="0.05291666667" fill="none" stroke="black" stroke-linecap="round" d="M -81.20625015945 28.69556433787 L -77.87189236463 28.69556433787" />
  <path stroke-width="0.05291666667" fill="none" stroke="black" stroke-linecap="round" d="M -67.02029253275 31.4369562104 L -52.54395252138 31.4369562104" />
  <path stroke-width="0.05291666667" fill="none" stroke="black" stroke-linecap="round" d="M -49.55317429671 34.3925596222 L -49.55317429671 42.91491170569" />
  <path stroke-width="0.05291666667" fill="none" stroke="black" stroke-linecap="round" d="M -75.1054679002 25.25669360001 L -75.1054679002 15.78222123871" />
  <path stroke-width="0.05291666667" fill="none" stroke="black" stroke-linecap="round" d="M -72.19055687687 25.88050719879 L -72.19055687687 17.85715307248" />
  <path stroke-width="0.05291666667" fill="none" stroke="black" stroke-linecap="round" d="M -70.08866641151 23.8446793745 L -70.08866641151 17.63681263071" />
  <path stroke-width="0.05291666667" fill="none" stroke="black" stroke-linecap="round" d="M -66.49993149843 27.29180455422 L -53.2781966715 27.29180455422" />
  <path stroke-width="0.05291666667" fill="none" stroke="black" stroke-linecap="round" d="M -66.6767198603 14.18492085926 L -53.02192786234 14.18492085926" />
  <path stroke-width="0.05291666667" fill="none" stroke="black" stroke-linecap="round" d="M -49.55317633045 17.03781016804 L -49.55317633045 23.46109279134" />
  <path stroke-width="0.05291666667" fill="none" stroke="black" stroke-linecap="round" d="M -65.76343780891 11.38605262576 L -49.99729551193 11.38605262576" />
  <path stroke-width="0.05291666667" fill="none" stroke="black" stroke-linecap="round" d="M -67.38691458236 8.88189176151 L -47.40206103312 8.88189176151" />
  <path stroke-width="0.05291666667" fill="none" stroke="black" stroke-linecap="round" d="M -67.86829428233 6.5909642425 L -50.36360275714 6.5909642425" />
  <path stroke-width="0.05291666667" fill="none" stroke="black" stroke-linecap="round" d="M -72.62977292844 -3.68278556707 L -72.62977292844 2.36922526198" />
  <path stroke-width="0.05291666667" fill="none" stroke="black" stroke-linecap="round" d="M -69.73863409312 -6.5885609977 L -44.44004405111 -6.5885609977" />
  <path stroke-width="0.05291666667" fill="none" stroke="black" stroke-linecap="round" d="M -54.08093066909 -10.47745122734 L -69.08838067644 -10.47745122734" />
  <path stroke-width="0.05291666667" fill="none" stroke="black" stroke-linecap="round" d="M -72.62992609377 -13.88236350803 L -72.62992609377 -21.95295795731" />
  <path stroke-width="0.05291666667" fill="none" stroke="black" stroke-linecap="round" d="M -69.08757507776 -25.53602199905 L -34.56125182645 -25.53602199905" />
  <path stroke-width="0.05291666667" fill="none" stroke="black" stroke-linecap="round" d="M -28.61724666409 5.67088629531 L -23.52891857461 -4.78701399903" />
  <path stroke-width="0.05291666667" fill="none" stroke="black" stroke-linecap="round" d="M -20.47306774794 -5.62236482489 L -25.82762386036 4.36283134076" />
  <path stroke-width="0.05291666667" fill="none" stroke="black" stroke-linecap="round" d="M 36.81959299446 43.18036404017 L 45.32445234235 43.28900285122" />
  <path stroke-width="0.05291666667" fill="none" stroke="black" stroke-linecap="round" d="M 36.85812287205 39.69584614487 L 44.7379383217 39.68729719656" />
  <path stroke-width="0.05291666667" fill="none" stroke="black" stroke-linecap="round" d="M 47.6395813173 35.58154907207 L 48.204764456 39.10516521163" />
  <path stroke-width="0.05291666667" fill="none" stroke="black" stroke-linecap="round" d="M 47.6395813173 35.58154907207 L 55.46953865834 37.89726347715" />
  <path stroke-width="0.05291666667" fill="none" stroke="black" stroke-linecap="round" d="M 55.95503686694 47.99385347915 L 51.81490326805 47.99385347915" />
  <path stroke-width="0.05291666667" fill="none" stroke="black" stroke-linecap="round" d="M 51.81490326805 47.99385347915 L 51.81490326805 48.8887003578" />
  <path stroke-width="0.05291666667" fill="none" stroke="black" stroke-linecap="round" d="M 35.42665067934 48.8887003578 L 51.81490326805 48.8887003578" />
  <path stroke-width="0.05291666667" fill="none" stroke="black" stroke-linecap="round" d="M 35.42665067934 48.8887003578 L 35.42665067934 47.99385347915" />
  <path stroke-width="0.05291666667" fill="none" stroke="black" stroke-linecap="round" d="M 35.42665067934 47.99385347915 L 30.38591281154 47.99385347915" />
  <path stroke-width="0.05291666667" fill="none" stroke="black" stroke-linecap="round" d="M 64.86942981265 47.99568227052 L 68.97305475659 48.23393082484" />
  <path stroke-width="0.05291666667" fill="none" stroke="black" stroke-linecap="round" d="M 68.97305475659 48.23393082484 L 68.97305475659 48.89130378761" />
  <path stroke-width="0.05291666667" fill="none" stroke="black" stroke-linecap="round" d="M 68.97305475659 48.89130378761 L 74.72797313288 48.89130378761" />
  <path stroke-width="0.05291666667" fill="none" stroke="black" stroke-linecap="round" d="M 74.72797313288 48.19056949556 L 79.59561468356 48.19056949556" />
  <path stroke-width="0.05291666667" fill="none" stroke="black" stroke-linecap="round" d="M 85.2406038387 27.94199396584 L 85.2406038387 48.45123715422" />
  <path stroke-width="0.05291666667" fill="none" stroke="black" stroke-linecap="round" d="M 57.45497979304 34.42923088802 L 42.80172071596 30.50290195184" />
  <path stroke-width="0.05291666667" fill="none" stroke="black" stroke-linecap="round" d="M 60.29965335564 32.52421885001 L 54.17206905938 30.88233758627" />
  <path stroke-width="0.05291666667" fill="none" stroke="black" stroke-linecap="round" d="M 45.90494649549 28.66716877155 L 41.81244377245 27.57058597189" />
  <path stroke-width="0.05291666667" fill="none" stroke="black" stroke-linecap="round" d="M 80.51021731781 -21.53311959574 L 69.54478075963 -11.45953189397" />
  <path stroke-width="0.05291666667" fill="none" stroke="black" stroke-linecap="round" d="M 65.57871820469 -17.60108481045 L 75.29689856668 -26.60113380683" />
  <path stroke-width="0.05291666667" fill="none" stroke="black" stroke-linecap="round" d="M 55.01878004465 -30.24273843063 L 63.51854987562 -38.05119880362" />
  <path stroke-width="0.05291666667" fill="none" stroke="black" stroke-linecap="round" d="M 47.60079529463 -33.13600905965 L 58.38423971226 -43.04240653792" />
  <path stroke-width="0.05291666667" fill="none" stroke="black" stroke-linecap="round" d="M -68.73124844132 -44.50585696427 L 20.764459762 -44.50585696427" />
  <path stroke-width="0.05291666667" fill="none" stroke="black" stroke-linecap="round" d="M -72.62977292843 -40.59433377287 L -72.62977292843 -32.45386762668" />
  <path stroke-width="0.05291666667" fill="none" stroke="black" stroke-linecap="round" d="M -69.31486558413 -29.23980120384 L -53.02192786234 -29.23980120384" />
  <path stroke-width="0.05291666667" fill="none" stroke="black" stroke-linecap="round" d="M -49.55317633045 -32.70441521144 L -49.55317633045 -33.32021959884" />
  <path stroke-width="0.05291666667" fill="none" stroke="black" stroke-linecap="round" d="M -49.55317633045 -33.32021959884 L -8.00122187201 -33.32021959884" />
  <path stroke-width="0.05291666667" fill="none" stroke="black" stroke-linecap="round" d="M -49.55317429671 42.91491170569 A 3.30560122723 3.30560122723 0 0 1 -52.75816879873 46.4195071243" />
  <path stroke-width="0.05291666667" fill="none" stroke="black" stroke-linecap="round" d="M -44.7445777991 34.72129713352 A 1.97437055451 1.97437055451 0 0 1 -48.37092421777 33.36343221637" />
  <path stroke-width="0.05291666667" fill="none" stroke="black" stroke-linecap="round" d="M -44.46991615347 24.56944849524 A 2.74268713543 2.74268713543 0 0 1 -49.55317633045 23.46109279134" />
  <path stroke-width="0.05291666667" fill="none" stroke="black" stroke-linecap="round" d="M -53.2781966715 27.29180455422 A 5.86672340905 5.86672340905 0 0 1 -48.37092421777 33.36343221637" />
  <path stroke-width="0.05291666667" fill="none" stroke="black" stroke-linecap="round" d="M -67.63169896885 48.65608365517 L -58.85422924372 48.65608365517" />
  <path stroke-width="0.05291666667" fill="none" stroke="black" stroke-linecap="round" d="M -80.89769027706 46.41952941951 A 3.59807004113 3.59807004113 0 0 1 -84.71301725217 43.02126380618" />
  <path stroke-width="0.05291666667" fill="none" stroke="black" stroke-linecap="round" d="M -84.71301725217 32.6030650029 A 3.56117466429 3.56117466429 0 0 1 -81.20625015945 28.69556433787" />
  <path stroke-width="0.05291666667" fill="none" stroke="black" stroke-linecap="round" d="M -75.1054679002 25.25669360001 A 3.11982284275 3.11982284275 0 0 1 -77.87189236463 28.69556433787" />
  <path stroke-width="0.05291666667" fill="none" stroke="black" stroke-linecap="round" d="M -67.02029253275 31.4369562104 A 5.1836846596 5.1836846596 0 0 1 -72.19055687687 25.88050719879" />
  <path stroke-width="0.05291666667" fill="none" stroke="black" stroke-linecap="round" d="M -52.54395252138 31.4369562104 A 2.94092840164 2.94092840164 0 0 1 -49.55317429671 34.3925596222" />
  <path stroke-width="0.05291666667" fill="none" stroke="black" stroke-linecap="round" d="M -70.08866641151 17.63681263071 A 3.29965337279 3.29965337279 0 0 1 -66.6767198603 14.18492085926" />
  <path stroke-width="0.05291666667" fill="none" stroke="black" stroke-linecap="round" d="M -72.19055687687 17.85715307248 A 5.996348923 5.996348923 0 0 1 -65.76343780891 11.38605262576" />
  <path stroke-width="0.05291666667" fill="none" stroke="black" stroke-linecap="round" d="M -75.1054679002 15.78222123871 A 7.24461498802 7.24461498802 0 0 1 -67.38691458236 8.88189176151" />
  <path stroke-width="0.05291666667" fill="none" stroke="black" stroke-linecap="round" d="M -53.02192786234 14.18492085926 A 3.30148229731 3.30148229731 0 0 1 -49.55317633045 17.03781016804" />
  <path stroke-width="0.05291666667" fill="none" stroke="black" stroke-linecap="round" d="M -49.99729551193 11.38605262576 A 2.66556942498 2.66556942498 0 0 1 -47.21922618622 13.96963384841" />
  <path stroke-width="0.05291666667" fill="none" stroke="black" stroke-linecap="round" d="M -44.77422447881 7.68027314876 A 4.25240971638 4.25240971638 0 0 1 -47.40206103312 8.88189176151" />
  <path stroke-width="0.05291666667" fill="none" stroke="black" stroke-linecap="round" d="M -47.67275784152 5.60171510419 A 3.42679258803 3.42679258803 0 0 1 -50.36360275714 6.59096424249" />
  <path stroke-width="0.05291666667" fill="none" stroke="black" stroke-linecap="round" d="M -67.86829428233 6.5909642425 A 4.36073012079 4.36073012079 0 0 1 -72.62977292844 2.36922526198" />
  <path stroke-width="0.05291666667" fill="none" stroke="black" stroke-linecap="round" d="M -72.62977292844 -3.68278556707 A 2.75081853977 2.75081853977 0 0 1 -69.73863409312 -6.5885609977" />
  <path stroke-width="0.05291666667" fill="none" stroke="black" stroke-linecap="round" d="M -69.08838067644 -10.47745122734 A 3.20330590367 3.20330590367 0 0 1 -72.62992609377 -13.88236350803" />
  <path stroke-width="0.05291666667" fill="none" stroke="black" stroke-linecap="round" d="M -72.62992609377 -21.95295795731 A 3.19570353685 3.19570353685 0 0 1 -69.08757507776 -25.53602199905" />
  <path stroke-width="0.05291666667" fill="none" stroke="black" stroke-linecap="round" d="M -69.31486558413 -29.23980120384 A 3.02092061707 3.02092061707 0 0 1 -72.62977292843 -32.45386762668" />
  <path stroke-width="0.05291666667" fill="none" stroke="black" stroke-linecap="round" d="M -49.55317633045 -32.70441521144 A 3.29264849615 3.29264849615 0 0 1 -53.02192786234 -29.23980120384" />
  <path stroke-width="0.05291666667" fill="none" stroke="black" stroke-linecap="round" d="M -72.62977292843 -40.59433377287 A 3.79505967214 3.79505967214 0 0 1 -68.73124844132 -44.50585696427" />
  <path stroke-width="0.05291666667" fill="none" stroke="black" stroke-linecap="round" d="M 36.81959299446 43.18036404017 A 3.00626456762 3.00626456762 0 0 1 33.92117956155 40.33805473139" />
  <path stroke-width="0.05291666667" fill="none" stroke="black" stroke-linecap="round" d="M 48.204764456 39.10516521163 A 3.52837186992 3.52837186992 0 0 1 45.32445234235 43.28900285122" />
  <path stroke-width="0.05291666667" fill="none" stroke="black" stroke-linecap="round" d="M 47.60079529463 -33.13600905965 A 2.47870171701 2.47870171701 0 0 1 44.53777950697 -33.11159506929" />
  <path stroke-width="0.05291666667" fill="none" stroke="black" stroke-linecap="round" d="M 55.03461349581 -25.03257381763 A 3.25363141221 3.25363141221 0 0 1 55.01878004465 -30.24273843063" />
  <path stroke-width="0.05291666667" fill="none" stroke="black" stroke-linecap="round" d="M 65.57871820469 -17.60108481045 A 2.0552190766 2.0552190766 0 0 1 62.48323226851 -17.64921937651" />
  <path stroke-width="0.05291666667" fill="none" stroke="black" stroke-linecap="round" d="M 69.58852175254 -8.76567394096 A 1.99138047031 1.99138047031 0 0 1 69.54478075963 -11.45953189397" />
  <path stroke-width="0.05291666667" fill="none" stroke="black" stroke-linecap="round" d="M -45.25609935394 47.10999260899 A 37.27113387115 37.27113387115 0 1 1 29.25365393596 47.11004926625" />
  <path stroke-width="0.05291666667" fill="none" stroke="black" stroke-linecap="round" d="M -44.7445777991 34.72129713352 A 38.43827675246 38.43827675246 0 0 1 30.38591281154 47.99385347915" />
  <path stroke-width="0.05291666667" fill="none" stroke="black" stroke-linecap="round" d="M -44.46991615347 24.56944849524 A 42.30413110458 42.30413110458 0 0 1 33.92117956155 40.33805473139" />
  <path stroke-width="0.05291666667" fill="none" stroke="black" stroke-linecap="round" d="M -25.82762386036 4.36283134076 A 45.30130722185 45.30130722185 0 0 1 36.85812287205 39.69584614487" />
  <path stroke-width="0.05291666667" fill="none" stroke="black" stroke-linecap="round" d="M -46.70505275138 22.46752887866 A 45.30130722185 45.30130722185 0 0 1 -28.61724666409 5.67088629531" />
  <path stroke-width="0.05291666667" fill="none" stroke="black" stroke-linecap="round" d="M -47.21922618622 13.96963384841 L -47.21922618622 22.32361511401" />
  <path stroke-width="0.05291666667" fill="none" stroke="black" stroke-linecap="round" d="M -46.70505275138 22.46752887866 A 0.30711467423 0.30711467423 0 0 1 -47.21922618622 22.32361511401" />
  <path stroke-width="0.05291666667" fill="none" stroke="black" stroke-linecap="round" d="M -47.67275784152 5.60171510419 A 56.6269266191 56.6269266191 0 0 1 45.90494649549 28.66716877155" />
  <path stroke-width="0.05291666667" fill="none" stroke="black" stroke-linecap="round" d="M 42.80172071596 30.50290195184 A 53.11659509631 53.11659509631 0 0 1 44.7379383217 39.68729719656" />
  <path stroke-width="0.05291666667" fill="none" stroke="black" stroke-linecap="round" d="M -20.47306774794 -5.62236482489 A 53.11659509631 53.11659509631 0 0 1 41.81244377245 27.57058597189" />
  <path stroke-width="0.05291666667" fill="none" stroke="black" stroke-linecap="round" d="M -44.77422447881 7.68027314876 A 53.11659509631 53.11659509631 0 0 1 -23.52891857461 -4.78701399903" />
  <path stroke-width="0.05291666667" fill="none" stroke="black" stroke-linecap="round" d="M -44.44004405111 -6.5885609977 A 63.9869173647 63.9869173647 0 0 1 54.17206905938 30.88233758627" />
  <path stroke-width="0.05291666667" fill="none" stroke="black" stroke-linecap="round" d="M 55.46953865834 37.89726347715 A 63.9869173647 63.9869173647 0 0 1 55.95503686694 47.99385347915" />
  <path stroke-width="0.05291666667" fill="none" stroke="black" stroke-linecap="round" d="M 57.45497979304 34.42923088802 A 66.47250885386 66.47250885386 0 0 1 58.40133308002 49.06077637907" />
  <path stroke-width="0.05291666667" fill="none" stroke="black" stroke-linecap="round" d="M 60.29965335564 32.52421885001 A 69.61923670745 69.61923670745 0 0 1 61.5512316071 49.06077637907" />
  <path stroke-width="0.05291666667" fill="none" stroke="black" stroke-linecap="round" d="M -54.08093066909 -10.47745122734 A 72.89774912887 72.89774912887 0 0 1 64.86942981265 47.99568227052" />
  <path stroke-width="0.05291666667" fill="none" stroke="black" stroke-linecap="round" d="M 69.58852175254 -8.76567394096 A 94.97599652575 94.97599652575 0 0 1 85.2406038387 27.94199396584" />
  <path stroke-width="0.05291666667" fill="none" stroke="black" stroke-linecap="round" d="M 20.764459762 -44.50585696427 A 94.97599652575 94.97599652575 0 0 1 44.53777950697 -33.11159506929" />
  <path stroke-width="0.05291666667" fill="none" stroke="black" stroke-linecap="round" d="M 55.03461349581 -25.03257381763 A 94.97599652575 94.97599652575 0 0 1 62.48323226851 -17.64921937651" />
  <path stroke-width="0.05291666667" fill="none" stroke="black" stroke-linecap="round" d="M -66.49993149843 27.29180455422 A 3.59164361462 3.59164361462 0 0 1 -70.08866641151 23.8446793745" />
  <path stroke-width="0.05291666667" fill="none" stroke="black" stroke-linecap="round" d="M 64.12877836062 21.08060829733 L 76.94853270976 24.52660483413" />
  <path stroke-width="0.05291666667" fill="none" stroke="black" stroke-linecap="round" d="M 78.22361959875 22.63120026456 L 66.7680513909 19.48643471099" />
  <path stroke-width="0.05291666667" fill="none" stroke="black" stroke-linecap="round" d="M 66.17664716989 17.87479536139 L 76.86012390678 20.44362165707" />
  <path stroke-width="0.05291666667" fill="none" stroke="black" stroke-linecap="round" d="M 74.79161707822 17.3157407992 L 63.74297282119 15.27390153612" />
  <path stroke-width="0.05291666667" fill="none" stroke="black" stroke-linecap="round" d="M 75.30006195013 13.49740209929 L 63.52507599281 11.69130503563" />
  <path stroke-width="0.05291666667" fill="none" stroke="black" stroke-linecap="round" d="M 62.8031257021 10.2254987943 L 73.53302635221 11.75492467996" />
  <path stroke-width="0.05291666667" fill="none" stroke="black" stroke-linecap="round" d="M 74.24697410385 15.78995554571 L 61.01036015952 13.42743163004" />
  <path stroke-width="0.05291666667" fill="none" stroke="black" stroke-linecap="round" d="M 60.09854152185 8.01868888871 L 71.26754955293 8.66714694347" />
  <path stroke-width="0.05291666667" fill="none" stroke="black" stroke-linecap="round" d="M 70.58170764046 7.24465493685 L 57.19112113707 6.33392966079" />
  <path stroke-width="0.05291666667" fill="none" stroke="black" stroke-linecap="round" d="M 59.63142550501 4.54475816795 L 71.3153084363 4.93949432077" />
  <path stroke-width="0.05291666667" fill="none" stroke="black" stroke-linecap="round" d="M 69.86689157196 3.38410859763 L 58.81585793791 3.24294563351" />
  <path stroke-width="0.05291666667" fill="none" stroke="black" stroke-linecap="round" d="M 55.95752481207 1.08852758377 L 67.09061851156 0.85190832073" />
  <path stroke-width="0.05291666667" fill="none" stroke="black" stroke-linecap="round" d="M 66.21118136975 -0.5792578234 L 52.61840836063 -0.35272138343" />
  <path stroke-width="0.05291666667" fill="none" stroke="black" stroke-linecap="round" d="M 54.69176989037 -2.60184378959 L 66.6695099024 -3.13599603492" />
  <path stroke-width="0.05291666667" fill="none" stroke="black" stroke-linecap="round" d="M 65.28141546101 -4.65577427651 L 53.72207323476 -3.8273266655" />
  <path stroke-width="0.05291666667" fill="none" stroke="black" stroke-linecap="round" d="M 51.18591317323 -5.46934910779 L 62.05077818951 -6.62806125901" />
  <path stroke-width="0.05291666667" fill="none" stroke="black" stroke-linecap="round" d="M 61.07759900987 -7.89887208986 L 47.59824246984 -6.26753868178" />
  <path stroke-width="0.05291666667" fill="none" stroke="black" stroke-linecap="round" d="M 49.41762091785 -8.73033322028 L 60.31950222687 -10.63504858186" />
  <path stroke-width="0.05291666667" fill="none" stroke="black" stroke-linecap="round" d="M 59.39120129952 -11.95936460594 L 48.36332522481 -9.81532523493" />
  <path stroke-width="0.05291666667" fill="none" stroke="black" stroke-linecap="round" d="M 45.45289600933 -11.35177986911 L 55.96251887585 -13.87904928443" />
  <path stroke-width="0.05291666667" fill="none" stroke="black" stroke-linecap="round" d="M 54.86829602791 -15.02674041151 L 43.1440957006 -12.10490567202" />
  <path stroke-width="0.05291666667" fill="none" stroke="black" stroke-linecap="round" d="M 43.3676544785 -14.44321602749 L 56.37505429851 -17.69340373717" />
  <path stroke-width="0.05291666667" fill="none" stroke="black" stroke-linecap="round" d="M 53.12969623834 -18.41306757534 L 42.3240155744 -15.31474607685" />
  <path stroke-width="0.05291666667" fill="none" stroke="black" stroke-linecap="round" d="M 39.02828172597 -16.255103071 L 49.42751614245 -20.17162291896" />
  <path stroke-width="0.05291666667" fill="none" stroke="black" stroke-linecap="round" d="M 36.92087140477 -16.98170471823 L 48.20847619361 -21.21007482125" />
  <path stroke-width="0.05291666667" fill="none" stroke="black" stroke-linecap="round" d="M 49.14682761322 -24.24986318804 L 36.8997534673 -19.39031767634" />
  <path stroke-width="0.05291666667" fill="none" stroke="black" stroke-linecap="round" d="M 35.5626356834 -20.28849704651 L 46.15571487533 -24.71153230933" />
  <path stroke-width="0.05291666667" fill="none" stroke="black" stroke-linecap="round" d="M 42.27144540613 -25.75861366054 L 32.22081914705 -20.92661455233" />
  <path stroke-width="0.05291666667" fill="none" stroke="black" stroke-linecap="round" d="M 40.97279495514 -26.65100678408 L 29.67057935964 -21.20111676831" />
  <path stroke-width="0.05291666667" fill="none" stroke="black" stroke-linecap="round" d="M 29.88619008186 -23.68802203239 L 41.83212961548 -29.6136612034" />
  <path stroke-width="0.05291666667" fill="none" stroke="black" stroke-linecap="round" d="M 38.49574470041 -29.70791824468 L 28.36585981287 -24.49323933371" />
  <path stroke-width="0.05291666667" fill="none" stroke="black" stroke-linecap="round" d="M 25.15769956844 -24.73578230951 L 34.53292668229 -30.59903555632" />
  <path stroke-width="0.05291666667" fill="none" stroke="black" stroke-linecap="round" d="M 33.1013786873 -31.37653266301 L 22.497295047 -24.71856298123" />
  <path stroke-width="0.05291666667" fill="none" stroke="black" stroke-linecap="round" d="M 22.52836056619 -27.21027561796 L 33.38227445074 -34.54856912724" />
  <path stroke-width="0.05291666667" fill="none" stroke="black" stroke-linecap="round" d="M 21.01849078884 -27.82171003299 L 30.46865817641 -34.50554760303" />
  <path stroke-width="0.05291666667" fill="none" stroke="black" stroke-linecap="round" d="M 26.47453637913 -34.54759270086 L 17.88704221515 -27.97669693178" />
  <path stroke-width="0.05291666667" fill="none" stroke="black" stroke-linecap="round" d="M 24.75167648516 -35.26331849831 L 14.93093270294 -27.51434029703" />
  <path stroke-width="0.05291666667" fill="none" stroke="black" stroke-linecap="round" d="M 14.83152061566 -29.96331321004 L 25.13990894172 -38.27491063693" />
  <path stroke-width="0.05291666667" fill="none" stroke="black" stroke-linecap="round" d="M 14.93093270294 -27.51434029703 A 2.00291892464 2.00291892464 0 0 1 13.29044809298 -27.27666782905" />
  <path stroke-width="0.05291666667" fill="none" stroke="black" stroke-linecap="round" d="M 18.32163333465 -25.62362249286 A 1.49938436912 1.49938436912 0 0 1 17.88704221515 -27.97669693178" />
  <path stroke-width="0.05291666667" fill="none" stroke="black" stroke-linecap="round" d="M 22.497295047 -24.71856298123 A 1.77067114176 1.77067114176 0 0 1 20.93314272536 -24.60918792483" />
  <path stroke-width="0.05291666667" fill="none" stroke="black" stroke-linecap="round" d="M 25.51814394909 -22.55177063846 A 1.35822459911 1.35822459911 0 0 1 25.15769956844 -24.73578230951" />
  <path stroke-width="0.05291666667" fill="none" stroke="black" stroke-linecap="round" d="M 29.67057935964 -21.20111676831 A 1.55368820847 1.55368820847 0 0 1 28.34417445446 -21.09644087592" />
  <path stroke-width="0.05291666667" fill="none" stroke="black" stroke-linecap="round" d="M 32.24899111874 -18.82964391183 A 1.57617282936 1.57617282936 0 0 1 32.22081914705 -20.92661455233" />
  <path stroke-width="0.05291666667" fill="none" stroke="black" stroke-linecap="round" d="M 36.92087140477 -16.98170471823 A 2.4582955608 2.4582955608 0 0 1 35.19333610285 -16.90650449626" />
  <path stroke-width="0.05291666667" fill="none" stroke="black" stroke-linecap="round" d="M 38.67638276457 -14.36759558355 A 1.35884341486 1.35884341486 0 0 1 39.02828172597 -16.255103071" />
  <path stroke-width="0.05291666667" fill="none" stroke="black" stroke-linecap="round" d="M 43.1440957006 -12.10490567202 A 2.25007384179 2.25007384179 0 0 1 41.25136483199 -12.28607716309" />
  <path stroke-width="0.05291666667" fill="none" stroke="black" stroke-linecap="round" d="M 44.67391953144 -9.21295796534 A 1.46518105348 1.46518105348 0 0 1 45.45289600933 -11.35177986911" />
  <path stroke-width="0.05291666667" fill="none" stroke="black" stroke-linecap="round" d="M 49.98758649543 -3.60395124724 A 1.43274244453 1.43274244453 0 0 1 51.18591317323 -5.46934910779" />
  <path stroke-width="0.05291666667" fill="none" stroke="black" stroke-linecap="round" d="M 54.80831548146 2.66026754524 A 1.4763299309 1.4763299309 0 0 1 55.95752481207 1.08852758377" />
  <path stroke-width="0.05291666667" fill="none" stroke="black" stroke-linecap="round" d="M 58.99369751792 9.45991730257 A 1.1368317527 1.1368317527 0 0 1 60.09854152185 8.01868888871" />
  <path stroke-width="0.05291666667" fill="none" stroke="black" stroke-linecap="round" d="M 62.4230792014 16.60531352928 A 1.23289320664 1.23289320664 0 0 1 63.74297282119 15.27390153612" />
  <path stroke-width="0.05291666667" fill="none" stroke="black" stroke-linecap="round" d="M 78.22361959875 22.63120026456 A 4.12460584633 4.12460584633 0 0 1 79.86632335049 24.04440445378" />
  <path stroke-width="0.05291666667" fill="none" stroke="black" stroke-linecap="round" d="M 78.47356641517 19.08241355429 A 1.3425196901 1.3425196901 0 0 1 76.86012390678 20.44362165707" />
  <path stroke-width="0.05291666667" fill="none" stroke="black" stroke-linecap="round" d="M 75.30006195013 13.49740209929 A 3.57976589249 3.57976589249 0 0 1 76.92178669908 14.52868951256" />
  <path stroke-width="0.05291666667" fill="none" stroke="black" stroke-linecap="round" d="M 75.26075168318 10.37112530275 A 1.60481405353 1.60481405353 0 0 1 73.53302635221 11.75492467996" />
  <path stroke-width="0.05291666667" fill="none" stroke="black" stroke-linecap="round" d="M 71.3153084363 4.93949432077 A 2.24509002404 2.24509002404 0 0 1 73.03154568168 5.55776953433" />
  <path stroke-width="0.05291666667" fill="none" stroke="black" stroke-linecap="round" d="M 71.19118183714 2.0643888436 A 1.43370676589 1.43370676589 0 0 1 69.86689157196 3.38410859763" />
  <path stroke-width="0.05291666667" fill="none" stroke="black" stroke-linecap="round" d="M 66.6695099024 -3.13599603492 A 3.08430564037 3.08430564037 0 0 1 68.34473680493 -2.71324728416" />
  <path stroke-width="0.05291666667" fill="none" stroke="black" stroke-linecap="round" d="M 66.14071627434 -6.00442374011 A 1.26660338592 1.26660338592 0 0 1 65.28141546101 -4.65577427651" />
  <path stroke-width="0.05291666667" fill="none" stroke="black" stroke-linecap="round" d="M 60.31950222687 -10.63504858186 A 4.65375964789 4.65375964789 0 0 1 62.86717035874 -10.38330084935" />
  <path stroke-width="0.05291666667" fill="none" stroke="black" stroke-linecap="round" d="M 60.28602627748 -13.48180133967 A 1.33943092708 1.33943092708 0 0 1 59.39120129952 -11.95936460594" />
  <path stroke-width="0.05291666667" fill="none" stroke="black" stroke-linecap="round" d="M 53.86879677912 -20.12957181798 A 1.29631449275 1.29631449275 0 0 1 53.12969623834 -18.41306757534" />
  <path stroke-width="0.05291666667" fill="none" stroke="black" stroke-linecap="round" d="M 46.52785525847 -26.30096849673 A 1.10203361315 1.10203361315 0 0 1 46.15571487533 -24.71153230933" />
  <path stroke-width="0.05291666667" fill="none" stroke="black" stroke-linecap="round" d="M 38.58461977495 -31.65615825039 A 1.20691194531 1.20691194531 0 0 1 38.49574470041 -29.70791824468" />
  <path stroke-width="0.05291666667" fill="none" stroke="black" stroke-linecap="round" d="M 30.36898747001 -36.02660234667 A 0.9507108191 0.9507108191 0 0 1 30.46865817641 -34.50554760303" />
  <path stroke-width="0.05291666667" fill="none" stroke="black" stroke-linecap="round" d="M -34.56125182645 -25.53602199905 A 76.31623887078 76.31623887078 0 0 1 13.29044809298 -27.27666782905" />
  <path stroke-width="0.05291666667" fill="none" stroke="black" stroke-linecap="round" d="M -8.00122187201 -33.32021959884 A 79.32943137566 79.32943137566 0 0 1 14.83152061566 -29.96331321004" />
  <path stroke-width="0.05291666667" fill="none" stroke="black" stroke-linecap="round" d="M 76.94853270976 24.52660483413 A 87.62398035774 87.62398035774 0 0 1 79.59561468356 48.19056949556" />
  <path stroke-width="0.05291666667" fill="none" stroke="black" stroke-linecap="round" d="M 79.86632335049 24.04440445378 A 90.57149693209 90.57149693209 0 0 1 82.51883428657 49.05561850225" />
  <path stroke-width="0.05291666667" fill="none" stroke="black" stroke-linecap="round" d="M 74.72797313288 48.19056949556 L 74.72797313288 48.89130378761" />
  <path stroke-width="0.05291666667" fill="none" stroke="black" stroke-linecap="round" d="M 21.01849078884 -27.82171003299 A 79.32936869914 79.32936869914 0 0 1 22.52836056619 -27.21027561796" />
  <path stroke-width="0.05291666667" fill="none" stroke="black" stroke-linecap="round" d="M 25.13990894172 -38.27491063693 A 90.56569376663 90.56569376663 0 0 1 30.36898747001 -36.02660234667" />
  <path stroke-width="0.05291666667" fill="none" stroke="black" stroke-linecap="round" d="M 20.93314272536 -24.60918792483 A 76.31623887078 76.31623887078 0 0 0 18.32163333465 -25.62362249286" />
  <path stroke-width="0.05291666667" fill="none" stroke="black" stroke-linecap="round" d="M 28.34417445446 -21.09644087592 A 76.31623887078 76.31623887078 0 0 0 25.51814394909 -22.55177063846" />
  <path stroke-width="0.05291666667" fill="none" stroke="black" stroke-linecap="round" d="M 35.19333610285 -16.90650449626 A 76.31623887078 76.31623887078 0 0 0 32.24899111874 -18.82964391183" />
  <path stroke-width="0.05291666667" fill="none" stroke="black" stroke-linecap="round" d="M 41.25136483199 -12.28607716309 A 76.31623887078 76.31623887078 0 0 0 38.67638276457 -14.36759558355" />
  <path stroke-width="0.05291666667" fill="none" stroke="black" stroke-linecap="round" d="M 47.59824246984 -6.26753868178 A 76.31623887078 76.31623887078 0 0 0 44.67391953144 -9.21295796534" />
  <path stroke-width="0.05291666667" fill="none" stroke="black" stroke-linecap="round" d="M 52.61840836063 -0.35272138343 A 76.3162932277 76.3162932277 0 0 0 49.98758649543 -3.60395124724" />
  <path stroke-width="0.05291666667" fill="none" stroke="black" stroke-linecap="round" d="M 57.19112113707 6.33392966079 A 76.3162932277 76.3162932277 0 0 0 54.80831548146 2.66026754524" />
  <path stroke-width="0.05291666667" fill="none" stroke="black" stroke-linecap="round" d="M 61.01036015952 13.42743163004 A 76.3162932277 76.3162932277 0 0 0 58.99369751792 9.45991730257" />
  <path stroke-width="0.05291666667" fill="none" stroke="black" stroke-linecap="round" d="M 64.12877836062 21.08060829733 A 76.3162932277 76.3162932277 0 0 0 62.4230792014 16.60531352928" />
  <path stroke-width="0.05291666667" fill="none" stroke="black" stroke-linecap="round" d="M 66.7680513909 19.48643471099 A 79.33414533726 79.33414533726 0 0 0 66.17664716989 17.87479536139" />
  <path stroke-width="0.05291666667" fill="none" stroke="black" stroke-linecap="round" d="M 63.52507599281 11.69130503563 A 79.33307050817 79.33307050817 0 0 0 62.8031257021 10.2254987943" />
  <path stroke-width="0.05291666667" fill="none" stroke="black" stroke-linecap="round" d="M 54.69176989037 -2.60184378959 A 79.33129605098 79.33129605098 0 0 0 53.72207323476 -3.8273266655" />
  <path stroke-width="0.05291666667" fill="none" stroke="black" stroke-linecap="round" d="M 49.41762091785 -8.73033322028 A 79.33064332887 79.33064332887 0 0 0 48.36332522481 -9.81532523493" />
  <path stroke-width="0.05291666667" fill="none" stroke="black" stroke-linecap="round" d="M 43.3676544785 -14.44321602749 A 79.33012146758 79.33012146758 0 0 0 42.3240155744 -15.31474607685" />
  <path stroke-width="0.05291666667" fill="none" stroke="black" stroke-linecap="round" d="M 36.8997534673 -19.39031767634 A 79.32973969958 79.32973969958 0 0 0 35.5626356834 -20.28849704651" />
  <path stroke-width="0.05291666667" fill="none" stroke="black" stroke-linecap="round" d="M 29.88619008186 -23.68802203239 A 79.32951976834 79.32951976834 0 0 0 28.36585981287 -24.49323933371" />
  <path stroke-width="0.05291666667" fill="none" stroke="black" stroke-linecap="round" d="M 26.47453637913 -34.54759270086 A 87.62414562161 87.62414562161 0 0 0 24.75167648516 -35.26331849831" />
  <path stroke-width="0.05291666667" fill="none" stroke="black" stroke-linecap="round" d="M 34.53292668229 -30.59903555632 A 87.62414562161 87.62414562161 0 0 0 33.1013786873 -31.37653266301" />
  <path stroke-width="0.05291666667" fill="none" stroke="black" stroke-linecap="round" d="M 42.27144540613 -25.75861366054 A 87.62405223895 87.62405223895 0 0 0 40.97279495514 -26.65100678408" />
  <path stroke-width="0.05291666667" fill="none" stroke="black" stroke-linecap="round" d="M 49.42751614245 -20.17162291896 A 87.62405223895 87.62405223895 0 0 0 48.20847619361 -21.21007482125" />
  <path stroke-width="0.05291666667" fill="none" stroke="black" stroke-linecap="round" d="M 62.05077818951 -6.62806125901 A 87.62405223895 87.62405223895 0 0 0 61.07759900987 -7.89887208986" />
  <path stroke-width="0.05291666667" fill="none" stroke="black" stroke-linecap="round" d="M 49.42751614245 -20.17162291896 A 87.62405223895 87.62405223895 0 0 0 48.20847619361 -21.21007482125" />
  <path stroke-width="0.05291666667" fill="none" stroke="black" stroke-linecap="round" d="M 67.09061851156 0.85190832073 A 87.62405223895 87.62405223895 0 0 0 66.21118136975 -0.5792578234" />
  <path stroke-width="0.05291666667" fill="none" stroke="black" stroke-linecap="round" d="M 71.26754955293 8.66714694347 A 87.62405223895 87.62405223895 0 0 0 70.58170764046 7.24465493685" />
  <path stroke-width="0.05291666667" fill="none" stroke="black" stroke-linecap="round" d="M 74.79161707822 17.3157407992 A 87.62405223895 87.62405223895 0 0 0 74.24697410385 15.78995554571" />
  <path stroke-width="0.05291666667" fill="none" stroke="black" stroke-linecap="round" d="M 78.47356641517 19.08241355429 A 90.57011776573 90.57011776573 0 0 0 76.92178669908 14.52868951256" />
  <path stroke-width="0.05291666667" fill="none" stroke="black" stroke-linecap="round" d="M 75.26075168318 10.37112530275 A 90.56840369653 90.56840369653 0 0 0 73.03154568168 5.55776953433" />
  <path stroke-width="0.05291666667" fill="none" stroke="black" stroke-linecap="round" d="M 71.19118183714 2.0643888436 A 90.5681623788 90.5681623788 0 0 0 68.34473680493 -2.71324728416" />
  <path stroke-width="0.05291666667" fill="none" stroke="black" stroke-linecap="round" d="M 66.14071627434 -6.00442374011 A 90.56740289442 90.56740289442 0 0 0 62.86717035874 -10.38330084935" />
  <path stroke-width="0.05291666667" fill="none" stroke="black" stroke-linecap="round" d="M 60.28602627748 -13.48180133967 A 90.56676773852 90.56676773852 0 0 0 56.37505429851 -17.69340373717" />
  <path stroke-width="0.05291666667" fill="none" stroke="black" stroke-linecap="round" d="M 53.86879677912 -20.12957181798 A 90.5662718437 90.5662718437 0 0 0 49.14682761322 -24.24986318804" />
  <path stroke-width="0.05291666667" fill="none" stroke="black" stroke-linecap="round" d="M 46.52785525847 -26.30096849673 A 90.56597157477 90.56597157477 0 0 0 41.83212961548 -29.6136612034" />
  <path stroke-width="0.05291666667" fill="none" stroke="black" stroke-linecap="round" d="M 38.58461977495 -31.65615825039 A 90.5657996902 90.5657996902 0 0 0 33.38227445074 -34.54856912724" />
  <path stroke-width="0.05291666667" fill="none" stroke="black" stroke-linecap="round" d="M 59.63142550501 4.54475816795 A 79.33147694719 79.33147694719 0 0 0 58.81585793791 3.24294563351" />
  <path stroke-width="0.05291666667" fill="none" stroke="black" stroke-linecap="round" d="M 55.96251887585 -13.87904928443 A 87.62405223895 87.62405223895 0 0 0 54.86829602791 -15.02674041151" />
</svg>